<svg width="26" height="24" viewBox="0 0 26 24" fill="none" xmlns="http://www.w3.org/2000/svg">
<path fill-rule="evenodd" clip-rule="evenodd" d="M2.55355 2.55355C1.81256 3.29455 1.5 4.59643 1.5 7V16.6C1.5 19.0036 1.81256 20.3054 2.55355 21.0464C3.29455 21.7874 4.59643 22.1 7 22.1H19C21.4036 22.1 22.7055 21.7874 23.4464 21.0464C24.1874 20.3054 24.5 19.0036 24.5 16.6V7C24.5 4.59643 24.1874 3.29455 23.4464 2.55355C22.7055 1.81256 21.4036 1.5 19 1.5H7C4.59643 1.5 3.29455 1.81256 2.55355 2.55355ZM1.84645 1.84645C2.90545 0.787443 4.60357 0.5 7 0.5H19C21.3964 0.5 23.0946 0.787443 24.1536 1.84645C25.2126 2.90545 25.5 4.60357 25.5 7V16.6C25.5 18.9964 25.2126 20.6945 24.1536 21.7536C23.0946 22.8126 21.3964 23.1 19 23.1H7C4.60357 23.1 2.90545 22.8126 1.84645 21.7536C0.787443 20.6945 0.5 18.9964 0.5 16.6V7C0.5 4.60357 0.787443 2.90545 1.84645 1.84645ZM14.9 7C14.9 6.72386 15.1239 6.5 15.4 6.5H21.4C21.6761 6.5 21.9 6.72386 21.9 7C21.9 7.27614 21.6761 7.5 21.4 7.5H15.4C15.1239 7.5 14.9 7.27614 14.9 7ZM16.1 11.8C16.1 11.5239 16.3239 11.3 16.6 11.3H21.4C21.6761 11.3 21.9 11.5239 21.9 11.8C21.9 12.0761 21.6761 12.3 21.4 12.3H16.6C16.3239 12.3 16.1 12.0761 16.1 11.8ZM18.5 16.6C18.5 16.3239 18.7239 16.1 19 16.1H21.4C21.6761 16.1 21.9 16.3239 21.9 16.6C21.9 16.8761 21.6761 17.1 21.4 17.1H19C18.7239 17.1 18.5 16.8761 18.5 16.6Z" fill="black"/>
<path fill-rule="evenodd" clip-rule="evenodd" d="M6.91343 6.34706C7.41453 5.84597 8.09416 5.56445 8.80282 5.56445C9.51148 5.56445 10.1911 5.84597 10.6922 6.34706C11.1933 6.84816 11.4748 7.52779 11.4748 8.23645C11.4748 8.94511 11.1933 9.62474 10.6922 10.1258C10.1911 10.6269 9.51148 10.9085 8.80282 10.9085C8.09416 10.9085 7.41453 10.6269 6.91343 10.1258C6.41233 9.62474 6.13082 8.94511 6.13082 8.23645C6.13082 7.52779 6.41233 6.84816 6.91343 6.34706ZM8.80282 6.56445C8.35938 6.56445 7.9341 6.74061 7.62054 7.05417C7.30698 7.36773 7.13082 7.79301 7.13082 8.23645C7.13082 8.67989 7.30698 9.10517 7.62054 9.41874C7.9341 9.7323 8.35938 9.90845 8.80282 9.90845C9.24626 9.90845 9.67154 9.7323 9.9851 9.41874C10.2987 9.10517 10.4748 8.67989 10.4748 8.23645C10.4748 7.79301 10.2987 7.36773 9.9851 7.05417C9.67154 6.74061 9.24626 6.56445 8.80282 6.56445ZM9.7615 12.6946C10.7197 12.78 11.618 13.1978 12.3008 13.8756C12.9842 14.554 13.4086 15.4502 13.5005 16.4087C13.5269 16.6836 13.3254 16.9278 13.0505 16.9542C12.7757 16.9805 12.5315 16.7791 12.5051 16.5042C12.4355 15.778 12.1139 15.0992 11.5963 14.5853C11.0786 14.0714 10.3974 13.7548 9.67074 13.6905L9.66559 13.6901L9.6656 13.69C9.09181 13.6333 8.51383 13.6333 7.94004 13.69L7.93626 13.6904L7.93626 13.6904C7.20997 13.7567 6.52949 14.074 6.01191 14.5878C5.49432 15.1016 5.172 15.7798 5.1004 16.5055C5.0733 16.7803 4.82854 16.9811 4.55373 16.954C4.27893 16.9269 4.07813 16.6822 4.10524 16.4074C4.19966 15.4501 4.62477 14.5558 5.30739 13.8781C5.98957 13.2009 6.88631 12.7825 7.84349 12.6947" fill="black"/>
</svg>
