<svg width="30" height="30" viewBox="0 0 30 30" fill="none" xmlns="http://www.w3.org/2000/svg">
<g clip-path="url(#clip0_15_1147)">
<path fill-rule="evenodd" clip-rule="evenodd" d="M29.637 14.3435C30.121 14.8348 30.121 15.6316 29.637 16.123L16.3318 29.6314C16.0993 29.8674 15.7841 30 15.4554 30C15.1267 30 14.8114 29.8674 14.579 29.6315L1.61301 16.4676C1.129 15.9762 1.129 15.1795 1.61301 14.6881C2.09702 14.1967 2.88176 14.1967 3.36577 14.6881L14.3323 25.822L14.3323 1.2583C14.3323 0.56336 14.8872 1.80218e-07 15.5717 1.72056e-07C16.2562 1.63893e-07 16.8111 0.56336 16.8111 1.2583L16.8111 25.5858L27.8842 14.3435C28.3682 13.8521 29.153 13.8521 29.637 14.3435Z" fill="#0076D0"/>
</g>
<defs>
<clipPath id="clip0_15_1147">
<rect width="30" height="30" fill="white"/>
</clipPath>
</defs>
</svg>
