<svg width="30" height="30" viewBox="0 0 30 30" fill="none" xmlns="http://www.w3.org/2000/svg">
<g clip-path="url(#clip0_15_1146)">
<path fill-rule="evenodd" clip-rule="evenodd" d="M1.36302 15.6565C0.879001 15.1652 0.878994 14.3684 1.363 13.877L14.6682 0.368557C14.9007 0.132575 15.2159 1.05244e-06 15.5446 1.05636e-06C15.8733 1.06028e-06 16.1886 0.132572 16.421 0.368548L29.387 13.5324C29.871 14.0238 29.871 14.8205 29.387 15.3119C28.903 15.8033 28.1182 15.8033 27.6342 15.3119L16.6677 4.17801L16.6677 28.7417C16.6677 29.4366 16.1128 30 15.4283 30C14.7438 30 14.1889 29.4366 14.1889 28.7417L14.1889 4.41424L3.11577 15.6565C2.63177 16.1479 1.84703 16.1479 1.36302 15.6565Z" fill="#0076D0"/>
</g>
<defs>
<clipPath id="clip0_15_1146">
<rect width="30" height="30" fill="white"/>
</clipPath>
</defs>
</svg>
