<svg width="30" height="30" viewBox="0 0 30 30" fill="none" xmlns="http://www.w3.org/2000/svg">
<g clip-path="url(#clip0_15_1145)">
<path fill-rule="evenodd" clip-rule="evenodd" d="M15.6565 29.637C15.1652 30.121 14.3684 30.121 13.877 29.637L0.368556 16.3318C0.132573 16.0993 -3.59877e-07 15.7841 -3.88614e-07 15.4554C-4.1735e-07 15.1267 0.13257 14.8114 0.368546 14.579L13.5324 1.61301C14.0238 1.129 14.8205 1.129 15.3119 1.61301C15.8033 2.09702 15.8033 2.88176 15.3119 3.36577L4.17801 14.3323L28.7417 14.3323C29.4366 14.3323 30 14.8872 30 15.5717C30 16.2562 29.4366 16.8111 28.7417 16.8111L4.41424 16.8111L15.6565 27.8842C16.1479 28.3682 16.1479 29.153 15.6565 29.637Z" fill="#0076D0"/>
</g>
<defs>
<clipPath id="clip0_15_1145">
<rect width="30" height="30" fill="white"/>
</clipPath>
</defs>
</svg>
