<svg width="30" height="30" viewBox="0 0 30 30" fill="none" xmlns="http://www.w3.org/2000/svg">
<path fill-rule="evenodd" clip-rule="evenodd" d="M14.3435 1.36302C14.8348 0.879001 15.6316 0.878994 16.123 1.363L29.6314 14.6682C29.8674 14.9007 30 15.2159 30 15.5446C30 15.8733 29.8674 16.1886 29.6315 16.421L16.4676 29.387C15.9762 29.871 15.1795 29.871 14.6881 29.387C14.1967 28.903 14.1967 28.1182 14.6881 27.6342L25.822 16.6677H1.2583C0.56336 16.6677 0 16.1128 0 15.4283C0 14.7438 0.56336 14.1889 1.2583 14.1889H25.5858L14.3435 3.11577C13.8521 2.63177 13.8521 1.84703 14.3435 1.36302Z" fill="#0076D0"/>
</svg>
