<svg xmlns="http://www.w3.org/2000/svg" viewBox="0 0 18 18" style="enable-background:new 0 0 18 18" xml:space="preserve"><path d="M4.084 18c-2.12 0-3.9-1.518-4.055-3.455A8.345 8.345 0 0 1 0 13.921c0-3.126-.002-2.045 0-5.171 0-.956.008-1.933.02-2.903C.047 3.76 1.785 2.16 4.06 2.125l.311-.002.58.001c.123 0 .221-.09.221-.202v-.437c-.002-.321-.005-.624.003-.926a.576.576 0 0 1 .486-.546A.843.843 0 0 1 5.805 0c.26 0 .48.133.574.347.04.09.06.208.065.36.007.276.006.55.005.84V1.9c0 .112.099.203.22.203h4.576c.122 0 .221-.09.221-.203v-.4c0-.3-.002-.61.003-.914.006-.329.262-.573.609-.583h.022c.371 0 .635.246.64.597.005.298.004.59.003.899v.407c0 .112.042.197.22.203 0 0-.102.006 1.379 0 1.48-.006 3.114 1.217 3.539 2.94.062.254.093.542.094.883.008 2.485.012 4.972.016 7.457.003 1.625.005-.959.01.666.002.932-.243 1.696-.745 2.335-.834 1.06-1.955 1.6-3.332 1.602-2.469.003 1.268.004-1.2.004l-8.639-.002-.001.006zM1.539 9.028c-.115 0-.211.083-.22.189l-.007.07c-.004.046-.008.082-.008.12 0 3.06 0 1.912.003 4.972 0 .096.01.19.03.283.288 1.355 1.378 2.166 2.915 2.167h6.1c3.199 0 .19 0 3.39-.004.291 0 .559-.026.794-.077 1.286-.28 2.15-1.282 2.152-2.492.003-2.17.003-.133.003-2.303V9.23c0-.112-.099-.203-.221-.203H1.538l.001.002zm2.8-5.733c-.118 0-.232 0-.348.004-1.32.037-2.422.889-2.618 2.026-.083.48-.08.973-.075 1.448.001.203.002.412-.003.616-.001.064.004.125.01.183l.004.068c.007.108.104.191.221.191h14.948c.122 0 .22-.09.22-.203 0-.196.002-.391.004-.584.004-.434.008-.844-.007-1.263-.055-1.473-1.268-2.501-2.951-2.501-.19 0-.665 0-.786.03-.122 0-.22.09-.22.202v.397c.002.298.005.579-.003.865-.01.303-.257.542-.591.57l-.05.003a.632.632 0 0 1-.614-.47c-.018-.078-.017-.169-.015-.265v-.086a67.053 67.053 0 0 1 0-.723v-.285c0-.112-.099-.202-.221-.202H6.668c-.122 0-.22.09-.22.202v1.103c-.002.435-.255.727-.63.727a.686.686 0 0 1-.472-.188.642.642 0 0 1-.178-.514c.016-.257.012-.51.008-.778-.001-.12-.004-.241-.004-.366 0-.112-.099-.203-.22-.203l-.322-.001-.29-.001-.002-.002z"/></svg>