<svg xmlns="http://www.w3.org/2000/svg" viewBox="0 0 18 18" style="enable-background:new 0 0 18 18" xml:space="preserve"><path d="M16.853 1.3h-5.237a3.108 3.108 0 0 0-2.618 1.436A3.11 3.11 0 0 0 6.38 1.3H1.144A1.146 1.146 0 0 0-.002 2.445v10.473a1.145 1.145 0 0 0 1.145 1.145H6.38a2.127 2.127 0 0 1 2.127 2.128.49.49 0 1 0 .982 0 2.127 2.127 0 0 1 2.127-2.128h5.237a1.145 1.145 0 0 0 1.145-1.145V2.445A1.145 1.145 0 0 0 16.853 1.3zM6.38 13.082H1.143a.164.164 0 0 1-.163-.164V2.445a.164.164 0 0 1 .163-.163H6.38a2.127 2.127 0 0 1 2.127 2.127v9.516a3.098 3.098 0 0 0-2.127-.843zm10.636-.164a.164.164 0 0 1-.163.164h-5.237c-.79 0-1.552.301-2.127.844V4.409a2.127 2.127 0 0 1 2.127-2.127h5.237a.164.164 0 0 1 .163.163v10.473zM15.38 5.063a.491.491 0 0 1-.491.491h-3.273a.49.49 0 1 1 0-.982h3.273a.49.49 0 0 1 .49.491zm0 2.619a.491.491 0 0 1-.491.49h-3.273a.49.49 0 1 1 0-.981h3.273a.49.49 0 0 1 .49.49zm0 2.618a.491.491 0 0 1-.491.49h-3.273a.49.49 0 1 1 0-.981h3.273a.49.49 0 0 1 .49.49z"/></svg>