<svg version="1.1" id="Слой_1" xmlns="http://www.w3.org/2000/svg" x="0" y="0" viewBox="0 0 18 18" style="enable-background:new 0 0 18 18" xml:space="preserve"><style>.st0{fill-rule:evenodd;clip-rule:evenodd}</style><path class="st0" d="M9 0a8.973 8.973 0 0 1 6.364 2.636A8.973 8.973 0 0 1 18 9a8.973 8.973 0 0 1-2.636 6.364A8.971 8.971 0 0 1 9 18a8.973 8.973 0 0 1-6.364-2.636A8.972 8.972 0 0 1 0 9a8.974 8.974 0 0 1 2.636-6.364A8.974 8.974 0 0 1 9 0zm0 0v.563V0zM0 9h.563H0zm9 9v-.563V18zm9-9h-.563H18zm-5.986-7.277a7.848 7.848 0 0 0-3.013-.598h-.002a7.848 7.848 0 0 0-5.567 2.306v.001A7.848 7.848 0 0 0 1.124 9v.002a7.85 7.85 0 0 0 2.306 5.567h.001a7.848 7.848 0 0 0 5.567 2.307h.002a7.848 7.848 0 0 0 5.567-2.306v-.001A7.848 7.848 0 0 0 16.876 9v-.002a7.849 7.849 0 0 0-2.306-5.567l-.001-.001a7.85 7.85 0 0 0-2.554-1.709z"/><path class="st0" d="M13.617 6.07c.22.22.22.577 0 .796L8.554 11.93a.562.562 0 0 1-.795 0L5.228 9.398a.562.562 0 1 1 .795-.796l2.134 2.134L12.82 6.07c.22-.22.576-.22.796 0z"/></svg>