<svg width="20" height="20" viewBox="0 0 20 20" fill="none" xmlns="http://www.w3.org/2000/svg">
<path d="M7.405 13.8406C8.46194 12.618 9.42339 11.5059 10.3838 10.3938C12.5964 7.83236 14.8133 5.27545 17.0162 2.70613C17.5227 2.11511 18.1172 1.85796 18.8447 2.07789C19.98 2.41964 20.377 3.86334 19.5883 4.83332C18.8157 5.78525 17.9959 6.69433 17.1954 7.62145C14.4248 10.828 11.6575 14.0369 8.88257 17.2389C8.01663 18.2393 7.08416 18.2506 6.1828 17.2897C4.29425 15.2764 2.40677 13.2631 0.523579 11.2453C-0.0140155 10.669 -0.140635 9.94489 0.157671 9.27267C0.45383 8.60609 1.08049 8.2181 1.78118 8.27787C2.24474 8.31735 2.60635 8.56436 2.92505 8.90723C4.32 10.4039 5.72247 11.8939 7.11635 13.3917C7.22687 13.5101 7.11635 13.3917 7.45764 13.7797L7.405 13.8406Z" fill="black"/>
</svg>
