<svg width="16" height="16" viewBox="0 0 16 16" fill="none" xmlns="http://www.w3.org/2000/svg">
<path fill-rule="evenodd" clip-rule="evenodd" d="M15.807 0.900428C16.0023 0.705166 16.0023 0.388584 15.807 0.193322C15.6118 -0.00194053 15.2952 -0.00194055 15.0999 0.193322L8.00005 7.29318L0.900198 0.193322C0.704936 -0.00194054 0.388354 -0.00194054 0.193091 0.193322C-0.00217075 0.388584 -0.00217075 0.705166 0.193091 0.900428L7.29295 8.00028L0.193077 15.1002C-0.00218462 15.2954 -0.00218464 15.612 0.193077 15.8073C0.388339 16.0025 0.704922 16.0025 0.900184 15.8073L8.00005 8.70739L15.0999 15.8073C15.2952 16.0025 15.6118 16.0025 15.807 15.8073C16.0023 15.612 16.0023 15.2954 15.807 15.1002L8.70716 8.00028L15.807 0.900428Z" fill="black"/>
</svg>
