<svg width="22" height="22" viewBox="0 0 22 22" fill="none" xmlns="http://www.w3.org/2000/svg">
<g clip-path="url(#clip0_182_1202)">
<path fill-rule="evenodd" clip-rule="evenodd" d="M3.20262 3.20262C2.45929 3.94595 2 5.14218 2 6.98205V11.9671C2 14.3734 2.49006 15.494 3.15402 16.0749C3.85101 16.6848 5.00572 16.9492 6.98205 16.9492H7.48056C7.81224 16.9492 8.12529 17.0517 8.36464 17.1703C8.60037 17.2872 8.87788 17.4758 9.08143 17.7523L10.5737 19.742C10.7416 19.9658 10.8947 20 10.9701 20C11.0455 20 11.1986 19.9658 11.3665 19.742L12.8658 17.7429C13.2415 17.2486 13.8333 16.9492 14.4596 16.9492H14.9581C16.798 16.9492 17.9942 16.4899 18.7376 15.7465C19.4809 15.0032 19.9402 13.807 19.9402 11.9671V6.98205C19.9402 5.14218 19.4809 3.94595 18.7376 3.20262C17.9942 2.45929 16.798 2 14.9581 2H6.98205C5.14218 2 3.94595 2.45929 3.20262 3.20262ZM1.78841 1.78841C3.0391 0.537718 4.83389 0 6.98205 0H14.9581C17.1063 0 18.9011 0.537718 20.1518 1.78841C21.4025 3.0391 21.9402 4.83389 21.9402 6.98205V11.9671C21.9402 14.1153 21.4025 15.9101 20.1518 17.1607C18.9011 18.4114 17.1063 18.9492 14.9581 18.9492H14.4639C14.4637 18.9493 14.4642 18.949 14.4639 18.9492C14.4611 18.9506 14.4587 18.9525 14.4583 18.9529C14.4582 18.953 14.4582 18.953 14.4583 18.9529L12.9665 20.942C12.4764 21.5955 11.7621 22 10.9701 22C10.1781 22 9.46381 21.5955 8.97368 20.942L7.49773 18.974C7.49168 18.9703 7.48445 18.9663 7.47634 18.9623C7.46783 18.958 7.45948 18.9544 7.45184 18.9515C7.44953 18.9506 7.4474 18.9498 7.44547 18.9492H6.98205C4.97035 18.9492 3.13404 18.715 1.83701 17.5801C0.506949 16.4163 0 14.5458 0 11.9671V6.98205C0 4.83389 0.537718 3.0391 1.78841 1.78841Z" fill="black"/>
<path fill-rule="evenodd" clip-rule="evenodd" d="M4.98438 6.98047C4.98438 6.42818 5.43209 5.98047 5.98438 5.98047H15.9545C16.5067 5.98047 16.9545 6.42818 16.9545 6.98047C16.9545 7.53275 16.5067 7.98047 15.9545 7.98047H5.98438C5.43209 7.98047 4.98438 7.53275 4.98438 6.98047ZM4.98438 11.9655C4.98438 11.4132 5.43209 10.9655 5.98438 10.9655H11.9664C12.5187 10.9655 12.9664 11.4132 12.9664 11.9655C12.9664 12.5178 12.5187 12.9655 11.9664 12.9655H5.98438C5.43209 12.9655 4.98438 12.5178 4.98438 11.9655Z" fill="black"/>
</g>
<defs>
<clipPath id="clip0_182_1202">
<rect width="22" height="22" fill="white"/>
</clipPath>
</defs>
</svg>
