<svg width="22" height="22" viewBox="0 0 22 22" fill="none" xmlns="http://www.w3.org/2000/svg">
<g clip-path="url(#clip0_182_1224)">
<path fill-rule="evenodd" clip-rule="evenodd" d="M3.33211 3.33211C2.4864 4.17782 2 5.59863 2 8V14C2 16.4014 2.4864 17.8222 3.33211 18.6679C4.17782 19.5136 5.59863 20 8 20H14C16.4014 20 17.8222 19.5136 18.6679 18.6679C19.5136 17.8222 20 16.4014 20 14V9C20 8.44772 20.4477 8 21 8C21.5523 8 22 8.44772 22 9V14C22 16.5986 21.4864 18.6778 20.0821 20.0821C18.6778 21.4864 16.5986 22 14 22H8C5.40137 22 3.32218 21.4864 1.91789 20.0821C0.513602 18.6778 0 16.5986 0 14V8C0 5.40137 0.513602 3.32218 1.91789 1.91789C3.32218 0.513602 5.40137 0 8 0H13C13.5523 0 14 0.447715 14 1C14 1.55228 13.5523 2 13 2H8C5.59863 2 4.17782 2.4864 3.33211 3.33211Z" fill="black"/>
<path fill-rule="evenodd" clip-rule="evenodd" d="M12.6173 0.0761497C12.991 -0.0786313 13.4211 0.00692445 13.7071 0.292922L21.7071 8.29292C21.9931 8.57892 22.0787 9.00904 21.9239 9.38271C21.7691 9.75639 21.4045 10 21 10H17C15.4446 10 14.0895 9.7537 13.1679 8.83214C12.2463 7.91058 12 6.55543 12 5.00003V1.00003C12 0.595567 12.2436 0.230931 12.6173 0.0761497ZM14 3.41424V5.00003C14 6.44463 14.2537 7.08948 14.5821 7.41792C14.9105 7.74636 15.5554 8.00003 17 8.00003H18.5858L14 3.41424Z" fill="black"/>
</g>
<defs>
<clipPath id="clip0_182_1224">
<rect width="22" height="22" fill="white"/>
</clipPath>
</defs>
</svg>
