<svg width="18" height="18" viewBox="0 0 18 18" fill="none" xmlns="http://www.w3.org/2000/svg">
<path d="M8.34643 18C6.98989 18 5.63236 18 4.27582 17.998C2.93797 17.997 2.00246 17.0615 2.00148 15.7237C1.99951 11.3914 1.99951 6.86632 2.00148 2.27238C2.00148 1.10078 2.72746 0.220351 3.84987 0.028527C3.99448 0.0039342 4.14991 0.0039342 4.29943 0.0039342H7.90573C9.06946 0.0039342 10.2332 0.00393486 11.3969 0C11.8534 0 12.2105 0.148541 12.5282 0.469232C13.8385 1.78938 15.0131 2.96393 16.1207 4.05979C16.4522 4.38737 16.6047 4.75823 16.6037 5.22647C16.5998 6.50137 16.5998 7.79692 16.6008 9.05017V12.0682C16.6018 13.286 16.6027 14.5029 16.6008 15.7198C16.5988 16.8225 15.9712 17.6675 14.9609 17.9262C14.7789 17.9725 14.5724 17.9961 14.3304 17.9961C12.3354 17.999 10.3404 18 8.34643 18ZM4.29943 0.9483C3.45147 0.9483 2.94584 1.4559 2.94584 2.30484C2.94584 6.76795 2.94584 11.2301 2.94584 15.6932C2.94584 16.5451 3.45049 17.0537 4.29648 17.0537C5.96486 17.0537 7.63422 17.0537 9.30358 17.0537C10.9729 17.0537 12.6413 17.0537 14.3107 17.0537C15.1537 17.0537 15.6574 16.551 15.6574 15.7089C15.6574 12.3387 15.6574 8.96852 15.6574 5.59733C15.6574 5.54716 15.6544 5.49601 15.6505 5.44092L15.6456 5.36321C15.6407 5.27468 15.5679 5.20483 15.4784 5.20483H15.2147C14.9678 5.20483 14.7199 5.20483 14.473 5.20581C14.2261 5.20581 13.9792 5.2068 13.7323 5.2068C13.3958 5.2068 13.0584 5.20582 12.722 5.20188C11.9547 5.19303 11.393 4.62641 11.3881 3.85518C11.3851 3.45874 11.3861 3.06329 11.3871 2.66685V2.13761V1.11356C11.3871 1.02109 11.3123 0.946332 11.2199 0.946332H7.27517C6.28358 0.946332 5.29102 0.946332 4.29943 0.946332V0.9483ZM12.5007 1.933C12.479 1.933 12.4574 1.93693 12.4367 1.94579C12.3747 1.97136 12.3334 2.03235 12.3334 2.10023V2.55175C12.3334 2.98852 12.3324 3.43611 12.3354 3.88272C12.3374 4.10701 12.4908 4.25751 12.72 4.2585C13.0004 4.25948 13.2798 4.25948 13.5572 4.25948H14.4937C14.5615 4.25948 14.6225 4.21817 14.6481 4.15619C14.6737 4.09323 14.6599 4.02142 14.6117 3.9742L12.6187 1.98218C12.5862 1.94972 12.5439 1.933 12.5007 1.933Z" fill="black"/>
<path d="M9.26034 11C8.62394 11 7.98817 11 7.35176 11C7.14702 11 7.00947 10.8169 7.0006 10.5328C6.99616 10.3819 7.02278 10.2508 7.0773 10.155C7.13371 10.0572 7.21421 10.0042 7.3112 10.0031C7.4779 10 7.64524 10 7.81195 10C7.92668 10 8.50731 10.001 8.50731 10.001H10.7163C11.0352 10.001 11.3546 10.001 11.6735 10.0021C11.8497 10.0021 11.9765 10.1644 11.9968 10.4131C12.0208 10.7055 11.9137 10.9428 11.7362 10.9896C11.7121 10.9958 11.6849 10.999 11.6513 10.999H9.26034V11Z" fill="black"/>
<path d="M9.26034 13C8.62394 13 7.98817 13 7.35176 13C7.14702 13 7.00947 12.8169 7.0006 12.5328C6.99616 12.3819 7.02278 12.2508 7.0773 12.155C7.13371 12.0572 7.21421 12.0042 7.3112 12.0031C7.4779 12 7.64524 12 7.81195 12C7.92668 12 8.50731 12.001 8.50731 12.001H10.7163C11.0352 12.001 11.3546 12.001 11.6735 12.0021C11.8497 12.0021 11.9765 12.1644 11.9968 12.4131C12.0208 12.7055 11.9137 12.9428 11.7362 12.9896C11.7121 12.9958 11.6849 12.999 11.6513 12.999H9.26034V13Z" fill="black"/>
<path d="M8.24449 9C7.93799 9 7.63212 9 7.32561 8.99792C7.20845 8.99792 7.10333 8.90739 7.04507 8.75859C6.99187 8.62123 6.98554 8.45473 7.02797 8.30177C7.0856 8.09573 7.18122 8 7.33068 8C7.57132 8 7.8107 8 8.05071 8H10.4508C10.8561 8 11.2608 8 11.6661 8C11.8542 8 11.9878 8.1821 11.9992 8.45265C12.0055 8.60562 11.9796 8.73777 11.9232 8.83663C11.8643 8.94069 11.7756 8.99792 11.6724 8.99792C11.3931 8.99896 11.1139 8.99896 10.8346 8.99896H9.48002H8.24449V9Z" fill="black"/>
</svg>
