<svg width="18" height="18" viewBox="0 0 18 18" fill="none" xmlns="http://www.w3.org/2000/svg">
<path d="M7.51864 18C6.12529 18 4.73093 18 3.33758 17.998C1.96342 17.997 1.00253 17.0615 1.00152 15.7237C0.999495 11.3914 0.999495 6.86632 1.00152 2.27238C1.00152 1.10078 1.7472 0.220351 2.90007 0.028527C3.0486 0.0039342 3.20824 0.0039342 3.36183 0.0039342H7.06598C8.26129 0.0039342 9.4566 0.00393486 10.6519 0C11.1207 0 11.4875 0.148541 11.8139 0.469232C13.1597 1.78938 14.3662 2.96393 15.5039 4.05979C15.8444 4.38737 16.001 4.75823 16 5.22647C15.996 6.50137 15.996 7.79692 15.997 9.05017V12.0682C15.998 13.286 15.999 14.5029 15.997 15.7198C15.9949 16.8225 15.3503 17.6675 14.3126 17.9262C14.1257 17.9725 13.9135 17.9961 13.6649 17.9961C11.6158 17.999 9.56673 18 7.51864 18ZM3.36183 0.9483C2.49086 0.9483 1.97151 1.4559 1.97151 2.30484C1.97151 6.76795 1.97151 11.2301 1.97151 15.6932C1.97151 16.5451 2.48984 17.0537 3.35879 17.0537C5.07244 17.0537 6.7871 17.0537 8.50177 17.0537C10.2164 17.0537 11.9301 17.0537 13.6447 17.0537C14.5107 17.0537 15.028 16.551 15.028 15.7089C15.028 12.3387 15.028 8.96852 15.028 5.59733C15.028 5.54716 15.025 5.49601 15.0209 5.44092L15.0159 5.36321C15.0108 5.27468 14.936 5.20483 14.8441 5.20483H14.5733C14.3197 5.20483 14.0651 5.20483 13.8115 5.20581C13.5578 5.20581 13.3042 5.2068 13.0506 5.2068C12.7051 5.2068 12.3585 5.20582 12.0129 5.20188C11.2248 5.19303 10.6479 4.62641 10.6428 3.85518C10.6398 3.45874 10.6408 3.06329 10.6418 2.66685V2.13761V1.11356C10.6418 1.02109 10.565 0.946332 10.47 0.946332H6.41831C5.39982 0.946332 4.38032 0.946332 3.36183 0.946332V0.9483ZM11.7856 1.933C11.7634 1.933 11.7411 1.93693 11.7199 1.94579C11.6563 1.97136 11.6138 2.03235 11.6138 2.10023V2.55175C11.6138 2.98852 11.6128 3.43611 11.6158 3.88272C11.6179 4.10701 11.7755 4.25751 12.0109 4.2585C12.2989 4.25948 12.5858 4.25948 12.8708 4.25948H13.8327C13.9024 4.25948 13.965 4.21817 13.9913 4.15619C14.0176 4.09323 14.0034 4.02142 13.9539 3.9742L11.9068 1.98218C11.8735 1.94972 11.83 1.933 11.7856 1.933Z" fill="black"/>
<path d="M7.82501 10.7207C6.8525 10.7207 5.88096 10.7207 4.90845 10.7207C4.59558 10.7207 4.38538 10.5547 4.37182 10.2973C4.36504 10.1606 4.40572 10.0417 4.48903 9.95497C4.57524 9.86632 4.69825 9.81823 4.84645 9.81728C5.10121 9.81445 5.35692 9.81445 5.61168 9.81445C5.787 9.81445 6.67427 9.8154 6.67427 9.8154H10.05C10.5372 9.8154 11.0254 9.8154 11.5126 9.81634C11.7819 9.81634 11.9756 9.96345 12.0066 10.1888C12.0434 10.4538 11.8797 10.6689 11.6085 10.7113C11.5717 10.7169 11.53 10.7198 11.4787 10.7198H7.82501V10.7207Z" fill="black"/>
<path d="M6.26467 7.85646C5.79585 7.85646 5.328 7.85646 4.85918 7.85458C4.67999 7.85458 4.51919 7.77253 4.43008 7.63768C4.34871 7.51319 4.33902 7.36231 4.40392 7.22368C4.49207 7.03696 4.63833 6.9502 4.86693 6.9502C5.23501 6.9502 5.60116 6.9502 5.96827 6.9502H9.6394C10.2593 6.9502 10.8783 6.9502 11.4982 6.9502C11.7859 6.9502 11.9903 7.11523 12.0077 7.36042C12.0174 7.49905 11.9777 7.61882 11.8915 7.70841C11.8014 7.80271 11.6658 7.85458 11.5079 7.85458C11.0807 7.85552 10.6536 7.85552 10.2264 7.85552H8.15448H6.26467V7.85646Z" fill="black"/>
<path d="M6.73233 13.5762C6.72652 13.5762 6.72071 13.5752 6.7149 13.5752H5.6155C5.35299 13.5762 5.09049 13.5752 4.82799 13.5733C4.61974 13.5714 4.45216 13.4526 4.39017 13.2631C4.32915 13.0782 4.39308 12.8755 4.54128 12.7812C4.64202 12.717 4.76116 12.6765 4.85221 12.6765C5.48376 12.6718 6.15406 12.6689 6.89991 12.6689C7.46268 12.6689 8.02546 12.6699 8.58921 12.6727C8.82846 12.6727 9.01056 12.8076 9.06287 13.0235C9.11324 13.2301 9.01928 13.4328 8.83524 13.5167C8.75872 13.5516 8.65604 13.5714 8.54368 13.5733C8.24921 13.5771 7.95475 13.5771 7.66028 13.5771H6.7333L6.73233 13.5762Z" fill="black"/>
</svg>
