<svg xmlns="http://www.w3.org/2000/svg" viewBox="0 0 18 18" style="enable-background:new 0 0 18 18" xml:space="preserve"><path d="M4.7 10.1c-.3 0-.5-.2-.5-.4 0-.1 0-.2.1-.3.1-.1.2-.1.3-.1h6.3c.3 0 .4.1.5.4 0 .2-.1.5-.4.5h-.1c0-.1-5.3-.1-6.2-.1zM4.6 7.4c-.2 0-.3-.1-.4-.2-.1-.1-.1-.3 0-.4.1-.2.2-.3.4-.3h6.2c.3 0 .5.2.5.4 0 .1 0 .2-.1.3-.1.1-.2.1-.4.1-.3.1-5.7.1-6.2.1z"/><path d="M6.5 16.1H3.2c-.8 0-1.3-.5-1.3-1.3V2.2c0-.8.5-1.3 1.3-1.3H9.9c.1 0 .2.1.2.1v2.6c0 .7.5 1.3 1.3 1.3H14c.1 0 .2.1.2.1v3h.9V4.9c0-.4-.1-.8-.5-1.1-1.1-1-2.2-2.1-3.5-3.4-.2-.3-.6-.4-1-.4H2.8C1.7.2 1 1 1 2.1v12.7c0 1.3.9 2.2 2.2 2.2h3.3v-.9zM11 2c0-.1 0-.1.1-.1h.2l1.9 1.9s.1.1 0 .2h-1.8c-.2 0-.4-.1-.4-.3V2z"/><path d="M7.7 18h-.1s-.1 0-.1-.1l-.1-.1v-.2l.2-2c0-.1 0-.2.1-.3l5.9-5.9c.3-.3.8-.5 1.2-.5.4 0 .9.2 1.2.5.3.3.5.7.5 1.2 0 .4-.1.9-.4 1.2L10 17.7c-.1.1-.2.1-.2.1l-2.1.2zm.5-2.3-.1 1.5 1.5-.2 5.8-5.8c.1-.1.2-.3.2-.5s0-.4-.1-.5c-.1-.2-.2-.3-.3-.4-.1-.1-.3-.1-.5-.1h-.3c-.1 0-.2.1-.3.2l-5.9 5.8z"/></svg>