<svg xmlns="http://www.w3.org/2000/svg" viewBox="0 0 18 18" style="enable-background:new 0 0 18 18" xml:space="preserve"><path d="M4.9 10.6c-.3 0-.5-.2-.5-.4 0-.1 0-.3.1-.3.1-.1.2-.1.4-.1h6.6c.3 0 .5.1.5.4 0 .3-.1.5-.4.5h-.1c-.1-.1-5.7-.1-6.6-.1zM4.8 7.8c-.2 0-.3-.1-.4-.2-.1-.1-.1-.3 0-.4.1-.2.2-.3.4-.3h6.6c.3 0 .5.2.5.4 0 .1 0 .3-.1.3-.1.1-.2.1-.4.1-.4.1-6.1.1-6.6.1z"/><path d="M8.7 16.9H3.3c-.9 0-1.4-.5-1.4-1.3V2.4c0-.8.5-1.3 1.4-1.3h7c.1 0 .2.1.2.2V4c0 .8.6 1.3 1.4 1.3h2.9c.1 0 .2.1.2.2v4.2h1V5.4c0-.5-.2-.8-.5-1.2C14.4 3.1 13.2 2 11.9.6 11.4.1 11 0 10.5 0H2.9C1.7.2 1 1.1 1 2.2v13.3c0 1.3 1 2.2 2.3 2.2h5.4v-.8zm2.8-14.8c0-.1 0-.1.1-.2h.2l2 2s.1.1 0 .2c0 .1-.1.1-.2.1h-1.9c-.2 0-.4-.1-.4-.4V2.1z"/><path d="M11.8 16.1c.5-.6.9-1.1 1.4-1.6 1-1.2 2-2.4 3.1-3.6.2-.3.5-.4.8-.3.5.2.7.8.3 1.3-.4.4-.7.9-1.1 1.3-1.3 1.5-2.6 3-3.8 4.4-.4.5-.8.5-1.2 0-.9-.9-1.7-1.9-2.6-2.8-.2-.3-.3-.6-.2-.9.1-.3.4-.5.8-.5.2 0 .4.1.5.3.6.7 1.3 1.4 1.9 2.1.1.1 0 .1.1.3z"/></svg>