<svg width="20" height="28" viewBox="0 0 20 28" fill="none" xmlns="http://www.w3.org/2000/svg">
<path d="M8 1.07392C8 0.357973 8.3268 0 8.98039 0H11.0196C11.6732 0 12 0.357973 12 1.07392L11.5882 19.5063C11.5882 20.0921 11.2941 20.3849 10.7059 20.3849H9.29412C8.70588 20.3849 8.41176 20.0921 8.41176 19.5063L8 1.07392ZM8.90196 28C8.31373 28 8.01961 27.7071 8.01961 27.1213V24.7392C8.01961 24.1534 8.31373 23.8605 8.90196 23.8605H11.098C11.6863 23.8605 11.9804 24.1534 11.9804 24.7392V27.1213C11.9804 27.7071 11.6863 28 11.098 28H8.90196Z" fill="black"/>
</svg>
