<svg width="22" height="22" viewBox="0 0 22 22" fill="none" xmlns="http://www.w3.org/2000/svg">
<path fill-rule="evenodd" clip-rule="evenodd" d="M10.9998 8.49504C9.40073 8.49504 8.13103 9.76397 8.13103 11.3096C8.13103 12.8552 9.40073 14.1241 10.9998 14.1241C12.5989 14.1241 13.8686 12.8552 13.8686 11.3096C13.8686 9.76397 12.5989 8.49504 10.9998 8.49504ZM6.43872 11.3096C6.43872 8.80595 8.48965 6.80273 10.9998 6.80273C13.51 6.80273 15.5609 8.80595 15.5609 11.3096C15.5609 13.8132 13.51 15.8164 10.9998 15.8164C8.48965 15.8164 6.43872 13.8132 6.43872 11.3096Z" fill="black"/>
<path fill-rule="evenodd" clip-rule="evenodd" d="M0.836059 8.19473C3.32889 4.3334 6.98411 2 11 2C15.0161 2 18.6715 4.33363 21.1643 8.19528C21.7405 9.08544 22 10.2221 22 11.3077C22 12.3935 21.7404 13.5304 21.1639 14.4207C21.1638 14.4208 21.1637 14.421 21.1636 14.4212L20.4534 13.9612L21.1643 14.4201C21.1642 14.4203 21.1641 14.4205 21.1639 14.4207C18.6711 18.282 15.0159 20.6154 11 20.6154C6.98391 20.6154 3.32854 18.2818 0.8357 14.4201L1.5466 13.9612L0.836419 14.4212C0.259704 13.5309 0 12.3938 0 11.3077C0 10.2218 0.259596 9.08497 0.836059 8.19473ZM0.836059 8.19473C0.835939 8.19491 0.835819 8.1951 0.8357 8.19528L1.5466 8.65419L0.836419 8.19417C0.836299 8.19436 0.836179 8.19454 0.836059 8.19473ZM11 3.69231C7.68996 3.69231 4.5173 5.61245 2.2575 9.11311L2.25678 9.11422C1.89957 9.66568 1.69231 10.4612 1.69231 11.3077C1.69231 12.1542 1.89957 12.9497 2.25678 13.5012L2.2575 13.5023C4.5173 17.0029 7.68996 18.9231 11 18.9231C14.31 18.9231 17.4827 17.0029 19.7425 13.5023L19.7432 13.5012C20.1004 12.9497 20.3077 12.1542 20.3077 11.3077C20.3077 10.4612 20.1004 9.66568 19.7432 9.11422L19.7425 9.11311C17.4827 5.61245 14.31 3.69231 11 3.69231Z" fill="black"/>
</svg>
