<svg width="18" height="19" fill="none" xmlns="http://www.w3.org/2000/svg"><g clip-path="url(#a)"><path d="M7.903 18.2c-.924 0-1.595-.717-1.596-1.705v-.012l-.001-.012c-.055-.486-.025-1.318.005-2.2.08-2.277.095-3.933-.442-4.518-.763-.87-1.529-1.745-2.293-2.62C2.61 6.028 1.614 4.887.629 3.767c-.792-.9-.84-1.982-.125-2.824C.92.456 1.471.207 2.142.206 3.16.203 4.175.202 5.191.202l4.082.001V.202L11.003.2h1.965c1.127 0 2.045 0 2.893.004.88.004 1.519.395 1.902 1.165.385.771.3 1.524-.244 2.178-.665.798-1.365 1.591-2.042 2.36-.282.319-.565.639-.845.96l-.738.824c-2.28 2.537-2.324 2.585-2.239 4.75.028.693.064 1.64.025 2.993.004.762-.325 1.29-1.004 1.623l-.517.254c-.458.225-.931.459-1.398.682a1.975 1.975 0 0 1-.857.205l-.001.001zM1.518 3.027c.449.513.896 1.026 1.343 1.54 1.229 1.409 2.5 2.866 3.766 4.287.594.668.867 1.38.859 2.242-.013 1.293-.01 2.607-.007 3.878l.002 1.456c0 .414.146.625.434.625.109 0 .23-.036.393-.115l.577-.284c.386-.191.785-.389 1.183-.572.302-.14.438-.35.439-.682.05-.572.02-1.257-.01-1.982-.071-1.625-.15-3.468.684-4.354l.006-.007 5.316-6.072a.966.966 0 0 0 .23-1.064c-.146-.35-.488-.569-.894-.569-.018 0-.036 0-.055.002l-3.39-.002H8.991l-1.084.001H6.195l-1.712-.002c-.916 0-1.667.001-2.362.004H2.11a.901.901 0 0 0-.866.586.981.981 0 0 0 .274 1.083v.001z" fill="#000"/></g><defs><clipPath id="a"><path fill="#fff" transform="translate(0 .2)" d="M0 0h18v18H0z"/></clipPath></defs></svg>