<?xml version="1.0" encoding="utf-8"?>
<!-- Generator: Adobe Illustrator 27.6.1, SVG Export Plug-In . SVG Version: 6.00 Build 0)  -->
<svg version="1.1" id="Слой_1" xmlns="http://www.w3.org/2000/svg" xmlns:xlink="http://www.w3.org/1999/xlink" x="0px" y="0px"
	 viewBox="0 0 18 18" style="enable-background:new 0 0 18 18;" xml:space="preserve">
<path d="M17.8,7.4c-0.1-0.1-0.2-0.3-0.4-0.3C17.2,7,17,7,16.9,7h-1.5V6c0-0.3-0.1-0.6-0.3-0.8c-0.2-0.2-0.5-0.3-0.8-0.3H8.6
	c0,0-0.1,0-0.1,0L6.2,3.2C6,3.1,5.8,3,5.5,3H1.1C0.8,3,0.6,3.1,0.3,3.3C0.1,3.5,0,3.8,0,3.6V15c0,0.6,0.1,0.7,0.1,0.8
	C0.2,15.9,0.4,16,0.5,16h14.7c0.1,0,0.2,0,0.3-0.1c0.1-0.1,0.1-0.1,0.2-0.2l2.3-7.3C18,8.3,18,8.1,18,7.9C18,7.7,17.9,7.6,17.8,7.4z
	 M1.1,4h4.4c0,0,0.1,0,0.1,0l2.3,1.6c0.2,0.1,0.4,0.2,0.7,0.2h5.7c0,0,0.1,0,0.1,0c0,0,0,0.1,0,0.1v1H3.6C3.3,7,3.1,7,2.9,7.2
	C2.7,7.3,2.6,7.5,2.5,7.7L1,12.1V3.6C1,4.1,1,4,1,4C1.1,4,1.1,4,1.1,4z M17,8.1L14.8,15H1.2l2.3-7c0,0,0-0.1,0.1-0.1
	c0,0,0.1,0,0.1,0h13.3c0,0,0.1,0,0.1,0c0,0,0,0,0.1,0C17,8,17,8,17,8.1C17,8.1,17,8.1,17,8.1z"/>
</svg>
