<svg width="20" height="28" viewBox="0 0 20 28" fill="none" xmlns="http://www.w3.org/2000/svg">
<path d="M8.88983 28C8.29661 28 8 27.7034 8 27.1102V8.12712C8 7.5339 8.29661 7.23729 8.88983 7.23729H10.5904C11.1836 7.23729 11.4802 7.5339 11.4802 8.12712V27.1102C11.4802 27.7034 11.1836 28 10.5904 28H8.88983ZM8.88983 3.48023C8.29661 3.48023 8 3.18362 8 2.5904V0.88983C8 0.29661 8.29661 0 8.88983 0H10.5904C11.1836 0 11.4802 0.29661 11.4802 0.88983V2.5904C11.4802 3.18362 11.1836 3.48023 10.5904 3.48023H8.88983Z" fill="black"/>
</svg>
