<svg width="18" height="18" viewBox="0 0 18 18" fill="none" xmlns="http://www.w3.org/2000/svg">
<g clip-path="url(#clip0_909_1814)">
<g clip-path="url(#clip1_909_1814)">
<path d="M0.501103 9.48145H3.15546C3.28445 9.48641 3.40353 9.53602 3.4978 9.62533C3.59206 9.70967 3.64664 9.82874 3.65656 9.95774C3.66648 10.0867 3.62183 10.2108 3.54245 10.305C3.46307 10.4043 3.34895 10.4638 3.21996 10.4836H3.1505H0.997244V16.3728H3.15546C3.27453 16.3728 3.39361 16.4175 3.48291 16.4969C3.57222 16.5763 3.63175 16.6854 3.64664 16.8045V16.8739C3.6516 16.993 3.60695 17.1121 3.52756 17.2014C3.44818 17.2907 3.33903 17.3502 3.21996 17.3701H3.1505H0.496141C0.377067 17.3701 0.257993 17.3254 0.168688 17.2461C0.0793826 17.1667 0.0198456 17.0575 0.00496141 16.9384V16.869L0 9.97759C0 9.85851 0.0446527 9.73944 0.124035 9.65013C0.203418 9.56083 0.312569 9.50129 0.431643 9.48641H0.501103V9.48145Z" fill="black"/>
<path d="M17.4046 14.6514C17.5534 14.6514 17.6973 14.7059 17.8065 14.8101C17.9156 14.9143 17.9801 15.0532 17.9901 15.2021C18 15.3509 17.9553 15.4998 17.8611 15.6139C17.7668 15.728 17.6328 15.8074 17.484 15.8272H17.4046L4.94154 15.8322C4.7927 15.8322 4.64882 15.7726 4.53967 15.6734C4.43051 15.5692 4.36602 15.4303 4.35609 15.2815C4.34617 15.1326 4.39082 14.9838 4.48509 14.8697C4.57936 14.7556 4.71332 14.6762 4.86216 14.6563H4.94154L17.4046 14.6514Z" fill="black"/>
<path d="M17.4046 11.0635C17.5534 11.0635 17.6973 11.1181 17.8065 11.2222C17.9156 11.3264 17.9801 11.4654 17.9901 11.6142C18 11.763 17.9553 11.9119 17.8611 12.026C17.7668 12.1401 17.6328 12.2195 17.484 12.2393H17.4046L4.94154 12.2443C4.7927 12.2443 4.64882 12.1848 4.53967 12.0855C4.43051 11.9813 4.36602 11.8424 4.35609 11.6936C4.34617 11.5447 4.39082 11.3959 4.48509 11.2818C4.57936 11.1677 4.71332 11.0883 4.86216 11.0684H4.94154L17.4046 11.0635Z" fill="black"/>
<path d="M0.501103 0H3.15546C3.28445 0.00496141 3.40353 0.0545755 3.4978 0.143881C3.59206 0.228225 3.64664 0.347299 3.65656 0.476296C3.66648 0.605292 3.62183 0.729327 3.54245 0.823594C3.46307 0.922823 3.34895 0.982359 3.21996 1.00221H3.1505H0.997244V6.88644H3.15546C3.27453 6.88644 3.39361 6.93109 3.48291 7.01047C3.57222 7.08986 3.63175 7.19901 3.64664 7.31808V7.38754C3.64664 7.50662 3.60695 7.62569 3.52756 7.715C3.44818 7.8043 3.33903 7.86384 3.21996 7.88368H3.1505H0.496141C0.377067 7.88368 0.257993 7.83903 0.168688 7.75965C0.0793826 7.68027 0.0198456 7.57111 0.00496141 7.45204V7.38258L0 0.501103C0 0.382029 0.0446527 0.262955 0.124035 0.173649C0.203418 0.0793826 0.312569 0.0198456 0.431643 0H0.501103Z" fill="black"/>
<path d="M17.4046 5.25391C17.5534 5.25391 17.6973 5.30848 17.8065 5.41267C17.9156 5.51686 17.9801 5.65578 17.9901 5.80462C18 5.95347 17.9553 6.10231 17.8611 6.21642C17.7668 6.33053 17.6328 6.40992 17.484 6.42976H17.4046L4.94154 6.43472C4.7927 6.43472 4.64882 6.37519 4.53967 6.27596C4.43051 6.17177 4.36602 6.03285 4.35609 5.88401C4.34617 5.73516 4.39082 5.58632 4.48509 5.47221C4.57936 5.3581 4.71332 5.27871 4.86216 5.25887H4.94154L17.4046 5.25391Z" fill="black"/>
<path d="M17.4096 1.66211C17.5585 1.66211 17.7023 1.71668 17.8115 1.82087C17.9206 1.92506 17.9851 2.06398 17.9951 2.21283C18.005 2.36167 17.9603 2.51051 17.8661 2.62462C17.7718 2.73874 17.6378 2.81812 17.489 2.83796H17.4096L4.94654 2.84293C4.7977 2.84293 4.65382 2.78835 4.54467 2.68416C4.43552 2.57997 4.37102 2.44105 4.3611 2.29221C4.35118 2.14337 4.39583 1.99452 4.49009 1.88041C4.58436 1.7663 4.71832 1.68692 4.86716 1.66707H4.94654L17.4096 1.66211Z" fill="black"/>
</g>
</g>
<defs>
<clipPath id="clip0_909_1814">
<rect width="18" height="18" fill="white"/>
</clipPath>
<clipPath id="clip1_909_1814">
<rect width="18" height="17.3649" fill="white"/>
</clipPath>
</defs>
</svg>
