<svg width="24" height="24" viewBox="0 0 24 24" fill="none" xmlns="http://www.w3.org/2000/svg">
<path fill-rule="evenodd" clip-rule="evenodd" d="M3.5 2.14286C2.11929 2.14286 1 3.42204 1 5V19.8561C1 21.4341 2.11929 22.7133 3.5 22.7133H12.2178C13.5985 22.7133 14.7178 21.4341 14.7178 19.8561V18.0665C14.7178 17.7509 14.9416 17.4951 15.2178 17.4951C15.4939 17.4951 15.7178 17.7509 15.7178 18.0665V19.8561C15.7178 22.0653 14.1507 23.8561 12.2178 23.8561H3.5C1.567 23.8561 0 22.0652 0 19.8561V5C0 2.79086 1.567 1 3.5 1H12.2178C14.1507 1 15.7178 2.79086 15.7178 5V6.36144C15.7178 6.67703 15.4939 6.93287 15.2178 6.93287C14.9416 6.93287 14.7178 6.67703 14.7178 6.36144V5C14.7178 3.42204 13.5985 2.14286 12.2178 2.14286H3.5Z" fill="black"/>
<path fill-rule="evenodd" clip-rule="evenodd" d="M11.5576 12.4093C11.5576 12.0937 11.7815 11.8379 12.0576 11.8379L22.1057 11.8379C22.3819 11.8379 22.6057 12.0937 22.6057 12.4093C22.6057 12.7249 22.3819 12.9807 22.1057 12.9807L12.0576 12.9807C11.7815 12.9807 11.5576 12.7249 11.5576 12.4093Z" fill="black"/>
<path fill-rule="evenodd" clip-rule="evenodd" d="M20.1629 9.64294C20.3582 9.41979 20.6748 9.4198 20.87 9.64297L22.9371 12.0054C23.1323 12.2286 23.1323 12.5904 22.937 12.8135L20.87 15.1758C20.6748 15.399 20.3582 15.399 20.1629 15.1758C19.9677 14.9527 19.9677 14.5909 20.1629 14.3677L21.8764 12.4094L20.1629 10.4511C19.9677 10.2279 19.9677 9.86609 20.1629 9.64294Z" fill="black"/>
</svg>
