<svg width="22" height="22" viewBox="0 0 22 22" fill="none" xmlns="http://www.w3.org/2000/svg">
<g clip-path="url(#clip0_791_1343)">
<path fill-rule="evenodd" clip-rule="evenodd" d="M9.35713 1.98175C8.27691 2.17854 7.23631 2.56865 6.2869 3.13778C4.86362 3.99099 3.69864 5.21454 2.91622 6.67793C2.13381 8.14132 1.76331 9.78965 1.84425 11.4471C1.92518 13.1045 2.45452 14.7089 3.37579 16.0891C4.29707 17.4693 5.57572 18.5735 7.07536 19.284C8.575 19.9945 10.2394 20.2845 11.8909 20.1233C13.5425 19.962 15.1193 19.3554 16.4532 18.3682C17.2349 17.7897 17.9159 17.0932 18.474 16.3072C17.0894 16.5048 15.6681 16.3895 14.3175 15.9573C12.2421 15.2933 10.465 13.9229 9.29512 12.0845C8.12525 10.2461 7.63658 8.05585 7.91405 5.89451C8.09457 4.48833 8.59197 3.15223 9.35713 1.98175ZM11.1255 0.00896289H11.4379C11.8148 0.00896289 12.1532 0.239644 12.2911 0.590428C12.4289 0.941211 12.3379 1.3406 12.0618 1.59715C10.7796 2.78864 9.95534 4.39181 9.73246 6.12796C9.50957 7.86412 9.90211 9.62349 10.8418 11.1002C11.7816 12.577 13.2091 13.6778 14.8762 14.2112C16.5434 14.7446 18.3447 14.677 19.9672 14.0201C20.3098 13.8814 20.7022 13.962 20.9623 14.2246C21.2225 14.4871 21.2995 14.8802 21.1577 15.2216C20.3935 17.0604 19.1444 18.6573 17.5438 19.8419C15.9432 21.0265 14.051 21.7544 12.0691 21.9479C10.0872 22.1415 8.09 21.7934 6.29043 20.9408C4.49087 20.0883 2.95648 18.7632 1.85095 17.107C0.745425 15.4507 0.110219 13.5255 0.0130944 11.5365C-0.0840305 9.54758 0.360568 7.56958 1.29947 5.81352C2.23836 4.05745 3.63634 2.58918 5.34428 1.56534C7.05221 0.541497 9.00604 0.000480346 10.9973 2.66103e-08C11.0405 -1.03545e-05 11.0833 0.00301673 11.1255 0.00896289Z" fill="black"/>
</g>
<defs>
<clipPath id="clip0_791_1343">
<rect width="22" height="22" fill="white"/>
</clipPath>
</defs>
</svg>
