<svg width="18" height="18" viewBox="0 0 18 18" fill="none" xmlns="http://www.w3.org/2000/svg">
<path d="M0 17.4495C0.0936316 17.0575 0.191809 16.6664 0.279986 16.2734C0.497248 15.3052 0.709964 14.336 0.915863 13.4053C2.10898 14.6024 3.31347 15.8115 4.51477 17.0168C4.21115 17.0922 3.86253 17.1804 3.51346 17.2654C2.55396 17.4994 1.59401 17.7319 0.634513 17.9654C0.297257 18.0477 0.17181 17.9951 0 17.6967C0 17.6145 0 17.5318 0 17.4495Z" fill="black"/>
<path d="M11.19 3.07422C12.3772 4.26817 13.5876 5.48543 14.7825 6.68715C11.719 9.76685 8.6392 12.863 5.57026 15.9482C4.37987 14.7547 3.1672 13.5392 1.96863 12.3375C5.03893 9.25326 8.12014 6.15803 11.19 3.07422Z" fill="black"/>
<path d="M12.1876 2.07346C12.7312 1.51052 13.2553 0.913314 13.8375 0.380079C14.413 -0.146302 15.3216 -0.11843 15.8938 0.41709C16.5056 0.989621 17.0946 1.58911 17.6701 2.19911C18.0846 2.63868 18.1173 3.34829 17.7101 3.78145C17.0883 4.44263 16.417 5.05674 15.7765 5.68136C14.5939 4.49198 13.383 3.27472 12.1881 2.07346H12.1876Z" fill="black"/>
</svg>
