<svg xmlns="http://www.w3.org/2000/svg" viewBox="0 0 18 18" style="enable-background:new 0 0 18 18" xml:space="preserve"><path d="M6.7 7.4V1c0-.1 0-.2-.1-.2 0-.1-.1-.1-.2-.2-.1 0-.1-.1-.2-.1H6c-2 .7-3.7 2.1-4.8 4C.1 6.4-.2 8.5.1 10.6c0 .1.1.2.1.2l.2.2c.1 0 .2.1.2 0 .1 0 .2 0 .2-.1l5.5-3.2c.1 0 .1-.1.2-.2.2.1.2 0 .2-.1zm-1.1-.3L1.1 9.7V9c0-1.5.4-3 1.2-4.3.8-1.3 2-2.3 3.3-2.9v5.3zm11.2-2.6c-.8-1.4-2-2.6-3.3-3.3C12.1.4 10.6 0 9 0c-.1 0-.3.1-.4.2-.1.1-.1.2-.1.3v8.2l-7 4.1c-.1 0-.1.1-.2.1 0 .1-.1.1-.1.2v.2c0 .1 0 .1.1.2 1 1.7 2.5 3 4.4 3.8 1.8.7 3.9.9 5.8.4s3.6-1.6 4.8-3.2C17.4 12.9 18 11 18 9c0-1.6-.4-3.1-1.2-4.5zM9.5 1.1c1.2.1 2.4.4 3.4 1 1.1.6 2 1.4 2.6 2.5l-6 3.5v-7zM9 16.9c-1.3 0-2.6-.3-3.7-.9-1.1-.6-2.1-1.5-2.9-2.5l6.8-4 6.9-4c.6 1.2.9 2.6.8 3.9-.1 1.3-.5 2.7-1.2 3.8-.7 1.1-1.7 2.1-2.9 2.7-1.1.7-2.5 1-3.8 1z"/></svg>