<svg width="22" height="22" viewBox="0 0 22 22" fill="none" xmlns="http://www.w3.org/2000/svg">
<path fill-rule="evenodd" clip-rule="evenodd" d="M7.70828 6.39835C8.48107 5.62555 9.5292 5.19141 10.6221 5.19141C11.1632 5.19141 11.6991 5.29799 12.199 5.50508C12.699 5.71217 13.1533 6.0157 13.5359 6.39835C13.9186 6.78099 14.2221 7.23526 14.4292 7.73521C14.6363 8.23517 14.7428 8.77101 14.7428 9.31216C14.7428 9.8533 14.6363 10.3891 14.4292 10.8891C14.2221 11.3891 13.9186 11.8433 13.5359 12.226C13.1533 12.6086 12.699 12.9121 12.199 13.1192C11.6991 13.3263 11.1632 13.4329 10.6221 13.4329C9.5292 13.4329 8.48107 12.9988 7.70828 12.226C6.93549 11.4532 6.50134 10.405 6.50134 9.31216C6.50134 8.21927 6.93549 7.17114 7.70828 6.39835ZM10.6221 7.19141C10.0596 7.19141 9.52021 7.41484 9.1225 7.81256C8.72478 8.21028 8.50134 8.7497 8.50134 9.31216C8.50134 9.87461 8.72478 10.414 9.1225 10.8118C9.52021 11.2095 10.0596 11.4329 10.6221 11.4329C10.9006 11.4329 11.1764 11.3781 11.4337 11.2715C11.691 11.1649 11.9248 11.0087 12.1217 10.8118C12.3186 10.6148 12.4748 10.381 12.5814 10.1237C12.688 9.86643 12.7428 9.59066 12.7428 9.31216C12.7428 9.03365 12.688 8.75788 12.5814 8.50058C12.4748 8.24328 12.3186 8.00949 12.1217 7.81256C11.9248 7.61563 11.691 7.45942 11.4337 7.35284C11.1764 7.24626 10.9006 7.19141 10.6221 7.19141Z" fill="black"/>
<path fill-rule="evenodd" clip-rule="evenodd" d="M10.6292 2C7.30555 1.99776 4.08213 3.921 3.21931 7.71293C2.19301 12.2479 4.999 16.2124 7.70921 18.8244L7.70947 18.8247C8.49124 19.5787 9.53501 20 10.6211 20C11.7073 20 12.751 19.5787 13.5328 18.8247L13.5344 18.8232C16.2543 16.2113 19.0593 12.2567 18.0328 7.72236L18.0328 7.72231C17.1745 3.93013 13.9531 2.00225 10.6292 2ZM19.9835 7.28077C18.8813 2.4109 14.7059 0.00275699 10.6306 2.36601e-06C6.55508 -0.00275232 2.37684 2.3999 1.26903 7.26975L1.2688 7.27077C-0.00507823 12.898 3.51033 17.5553 6.32133 20.2645C7.47585 21.3779 9.01723 22 10.6211 22C12.2247 22 13.7658 21.3781 14.9202 20.2652C17.7415 17.5557 21.2575 12.9085 19.9835 7.28077Z" fill="black"/>
</svg>
