<svg width="18" height="18" viewBox="0 0 18 18" fill="none" xmlns="http://www.w3.org/2000/svg">
<path d="M4.43923 17C3.70521 17 2.97119 17 2.23718 16.9982C1.13966 16.9956 0.302037 16.3434 0.0526813 15.2959C0.0403891 15.2447 0.0272178 15.1926 0.0131696 15.1414L0 15.0902V6.4257C0.00790211 6.35687 0.0105374 6.33127 0.0122935 6.31804C0.0128788 6.31039 0.0140476 6.30097 0.0158036 6.2898C0.187894 5.0684 1.29155 4.08527 2.52867 4.05262C2.87198 4.04379 3.24162 4.03938 3.72804 4.03938C3.91945 4.03938 4.11085 4.03938 4.30226 4.04026C4.49367 4.04026 4.68595 4.04115 4.87736 4.04115H5.32163C5.40416 4.04115 5.47089 3.97408 5.47089 3.89112V3.38544C5.47089 3.02802 5.47002 2.67766 5.47089 2.3273C5.47353 1.5348 5.97224 1.01765 6.74138 1.01059C7.50437 1.00353 8.26912 1 9.01455 1C9.75998 1 10.523 1.00353 11.2596 1.01059C12.027 1.01765 12.5248 1.53569 12.5275 2.32907C12.5275 2.5144 12.5275 2.69884 12.5275 2.88417V3.89024C12.5275 3.97319 12.5942 4.04026 12.6767 4.04026H12.8857C13.1017 4.04026 13.3177 4.04026 13.5346 4.04026C13.7505 4.04026 13.9665 4.03938 14.1825 4.03938C14.5838 4.03938 14.9095 4.04115 15.2072 4.04468C15.4258 4.04733 15.6813 4.05703 15.9175 4.11351C17.1774 4.41533 17.994 5.44964 17.9966 6.7487C18.0019 9.18533 18.001 11.7473 17.994 14.8122C17.994 15.0099 17.9641 15.2217 17.9071 15.4265C17.6454 16.3805 16.7964 16.9974 15.7445 16.9982C14.5689 16.9982 13.3923 16.9991 12.2167 16.9991H7.615H4.43923V17ZM0.923668 9.66189C0.894693 9.66189 0.865719 9.67071 0.841134 9.68748C0.799868 9.71572 0.774407 9.76249 0.774407 9.81192V14.6807C0.774407 15.6427 1.34248 16.2172 2.29425 16.2172H7.25589C10.069 16.2172 12.8813 16.2172 15.6945 16.2154C15.8385 16.2154 16.0088 16.2093 16.1739 16.1669C16.8289 15.9957 17.2205 15.4706 17.2222 14.7611C17.224 13.6341 17.224 12.5071 17.2231 11.381V9.8128C17.2231 9.76337 17.1985 9.71748 17.159 9.68924C17.1335 9.67159 17.1037 9.66277 17.0738 9.66277C17.0563 9.66277 17.0387 9.6663 17.022 9.67248C16.9439 9.7016 16.8675 9.73249 16.7929 9.76337C16.6383 9.82603 16.4926 9.88604 16.3442 9.92311C15.6075 10.1102 14.8568 10.2929 14.1307 10.4703C13.8296 10.5435 13.5284 10.6168 13.2273 10.6909C12.7066 10.8189 12.1859 10.9468 11.6574 11.0774L10.9734 11.246C10.9067 11.2628 10.8593 11.3228 10.8593 11.3916C10.8593 11.4428 10.8593 11.494 10.861 11.5443C10.8628 11.6511 10.8636 11.7517 10.8584 11.8523C10.8241 12.4921 10.379 12.9316 9.7512 12.9466C9.48165 12.9528 9.23142 12.9554 8.98645 12.9554C8.7292 12.9554 8.47809 12.9519 8.24014 12.9448C7.90474 12.9351 7.46135 12.8142 7.25062 12.2935C7.18038 12.1197 7.16634 11.9052 7.15316 11.6978C7.14965 11.6423 7.14614 11.5875 7.14175 11.5328C7.13121 11.3996 7.09082 11.2575 6.87747 11.2054L6.36207 11.081C5.55957 10.8877 4.72985 10.6883 3.91769 10.4764C3.62356 10.3997 3.3224 10.3317 3.03178 10.2655C2.34868 10.1102 1.64276 9.94959 0.982496 9.67336C0.964058 9.66542 0.944742 9.66189 0.925426 9.66189H0.923668ZM8.29283 9.97077C8.17429 9.97077 8.08035 10.0052 8.01274 10.0731C7.94601 10.1402 7.91264 10.2346 7.91264 10.352C7.91352 10.8303 7.91352 11.3095 7.91264 11.7879C7.91264 11.9061 7.94601 11.9997 8.01274 12.0667C8.07947 12.1347 8.17342 12.1682 8.29283 12.1682H9.70379C9.8232 12.1682 9.91803 12.1338 9.98475 12.0659C10.0515 11.9988 10.084 11.9044 10.0831 11.787C10.0813 11.6193 10.0822 11.4516 10.0831 11.2839V11.0695V10.8515C10.0831 10.6856 10.0831 10.5188 10.0831 10.3529C10.084 10.2346 10.0506 10.1411 9.98388 10.0731C9.91715 10.0052 9.82232 9.97077 9.70379 9.97077C9.46848 9.97077 9.23318 9.97077 8.99787 9.97077C8.76256 9.97077 8.52725 9.97077 8.29195 9.97077H8.29283ZM3.00807 4.82041C2.88427 4.82041 2.76047 4.82129 2.63667 4.82482C1.59008 4.85571 0.79021 5.6738 0.775284 6.72841C0.770015 7.06376 0.771771 7.39206 0.775284 7.75477C0.780552 8.48814 1.1941 9.00882 1.91143 9.18445C2.73149 9.38478 3.55068 9.58599 4.37074 9.7872L5.65264 10.1023C5.92834 10.1702 6.20403 10.2373 6.48061 10.3044L6.9363 10.4156C6.94771 10.4182 6.96 10.42 6.97142 10.42C7.03639 10.42 7.09522 10.3776 7.11453 10.3123C7.11804 10.3008 7.12156 10.2902 7.12419 10.2814C7.13122 10.2593 7.13912 10.2364 7.14263 10.209C7.23306 9.57717 7.66592 9.19592 8.30073 9.19062C8.50091 9.18886 8.70198 9.18798 8.90217 9.18798C9.14274 9.18798 9.38244 9.18886 9.62301 9.18974H9.6915C10.0032 9.19151 10.2569 9.27976 10.4685 9.46156C10.703 9.66277 10.8329 9.92841 10.8636 10.2717C10.8672 10.3114 10.8865 10.3485 10.9172 10.3741C10.9444 10.3961 10.9778 10.4085 11.012 10.4085C11.0173 10.4085 11.0217 10.4085 11.027 10.4085C11.041 10.4067 11.0533 10.4058 11.0647 10.405C11.0954 10.4032 11.127 10.4006 11.1613 10.3926L12.1605 10.1473C13.4907 9.82162 14.8208 9.49509 16.1502 9.16591C16.7911 9.00706 17.2003 8.49608 17.2169 7.83243C17.2275 7.43442 17.2266 7.03905 17.2152 6.65692C17.2038 6.26509 17.0756 5.9059 16.8359 5.58996C16.4469 5.0781 15.9017 4.81864 15.2159 4.81864C13.2352 4.82041 11.257 4.82129 9.27883 4.82129H3.4778C3.39966 4.82129 3.32064 4.82129 3.2425 4.82041C3.16348 4.82041 3.08446 4.82041 3.00544 4.82041H3.00807ZM9.00577 1.78897C8.26122 1.78897 7.51666 1.78897 6.77123 1.79073C6.41476 1.79073 6.24794 1.96018 6.24618 2.32289C6.24442 2.79592 6.2453 3.26895 6.24618 3.74197C6.24618 3.78257 6.25145 3.81964 6.25672 3.85582C6.25847 3.86994 6.26023 3.88406 6.26198 3.89906C6.27076 3.97496 6.33398 4.03232 6.41037 4.03232H11.6003C11.6828 4.03232 11.7496 3.96525 11.7496 3.88229V3.41633C11.7496 3.04479 11.7496 2.68119 11.7496 2.31671C11.7478 1.95841 11.5792 1.79073 11.2192 1.78985C10.4817 1.78897 9.74418 1.78809 9.00665 1.78809L9.00577 1.78897Z" fill="black"/>
</svg>
