<svg xmlns="http://www.w3.org/2000/svg" viewBox="0 0 18 18" style="enable-background:new 0 0 18 18" xml:space="preserve"><path d="M3.2.6c0-.3.3-.6.6-.6h10.4c.3 0 .6.3.6.6v4.8h2.6c.3 0 .6.2.6.6v9.2c0 .3-.3.6-.6.6h-2.9v1.1c0 .6-.5 1.1-1.1 1.1H4.6c-.6 0-1.1-.5-1.1-1.1v-1.1H.6c-.3 0-.6-.3-.6-.6V6c0-.3.3-.6.6-.6h2.6V.6zm1 4.8h9.6V1H4.2v4.4zm-.7 9.3v-4.1c0-.6.5-1.1 1.1-1.1h8.9c.6 0 1.1.5 1.1 1.1v4.1H17V6.4H1v8.4h2.5zm1.1-4.2c-.1 0-.1 0-.1.1v6.2c0 .1 0 .1.1.1h8.9c.1 0 .1 0 .1-.1v-6.2c0-.1 0-.1-.1-.1H4.6zm2 2.2c0-.3.2-.5.5-.5H11c.3 0 .5.2.5.5s-.2.5-.5.5H7.1c-.3 0-.5-.3-.5-.5zm.5 1.6c-.3 0-.5.2-.5.5s.2.5.5.5H11c.3 0 .5-.2.5-.5s-.2-.5-.5-.5H7.1z" style="fill-rule:evenodd;clip-rule:evenodd"/></svg>