<svg width="18" height="18" viewBox="0 0 18 18" fill="none" xmlns="http://www.w3.org/2000/svg">
<path fill-rule="evenodd" clip-rule="evenodd" d="M17 1H1V17H17V1ZM0 0V18H18V0H0Z" fill="black"/>
<path d="M8.18669 10.8761C8.17869 10.8361 8.17469 10.7921 8.17469 10.7441C8.17469 10.6961 8.17469 10.6521 8.17469 10.6121C8.17469 10.2761 8.22269 9.98005 8.31869 9.72405C8.42269 9.46805 8.54669 9.23605 8.69069 9.02805C8.84269 8.81205 9.00269 8.61205 9.17069 8.42805C9.34669 8.24405 9.50669 8.06005 9.65069 7.87605C9.80269 7.68405 9.92669 7.48405 10.0227 7.27605C10.1267 7.06005 10.1787 6.81605 10.1787 6.54405C10.1787 6.17605 10.0707 5.87605 9.85469 5.64405C9.64669 5.41205 9.29469 5.29605 8.79869 5.29605C8.51069 5.29605 8.21869 5.34805 7.92269 5.45205C7.62669 5.54805 7.37069 5.66405 7.15469 5.80005L6.83069 5.05605C7.13469 4.87205 7.45469 4.72805 7.79069 4.62405C8.12669 4.51205 8.54269 4.45605 9.03869 4.45605C9.39069 4.45605 9.69869 4.50805 9.96269 4.61205C10.2347 4.70805 10.4587 4.84405 10.6347 5.02005C10.8187 5.19605 10.9547 5.40405 11.0427 5.64405C11.1307 5.88405 11.1747 6.14005 11.1747 6.41205C11.1747 6.77205 11.1187 7.08805 11.0067 7.36005C10.9027 7.62405 10.7667 7.86805 10.5987 8.09205C10.4387 8.30805 10.2627 8.51205 10.0707 8.70405C9.88669 8.89605 9.71069 9.10005 9.54269 9.31605C9.38269 9.52405 9.24669 9.75205 9.13469 10.0001C9.03069 10.2481 8.97869 10.5401 8.97869 10.8761H8.18669ZM7.94669 12.4481C7.94669 12.2321 8.00669 12.0641 8.12669 11.9441C8.25469 11.8161 8.42269 11.7521 8.63069 11.7521C8.84669 11.7521 9.01869 11.8161 9.14669 11.9441C9.27469 12.0641 9.33869 12.2321 9.33869 12.4481C9.33869 12.6561 9.27469 12.8241 9.14669 12.9521C9.01869 13.0801 8.84669 13.1441 8.63069 13.1441C8.42269 13.1441 8.25469 13.0801 8.12669 12.9521C8.00669 12.8241 7.94669 12.6561 7.94669 12.4481Z" fill="black"/>
</svg>
