<svg width="18" height="18" viewBox="0 0 18 18" fill="none" xmlns="http://www.w3.org/2000/svg">
<path d="M12.463 0.0174644C13.8701 0.0785942 15.0057 0.751023 15.6805 2.14828C16.347 3.51933 16.24 4.88165 15.4418 6.17411C15.3842 6.26144 15.3184 6.34877 15.2443 6.42736C12.9155 8.89875 10.5868 11.3701 8.25799 13.8415C7.38573 14.7672 6.06088 14.8545 5.10633 14.0599C4.0448 13.1691 3.89668 11.4487 4.843 10.4183C6.28306 8.84636 7.75603 7.30938 9.22077 5.76367C9.47587 5.50168 9.84617 5.51042 10.0848 5.76367C10.3234 6.01692 10.3317 6.4099 10.0848 6.68061C9.66513 7.13472 9.24546 7.5801 8.81756 8.02547C7.81363 9.09088 6.80148 10.165 5.79756 11.2304C5.48486 11.571 5.36965 11.9727 5.49309 12.4268C5.61652 12.8809 5.90453 13.1604 6.33243 13.2652C6.75211 13.3612 7.11418 13.2302 7.41865 12.9071C8.27445 11.9989 9.13026 11.0907 9.99429 10.1737C11.459 8.6193 12.9155 7.07359 14.3803 5.51915C15.3431 4.49741 15.3431 2.85563 14.3803 1.84263C13.434 0.838351 11.8869 0.838351 10.9324 1.84263C8.35674 4.56727 5.77287 7.29191 3.21368 10.034C2.16038 11.1693 1.85592 12.5578 2.32496 14.0686C2.79401 15.5794 3.82262 16.4876 5.30382 16.7408C6.55461 16.9592 7.64906 16.5487 8.55423 15.5968C10.8007 13.2215 13.039 10.8374 15.2772 8.46211C15.3019 8.43591 15.3348 8.40098 15.3595 8.37478C15.6311 8.09533 16.0096 8.0866 16.2565 8.35732C16.4951 8.6193 16.4869 9.01228 16.2236 9.29173C15.5077 10.0602 14.7835 10.82 14.0594 11.5885C12.5452 13.1953 11.0311 14.8021 9.50879 16.4177C8.48017 17.5093 7.23761 18.0333 5.7811 17.9984C3.47701 17.946 1.41156 16.0247 1.06594 13.6057C0.810846 11.7893 1.29635 10.2261 2.51423 8.92495C4.96644 6.31384 7.42688 3.72018 9.87909 1.10907C10.5785 0.358045 11.4343 0.0349313 12.463 0V0.0174644Z" fill="black"/>
</svg>
