<svg width="22" height="22" viewBox="0 0 22 22" fill="none" xmlns="http://www.w3.org/2000/svg">
<path fill-rule="evenodd" clip-rule="evenodd" d="M2.55982 2.54404C4.19804 0.914509 6.41882 5.96046e-08 8.73333 0C9.87947 0 11.0145 0.224545 12.0737 0.660946C13.1329 1.09735 14.0956 1.73714 14.9068 2.54404C15.7181 3.35095 16.3618 4.30918 16.8012 5.36417C17.2405 6.41916 17.4667 7.55008 17.4667 8.69231C17.4667 9.83454 17.2405 10.9655 16.8012 12.0205C16.4901 12.7674 16.0766 13.4658 15.5738 14.0963L21.7107 20.2965C22.0992 20.689 22.096 21.3222 21.7035 21.7107C21.311 22.0992 20.6778 22.096 20.2893 21.7035L14.1554 15.5065C13.5227 16.0052 12.8223 16.4152 12.0737 16.7237C11.0145 17.1601 9.87947 17.3846 8.73333 17.3846C6.41882 17.3846 4.19804 16.4701 2.55982 14.8406C0.921416 13.2109 0 10.9994 0 8.69231C0 6.38524 0.921416 4.17375 2.55982 2.54404ZM8.73333 2C6.94583 2 5.23261 2.70637 3.97026 3.96201C2.7081 5.21747 2 6.91912 2 8.69231C2 10.4655 2.7081 12.1671 3.97026 13.4226C5.23261 14.6783 6.94583 15.3846 8.73333 15.3846C9.6183 15.3846 10.4945 15.2112 11.3118 14.8745C12.1291 14.5377 12.8714 14.0443 13.4964 13.4226C14.1214 12.8009 14.6169 12.0632 14.9548 11.2516C15.2928 10.44 15.4667 9.57042 15.4667 8.69231C15.4667 7.8142 15.2928 6.94457 14.9548 6.13301C14.6169 5.32145 14.1214 4.58369 13.4964 3.96201C12.8714 3.34032 12.1291 2.84688 11.3118 2.51014C10.4945 2.17339 9.6183 2 8.73333 2Z" fill="black"/>
</svg>
