<svg version="1.1" id="Слой_1" xmlns="http://www.w3.org/2000/svg" x="0" y="0" viewBox="0 0 18 18" style="enable-background:new 0 0 18 18" xml:space="preserve"><style>.st0{fill-rule:evenodd;clip-rule:evenodd}</style><path class="st0" d="M4.445 1.274c-1.086.146-1.754.426-2.25.922-.495.495-.774 1.163-.92 2.25-.149 1.103-.15 2.55-.15 4.554 0 2.005.001 3.452.15 4.555.145 1.086.425 1.754.92 2.25.496.495 1.164.775 2.25.92 1.103.149 2.55.15 4.555.15s3.452-.001 4.555-.15c1.086-.145 1.754-.425 2.25-.92.495-.496.775-1.164.92-2.25.149-1.104.15-2.55.15-4.555s-.001-3.452-.15-4.555c-.145-1.086-.425-1.754-.92-2.25-.496-.495-1.164-.774-2.25-.92-1.104-.149-2.55-.15-4.555-.15s-3.452.001-4.555.15zM8.957 0h.086c1.952 0 3.475 0 4.661.16 1.211.162 2.156.5 2.896 1.24.74.74 1.078 1.684 1.24 2.896.16 1.186.16 2.708.16 4.66v.087c0 1.952 0 3.475-.16 4.661-.162 1.211-.5 2.156-1.24 2.896-.74.74-1.684 1.078-2.896 1.24-1.186.16-2.708.16-4.66.16h-.087c-1.952 0-3.475 0-4.661-.16-1.212-.162-2.156-.5-2.896-1.24-.74-.74-1.078-1.684-1.24-2.896C0 12.518 0 10.996 0 9.044v-.087c0-1.952 0-3.475.16-4.661C.321 3.085.66 2.14 1.4 1.4 2.14.66 3.084.322 4.296.16 5.481 0 7.003 0 8.956 0z"/><path class="st0" d="M5.893 5.122a.77.77 0 1 0 0 1.539.77.77 0 0 0 0-1.54zm-1.34-.57a1.895 1.895 0 0 1 3.15.777h5.74a.563.563 0 0 1 0 1.125h-5.74a1.895 1.895 0 1 1-3.15-1.902zm6.217 6.217a1.894 1.894 0 1 1-.47 1.902H4.56a.562.562 0 1 1 0-1.125h5.74c.091-.29.25-.558.47-.777zm1.34.57a.77.77 0 1 0 0 1.54.77.77 0 0 0 0-1.54z"/></svg>