<svg version="1.1" id="Слой_1" xmlns="http://www.w3.org/2000/svg" xmlns:xlink="http://www.w3.org/1999/xlink" x="0px" y="0px"
	 viewBox="0 0 26 25" style="enable-background:new 0 0 26 25;" xml:space="preserve">
<path d="M10,9.7c0.8-0.8,1.8-1.2,2.9-1.2s2.1,0.4,2.9,1.2c0.8,0.8,1.2,1.8,1.2,2.9s-0.4,2.1-1.2,2.9
	c-0.8,0.8-1.8,1.2-2.9,1.2s-2.1-0.4-2.9-1.2c-0.8-0.8-1.2-1.8-1.2-2.9S9.2,10.4,10,9.7z M12.9,9.5c-0.8,0-1.6,0.3-2.2,0.9
	c-0.6,0.6-0.9,1.4-0.9,2.2s0.3,1.6,0.9,2.2c0.6,0.6,1.4,0.9,2.2,0.9s1.6-0.3,2.2-0.9c0.6-0.6,0.9-1.4,0.9-2.2s-0.3-1.6-0.9-2.2
	C14.5,9.8,13.7,9.5,12.9,9.5z"/>
<path d="M9.1,24.4c-0.4,0-0.9-0.1-1.2-0.3l-2.1-1.2c-0.6-0.4-1.1-1-1.3-1.7c-0.2-0.7-0.1-1.5,0.3-2.1
	c0.4-0.8,0.5-1.4,0.2-1.9S4,16.4,3.2,16.4c-1.5,0-2.8-1.2-2.8-2.8v-2.1c0-1.5,1.2-2.8,2.8-2.8C4,8.7,4.7,8.4,5,8
	C5.2,7.5,5.2,6.8,4.7,6C4.3,5.4,4.3,4.7,4.4,3.9s0.7-1.3,1.3-1.7l2.1-1.2c0.6-0.3,1.2-0.4,1.9-0.3C10.3,1,10.9,1.4,11.2,2l0.1,0.2
	c0.4,0.7,1,1.2,1.5,1.2c0,0,0,0,0,0c0.6,0,1.1-0.4,1.5-1.2L14.6,2c0.7-1.2,2.2-1.6,3.4-0.9l2.1,1.2c0.6,0.4,1.1,1,1.3,1.7
	c0.2,0.7,0.1,1.5-0.3,2.1c-0.4,0.7-0.5,1.4-0.2,1.9c0.3,0.5,0.9,0.8,1.8,0.8c1.5,0,2.8,1.2,2.8,2.8v2.1c0,1.5-1.2,2.8-2.8,2.8
	c-0.9,0-1.5,0.3-1.8,0.8c-0.3,0.5-0.2,1.2,0.2,1.9c0.8,1.3,0.3,3-1,3.8L18,24c-1.2,0.7-2.7,0.3-3.4-0.9l-0.1-0.2
	c-0.4-0.8-1-1.2-1.5-1.2c0,0,0,0,0,0c-0.6,0-1.1,0.4-1.5,1.2l-0.1,0.2c-0.3,0.6-0.9,1-1.5,1.2C9.5,24.3,9.3,24.4,9.1,24.4z M9.1,1.7
	c-0.3,0-0.5,0.1-0.7,0.2L6.2,3.1C5.8,3.4,5.5,3.7,5.4,4.2C5.3,4.7,5.3,5.1,5.6,5.5c0.6,1.1,0.7,2.1,0.2,2.9C5.4,9.3,4.4,9.7,3.2,9.7
	c-1,0-1.8,0.8-1.8,1.8v2.1c0,1,0.8,1.8,1.8,1.8c1.2,0,2.2,0.4,2.6,1.3c0.5,0.8,0.4,1.8-0.2,2.9c-0.2,0.4-0.3,0.9-0.2,1.3
	c0.1,0.5,0.4,0.8,0.8,1.1l2.1,1.2c0.3,0.2,0.7,0.3,1.1,0.2c0.4-0.1,0.7-0.4,0.9-0.7l0.1-0.2c0.6-1.1,1.5-1.6,2.4-1.7
	c0.9,0,1.8,0.6,2.4,1.7l0.1,0.2c0.4,0.7,1.3,1,2,0.5l2.1-1.2c0.8-0.5,1.1-1.6,0.7-2.4c-0.6-1.1-0.7-2.1-0.2-2.9
	c0.5-0.8,1.4-1.3,2.6-1.3c1,0,1.8-0.8,1.8-1.8v-2.1c0-1-0.8-1.8-1.8-1.8c-1.2,0-2.2-0.4-2.6-1.3c-0.5-0.8-0.4-1.8,0.2-2.9
	c0.2-0.4,0.3-0.9,0.2-1.3c-0.1-0.5-0.4-0.8-0.8-1.1l-2.1-1.2c-0.7-0.4-1.6-0.2-2.1,0.5l-0.1,0.2c-0.6,1.1-1.5,1.7-2.4,1.7
	c-0.9,0-1.8-0.6-2.4-1.7l-0.1-0.2c-0.2-0.3-0.5-0.6-0.9-0.7C9.3,1.7,9.2,1.7,9.1,1.7z"/>
</svg>
