<svg width="22" height="22" viewBox="0 0 22 22" fill="none" xmlns="http://www.w3.org/2000/svg">
<g clip-path="url(#clip0_791_1345)">
<path d="M4.004 16.5L3.223 17.281C3.01812 17.4871 2.90313 17.7659 2.90313 18.0565C2.90313 18.3471 3.01812 18.6259 3.223 18.832C3.4291 19.0369 3.7079 19.1519 3.9985 19.1519C4.2891 19.1519 4.5679 19.0369 4.774 18.832L5.555 18.051C5.73521 17.8406 5.82938 17.5699 5.81868 17.293C5.80799 17.0162 5.69322 16.7536 5.49732 16.5577C5.30142 16.3618 5.0388 16.247 4.76196 16.2363C4.48512 16.2256 4.21443 16.3198 4.004 16.5ZM3.3 11C3.3 10.7083 3.18411 10.4285 2.97782 10.2222C2.77153 10.0159 2.49174 9.9 2.2 9.9H1.1C0.808262 9.9 0.528473 10.0159 0.322182 10.2222C0.115892 10.4285 0 10.7083 0 11C0 11.2917 0.115892 11.5715 0.322182 11.7778C0.528473 11.9841 0.808262 12.1 1.1 12.1H2.2C2.49174 12.1 2.77153 11.9841 2.97782 11.7778C3.18411 11.5715 3.3 11.2917 3.3 11ZM11 3.3C11.2917 3.3 11.5715 3.18411 11.7778 2.97782C11.9841 2.77153 12.1 2.49174 12.1 2.2V1.1C12.1 0.808262 11.9841 0.528473 11.7778 0.322182C11.5715 0.115892 11.2917 0 11 0C10.7083 0 10.4285 0.115892 10.2222 0.322182C10.0159 0.528473 9.9 0.808262 9.9 1.1V2.2C9.9 2.49174 10.0159 2.77153 10.2222 2.97782C10.4285 3.18411 10.7083 3.3 11 3.3ZM4.004 5.555C4.20889 5.75822 4.48543 5.87279 4.774 5.874C4.91877 5.87484 5.06228 5.84709 5.1963 5.79235C5.33032 5.73761 5.45222 5.65695 5.555 5.555C5.75988 5.3489 5.87487 5.0701 5.87487 4.7795C5.87487 4.4889 5.75988 4.2101 5.555 4.004L4.774 3.223C4.56357 3.04279 4.29289 2.94862 4.01604 2.95932C3.7392 2.97001 3.47658 3.08478 3.28068 3.28068C3.08478 3.47658 2.97001 3.7392 2.95932 4.01604C2.94862 4.29289 3.04279 4.56357 3.223 4.774L4.004 5.555ZM17.204 5.874C17.4926 5.87279 17.7691 5.75822 17.974 5.555L18.755 4.774C18.8701 4.67539 18.9637 4.55404 19.0297 4.41757C19.0957 4.2811 19.1328 4.13245 19.1387 3.98096C19.1445 3.82947 19.119 3.6784 19.0637 3.53725C19.0084 3.39609 18.9245 3.26788 18.8173 3.16068C18.7101 3.05348 18.5819 2.9696 18.4408 2.9143C18.2996 2.859 18.1485 2.83347 17.997 2.83932C17.8456 2.84517 17.6969 2.88228 17.5604 2.9483C17.424 3.01433 17.3026 3.10785 17.204 3.223L16.5 4.004C16.2951 4.2101 16.1801 4.4889 16.1801 4.7795C16.1801 5.0701 16.2951 5.3489 16.5 5.555C16.6939 5.7479 16.9528 5.86163 17.226 5.874H17.204ZM20.9 9.9H19.8C19.5083 9.9 19.2285 10.0159 19.0222 10.2222C18.8159 10.4285 18.7 10.7083 18.7 11C18.7 11.2917 18.8159 11.5715 19.0222 11.7778C19.2285 11.9841 19.5083 12.1 19.8 12.1H20.9C21.1917 12.1 21.4715 11.9841 21.6778 11.7778C21.8841 11.5715 22 11.2917 22 11C22 10.7083 21.8841 10.4285 21.6778 10.2222C21.4715 10.0159 21.1917 9.9 20.9 9.9ZM11 18.7C10.7083 18.7 10.4285 18.8159 10.2222 19.0222C10.0159 19.2285 9.9 19.5083 9.9 19.8V20.9C9.9 21.1917 10.0159 21.4715 10.2222 21.6778C10.4285 21.8841 10.7083 22 11 22C11.2917 22 11.5715 21.8841 11.7778 21.6778C11.9841 21.4715 12.1 21.1917 12.1 20.9V19.8C12.1 19.5083 11.9841 19.2285 11.7778 19.0222C11.5715 18.8159 11.2917 18.7 11 18.7ZM17.996 16.5C17.787 16.3838 17.5458 16.3388 17.309 16.3719C17.0722 16.405 16.8526 16.5144 16.6835 16.6835C16.5144 16.8526 16.405 17.0722 16.3719 17.309C16.3388 17.5458 16.3838 17.787 16.5 17.996L17.281 18.777C17.4871 18.9819 17.7659 19.0969 18.0565 19.0969C18.3471 19.0969 18.6259 18.9819 18.832 18.777C19.0369 18.5709 19.1519 18.2921 19.1519 18.0015C19.1519 17.7109 19.0369 17.4321 18.832 17.226L17.996 16.5ZM11 4.95C9.80342 4.95 8.63372 5.30483 7.6388 5.96961C6.64388 6.63439 5.86844 7.57927 5.41053 8.68477C4.95262 9.79026 4.83281 11.0067 5.06625 12.1803C5.29969 13.3539 5.8759 14.4319 6.722 15.278C7.56811 16.1241 8.64612 16.7003 9.8197 16.9338C10.9933 17.1672 12.2097 17.0474 13.3152 16.5895C14.4207 16.1316 15.3656 15.3561 16.0304 14.3612C16.6952 13.3663 17.05 12.1966 17.05 11C17.0471 9.39633 16.4087 7.85918 15.2748 6.72522C14.1408 5.59125 12.6037 4.95291 11 4.95ZM11 14.85C10.2385 14.85 9.49418 14.6242 8.86105 14.2012C8.22793 13.7781 7.73446 13.1768 7.44306 12.4733C7.15167 11.7698 7.07542 10.9957 7.22398 10.2489C7.37253 9.50208 7.73921 8.81607 8.27764 8.27764C8.81607 7.73921 9.50208 7.37253 10.2489 7.22398C10.9957 7.07542 11.7698 7.15167 12.4733 7.44306C13.1768 7.73446 13.7781 8.22793 14.2012 8.86105C14.6242 9.49418 14.85 10.2385 14.85 11C14.85 12.0211 14.4444 13.0003 13.7224 13.7224C13.0003 14.4444 12.0211 14.85 11 14.85Z" fill="black"/>
</g>
<defs>
<clipPath id="clip0_791_1345">
<rect width="22" height="22" fill="white"/>
</clipPath>
</defs>
</svg>
