<svg width="22" height="22" viewBox="0 0 22 22" fill="none" xmlns="http://www.w3.org/2000/svg">
<g clip-path="url(#clip0_182_1205)">
<path fill-rule="evenodd" clip-rule="evenodd" d="M1.91789 1.91789C3.32218 0.513602 5.40137 0 8 0H14C16.5986 0 18.6778 0.513602 20.0821 1.91789C21.4864 3.32218 22 5.40137 22 8V14C22 16.5986 21.4864 18.6778 20.0821 20.0821C18.6778 21.4864 16.5986 22 14 22H8C5.40137 22 3.32218 21.4864 1.91789 20.0821C0.513602 18.6778 0 16.5986 0 14V8C0 5.40137 0.513602 3.32218 1.91789 1.91789ZM3.33211 3.33211C2.4864 4.17782 2 5.59863 2 8V14C2 16.4014 2.4864 17.8222 3.33211 18.6679C4.17782 19.5136 5.59863 20 8 20H14C16.4014 20 17.8222 19.5136 18.6679 18.6679C19.5136 17.8222 20 16.4014 20 14V8C20 5.59863 19.5136 4.17782 18.6679 3.33211C17.8222 2.4864 16.4014 2 14 2H8C5.59863 2 4.17782 2.4864 3.33211 3.33211Z" fill="black"/>
<path fill-rule="evenodd" clip-rule="evenodd" d="M12.5 5C11.6716 5 11 5.67157 11 6.5C11 7.32843 11.6716 8 12.5 8H15.5C16.3284 8 17 7.32843 17 6.5C17 5.67157 16.3284 5 15.5 5H12.5Z" fill="black"/>
<path fill-rule="evenodd" clip-rule="evenodd" d="M9.60006 11.2001C10.0419 11.5314 10.1314 12.1582 9.80006 12.6001L7.55006 15.6001C7.3612 15.8519 7.06482 16.0001 6.75006 16.0001C6.4353 16.0001 6.13891 15.8519 5.95006 15.6001L5.20006 14.6001C4.86869 14.1582 4.95823 13.5314 5.40006 13.2001C5.8197 12.8853 6.40621 12.9503 6.74797 13.3362L8.20006 11.4001C8.53143 10.9582 9.15823 10.8687 9.60006 11.2001Z" fill="black"/>
<path fill-rule="evenodd" clip-rule="evenodd" d="M9.60006 4.20006C10.0419 4.53143 10.1314 5.15823 9.80006 5.60006L7.55006 8.60006C7.3612 8.85186 7.06482 9.00006 6.75006 9.00006C6.4353 9.00006 6.13891 8.85186 5.95006 8.60006L5.20006 7.60006C4.86869 7.15823 4.95823 6.53143 5.40006 6.20006C5.8197 5.88533 6.40621 5.9503 6.74797 6.33618L8.20006 4.40006C8.53143 3.95823 9.15823 3.86869 9.60006 4.20006Z" fill="black"/>
<path fill-rule="evenodd" clip-rule="evenodd" d="M12.5 12C11.6716 12 11 12.6716 11 13.5C11 14.3284 11.6716 15 12.5 15H15.5C16.3284 15 17 14.3284 17 13.5C17 12.6716 16.3284 12 15.5 12H12.5Z" fill="black"/>
</g>
<defs>
<clipPath id="clip0_182_1205">
<rect width="22" height="22" fill="white"/>
</clipPath>
</defs>
</svg>
