<svg width="24" height="24" viewBox="0 0 24 24" fill="none" xmlns="http://www.w3.org/2000/svg">
<path fill-rule="evenodd" clip-rule="evenodd" d="M23 6.80318C23.0054 4.87778 22.4243 3.45869 21.4627 2.51931C20.4978 1.57662 19.0297 1 17.0365 1H6.97547C4.98242 1 3.51398 1.57654 2.54728 2.51975C1.58374 3.45988 1 4.87994 1 6.806V16.6109C1 18.5435 1.58419 19.9665 2.54773 20.9078C3.51429 21.8521 4.98244 22.4286 6.97547 22.4286H17.0245C19.0175 22.4286 20.486 21.852 21.4527 20.9088C22.4162 19.9687 23 18.5486 23 16.6226V6.80318ZM6.97547 0H17.0365C21.4067 0 24.012 2.542 24 6.806V16.6226C24 20.8866 21.3947 23.4286 17.0245 23.4286H6.97547C2.6053 23.4286 0 20.8866 0 16.6109V6.806C0 2.542 2.6053 0 6.97547 0Z" fill="black"/>
<path fill-rule="evenodd" clip-rule="evenodd" d="M16.6334 6.38234C15.5593 6.81238 14.2642 7.58217 13.0441 8.48663C11.8219 9.3926 10.7064 10.4103 9.98218 11.3168C9.98197 11.317 9.98176 11.3173 9.98154 11.3176L9.23318 12.2626C9.68863 12.3978 10.1176 12.6514 10.4805 13.0143C10.8342 13.368 11.0786 13.7732 11.2116 14.2123L12.1412 13.4668C13.9764 11.9952 16.1986 8.99039 17.074 6.8075L17.076 6.80243C17.1297 6.67277 17.0967 6.54982 17.0007 6.45639L16.9911 6.44696C16.9178 6.37171 16.793 6.3246 16.6334 6.38234ZM8.28691 11.8468L9.2002 10.6935C9.99591 9.69727 11.1836 8.62098 12.4486 7.68328C13.7136 6.74555 15.0876 5.92301 16.2686 5.45121L16.2794 5.44692C16.8103 5.24892 17.3528 5.38823 17.7032 5.74463C18.0512 6.08693 18.2276 6.63193 18.0011 7.18226C17.0614 9.52354 14.7365 12.6675 12.7668 14.2469L11.6063 15.1777C11.5995 15.1831 11.5926 15.1883 11.5856 15.1934C11.4266 15.3079 11.2395 15.4306 11.0167 15.5181C10.8628 15.5786 10.689 15.559 10.5523 15.4659C10.4157 15.3728 10.3339 15.2181 10.3339 15.0527C10.3339 14.963 10.3288 14.8729 10.3165 14.7949L10.3144 14.7819C10.2646 14.4012 10.0938 14.0418 9.77342 13.7214C9.45326 13.4013 9.072 13.2185 8.69048 13.1651C8.66133 13.1636 8.63587 13.1621 8.6132 13.1608C8.52994 13.1559 8.48442 13.1533 8.43294 13.1584C8.26254 13.1755 8.09528 13.1041 7.98965 12.9694C7.88401 12.8346 7.8547 12.6551 7.91197 12.4937C7.99611 12.2566 8.12509 12.0343 8.28691 11.8468Z" fill="black"/>
<path fill-rule="evenodd" clip-rule="evenodd" d="M10.3323 9.66406C10.3323 9.38792 10.5562 9.16406 10.8323 9.16406C12.6461 9.16406 14.1189 10.6368 14.1189 12.4506C14.1189 12.7267 13.895 12.9506 13.6189 12.9506C13.3427 12.9506 13.1189 12.7267 13.1189 12.4506C13.1189 11.1891 12.0938 10.1641 10.8323 10.1641C10.5562 10.1641 10.3323 9.9402 10.3323 9.66406ZM8.69465 13.1656C8.58898 13.1602 8.49594 13.1567 8.41246 13.1608L8.39779 13.1614C7.47882 13.1803 6.63332 13.84 6.52215 14.8544L6.36308 16.3037L6.36264 16.3076C6.30617 16.7876 6.71211 17.1894 7.18309 17.1367L8.62786 16.9781C9.10366 16.9146 9.4877 16.7154 9.76484 16.4387C10.1358 16.0625 10.3323 15.5712 10.3323 15.0533C10.3323 14.9947 10.329 14.9481 10.3246 14.8872C10.3221 14.8526 10.3192 14.8134 10.3165 14.7648C10.2637 14.3906 10.0932 14.0374 9.77772 13.722L9.77514 13.7194C9.45825 13.3978 9.07909 13.2193 8.69465 13.1656ZM8.36998 12.1617C8.51444 12.155 8.65922 12.1624 8.76724 12.168C8.77991 12.1687 8.79255 12.1699 8.80513 12.1715C9.41555 12.2505 10.007 12.5305 10.4862 13.0162C10.9544 13.4849 11.2307 14.0441 11.3104 14.6526C11.3121 14.6654 11.3133 14.6783 11.314 14.6912C11.315 14.7117 11.3169 14.7385 11.319 14.7693C11.3247 14.8511 11.3323 14.9608 11.3323 15.0533C11.3323 15.8309 11.0344 16.5763 10.4753 17.1425L10.473 17.1447C10.0325 17.5853 9.44074 17.88 8.75303 17.9703L8.7425 17.9717L7.29433 18.1305C7.29424 18.1305 7.29442 18.1305 7.29433 18.1305C6.18728 18.2543 5.23864 17.3142 5.36924 16.1929L5.5281 14.7455C5.5281 14.7455 5.52811 14.7455 5.5281 14.7455C5.69944 13.1824 7.0058 12.1932 8.36998 12.1617Z" fill="black"/>
</svg>
