<svg width="18" height="18" viewBox="0 0 18 18" fill="none" xmlns="http://www.w3.org/2000/svg">
<path d="M5.05917 17.997C4.94246 17.9645 4.82426 17.9365 4.70902 17.901C3.84914 17.6351 3.24487 16.824 3.20202 15.8799C3.19759 15.7809 3.19759 15.6804 3.19759 15.5814C3.19759 12.2439 3.19611 8.90631 3.20202 5.56875C3.20202 5.40475 3.15031 5.33975 3.00404 5.28508C2.34806 5.0413 1.9196 4.30849 2.01268 3.61556C2.11314 2.8665 2.71299 2.25484 3.43841 2.22085C4.15645 2.18687 4.87745 2.20017 5.59844 2.19278C5.64572 2.19278 5.69152 2.19278 5.75358 2.19278C5.76392 1.96082 5.76983 1.73477 5.78608 1.5102C5.84665 0.684307 6.54253 0.0150236 7.42161 0.00911379C8.6804 0.000249099 9.94066 -0.00713864 11.1995 0.0120682C12.1701 0.0268427 12.832 0.74045 12.8512 1.74216C12.8542 1.88252 12.8512 2.02288 12.8512 2.18539C12.9207 2.18835 12.9813 2.19426 13.0433 2.19426C13.6697 2.19426 14.2962 2.18835 14.9226 2.19574C15.6658 2.2046 16.211 2.5326 16.5035 3.23291C16.83 4.013 16.4148 4.9822 15.6229 5.28213C15.4693 5.33975 15.4176 5.41214 15.4176 5.58057C15.4235 8.92995 15.4205 12.2793 15.422 15.6287C15.422 16.3261 15.227 16.9436 14.7084 17.4356C14.4114 17.7163 14.0598 17.8907 13.6579 17.966C13.6254 17.9719 13.5944 17.9882 13.5634 18H5.0577L5.05917 17.997ZM4.03974 5.40771V5.59239C4.03974 8.94177 4.03974 12.2926 4.03974 15.642C4.03974 15.7705 4.0486 15.9005 4.06928 16.0261C4.17566 16.6821 4.68538 17.149 5.3325 17.1505C7.98009 17.1564 10.6277 17.1549 13.2753 17.1505C13.7067 17.1505 14.0524 16.9643 14.305 16.6097C14.5148 16.3142 14.5769 15.9803 14.5769 15.6287C14.5769 12.2852 14.5769 8.94029 14.5769 5.59682C14.5769 5.53477 14.571 5.47272 14.568 5.40623H4.03974V5.40771ZM9.31275 4.55522C11.1507 4.55522 12.9901 4.55522 14.8281 4.55522C14.9152 4.55522 15.0039 4.55374 15.091 4.5434C15.5003 4.50056 15.7899 4.14745 15.7559 3.73967C15.719 3.29496 15.3954 3.0364 14.8724 3.0364C11.1655 3.0364 7.45855 3.0364 3.75311 3.0364C3.66594 3.0364 3.57729 3.04084 3.4916 3.05413C3.13406 3.1088 2.87403 3.40133 2.85334 3.76479C2.83414 4.1046 3.07644 4.44146 3.4133 4.52272C3.53149 4.55079 3.65708 4.55227 3.7797 4.55227C5.62356 4.55374 7.46889 4.55227 9.31275 4.55227V4.55522ZM11.9928 2.18392C11.9928 1.96082 12.012 1.75546 11.9884 1.55305C11.9485 1.20437 11.7417 0.981274 11.4063 0.882285C11.3236 0.858646 11.2334 0.848304 11.1463 0.848304C9.92146 0.846827 8.69813 0.845349 7.47333 0.848304C7.03305 0.848304 6.70062 1.09504 6.63709 1.49838C6.60163 1.71852 6.63118 1.949 6.63118 2.18392H11.9928Z" fill="black"/>
<path d="M7.24124 10.9136C7.24124 12.2079 7.24272 13.5006 7.23828 14.7949C7.23828 14.9131 7.21021 15.0416 7.15555 15.1436C7.07872 15.2898 6.92802 15.343 6.76402 15.3179C6.59412 15.2928 6.47297 15.1967 6.42717 15.0268C6.40944 14.9603 6.39909 14.8894 6.39909 14.82C6.39909 12.2271 6.39762 9.63415 6.39909 7.04122C6.39909 6.94519 6.41535 6.83881 6.45671 6.75312C6.53354 6.5906 6.67833 6.51821 6.86006 6.53446C7.04326 6.55071 7.16441 6.65118 7.21465 6.82552C7.23828 6.90825 7.23976 6.99838 7.23976 7.08555C7.23976 8.36206 7.23976 9.6371 7.23976 10.9136H7.24124Z" fill="black"/>
<path d="M8.88721 10.9198C8.88721 9.62706 8.88721 8.33282 8.88721 7.04005C8.88721 6.7357 9.02018 6.55841 9.25952 6.53477C9.4841 6.5126 9.65843 6.63671 9.70867 6.8598C9.72344 6.92777 9.72935 6.99868 9.72935 7.06812C9.72935 9.63741 9.72935 12.2067 9.72935 14.776C9.72935 14.8513 9.72344 14.9281 9.70571 15.002C9.65991 15.197 9.49296 15.3271 9.30089 15.3256C9.1103 15.3226 8.94187 15.1882 8.90198 14.9932C8.88721 14.9193 8.88721 14.8425 8.88721 14.7656C8.88721 13.4832 8.88721 12.2023 8.88721 10.9198Z" fill="black"/>
<path d="M11.3752 10.9351C11.3752 9.65269 11.3752 8.37175 11.3752 7.08932C11.3752 6.72587 11.5156 6.53528 11.786 6.52937C12.0623 6.52494 12.2189 6.72587 12.2189 7.0908C12.2189 9.64826 12.2189 12.2057 12.2189 14.7632C12.2189 15.1281 12.0593 15.332 11.786 15.3246C11.5156 15.3172 11.3767 15.1266 11.3767 14.7617C11.3767 13.4852 11.3767 12.2102 11.3767 10.9336L11.3752 10.9351Z" fill="black"/>
</svg>
