<svg width="18" height="18" viewBox="0 0 18 18" fill="none" xmlns="http://www.w3.org/2000/svg">
<path d="M13.6542 12.0749C13.0542 10.6339 11.9833 9.72003 10.4863 9.32194C10.2788 9.26587 10.0714 9.23783 9.84709 9.19859C11.2993 8.58744 11.9609 7.10722 11.6805 5.78961C11.389 4.42714 10.2564 3.42911 8.92195 3.36744C7.55948 3.30576 6.33718 4.14679 5.92227 5.44759C5.71482 6.09238 5.71482 6.73717 5.9447 7.37635C6.25308 8.23981 6.8418 8.83414 7.69405 9.20419C7.60434 9.21541 7.54266 9.22662 7.48098 9.23783C6.91469 9.32754 6.37082 9.49575 5.87181 9.77049C4.97471 10.2695 4.32431 11.004 3.9038 11.9516C3.60663 12.6132 3.65149 13.258 4.07761 13.8355C4.63269 14.5924 5.3728 15.0185 6.34279 15.0129C7.95757 14.9961 9.56674 15.0017 11.1815 15.0129C12.0338 15.0185 12.729 14.7101 13.2897 14.071C13.8055 13.4822 13.9569 12.8038 13.6542 12.0805V12.0749ZM6.18019 6.38954C6.18019 4.95418 7.3296 3.79356 8.74814 3.79356C10.1667 3.79356 11.3161 4.95418 11.3161 6.38954C11.3161 7.8249 10.1667 8.98553 8.74814 8.98553C8.73132 8.98553 8.7201 8.98553 8.70328 8.98553C8.68646 8.98553 8.66964 8.98553 8.65282 8.98553C8.60236 8.98553 8.5519 8.98553 8.50704 8.97431C8.49583 8.97431 8.48462 8.97431 8.4678 8.97431C8.41733 8.96871 8.36687 8.9631 8.31641 8.95188C8.29959 8.95188 8.28837 8.95189 8.27155 8.94628C7.0829 8.722 6.18019 7.66791 6.18019 6.39515V6.38954ZM13.1664 13.4822C12.8356 13.97 12.4094 14.3513 11.8207 14.4971C11.6974 14.5307 11.5684 14.5588 11.4394 14.5588C10.6545 14.5644 9.86951 14.5588 9.05652 14.5588C8.70889 14.5588 8.36127 14.5588 8.32762 14.5588H6.24747C5.45129 14.5588 4.85136 14.1831 4.3972 13.5607C4.12807 13.1907 4.072 12.759 4.2346 12.3328C4.58784 11.4189 5.19338 10.7181 6.0288 10.1854C6.21944 10.0733 6.30354 10.0228 6.39325 9.97234C6.88105 9.74806 7.37445 9.63032 7.89589 9.60789C8.04167 9.58546 9.09016 9.57425 9.58356 9.60789C10.1443 9.63592 10.6377 9.75367 11.1255 9.97794C11.2768 10.0564 11.3553 10.1013 11.4899 10.191C12.073 10.5274 12.5384 10.976 12.886 11.5423C13.0318 11.7834 13.1664 12.0413 13.2785 12.3048C13.4467 12.7085 13.4131 13.1178 13.172 13.4766L13.1664 13.4822Z" fill="black" stroke="black" stroke-width="0.4"/>
<path fill-rule="evenodd" clip-rule="evenodd" d="M9.7649 1.55362C13.5908 2.11071 16.5291 5.4048 16.5291 9.38516C16.5291 10.4282 16.3273 11.4242 15.9606 12.3361C15.9857 12.3344 16.0109 12.3335 16.0363 12.3335C16.2603 12.3335 16.4688 12.3999 16.6433 12.514C17.0215 11.5441 17.2291 10.4889 17.2291 9.38516C17.2291 5.03946 14.0112 1.44533 9.8283 0.855464C9.84735 0.936957 9.85743 1.0219 9.85743 1.1092C9.85743 1.26723 9.82441 1.41754 9.7649 1.55362ZM15.5794 14.4558C15.3594 14.3562 15.1775 14.1871 15.0621 13.9763C13.627 15.988 11.274 17.2997 8.61454 17.2997C6.0387 17.2997 3.75026 16.0692 2.305 14.1639C2.15146 14.3438 1.94145 14.4741 1.70241 14.5273C3.27279 16.6348 5.78427 17.9997 8.61454 17.9997C11.4767 17.9997 14.0129 16.6038 15.5794 14.4558ZM0.7 9.38516C0.7 10.4332 0.903708 11.4337 1.27369 12.3491C1.03098 12.3902 0.815054 12.51 0.653118 12.6814C0.232268 11.666 0 10.5527 0 9.38516C0 4.94503 3.35919 1.28948 7.67481 0.821289C7.65022 0.91311 7.63711 1.00963 7.63711 1.1092C7.63711 1.25473 7.66511 1.39371 7.71602 1.52106C3.76801 1.96719 0.7 5.31789 0.7 9.38516Z" fill="black"/>
<path d="M8.74725 2.22032C9.36037 2.22032 9.85741 1.72329 9.85741 1.11016C9.85741 0.497036 9.36037 0 8.74725 0C8.13412 0 7.63708 0.497036 7.63708 1.11016C7.63708 1.72329 8.13412 2.22032 8.74725 2.22032Z" fill="black"/>
<path d="M1.46014 14.5563C2.07326 14.5563 2.5703 14.0592 2.5703 13.4461C2.5703 12.833 2.07326 12.3359 1.46014 12.3359C0.847012 12.3359 0.349976 12.833 0.349976 13.4461C0.349976 14.0592 0.847012 14.5563 1.46014 14.5563Z" fill="black"/>
<path d="M16.0363 14.5563C16.6494 14.5563 17.1465 14.0592 17.1465 13.4461C17.1465 12.833 16.6494 12.3359 16.0363 12.3359C15.4232 12.3359 14.9261 12.833 14.9261 13.4461C14.9261 14.0592 15.4232 14.5563 16.0363 14.5563Z" fill="black"/>
</svg>
