<svg width="42" height="43" viewBox="0 0 42 43" fill="none" xmlns="http://www.w3.org/2000/svg">
<path fill-rule="evenodd" clip-rule="evenodd" d="M21 2.77539C10.5064 2.77539 2 11.289 2 21.7754C2 27.2709 4.32984 32.2163 8.06468 35.6807L8.06688 35.6827C11.4579 38.8472 16.0011 40.7754 21 40.7754C25.6922 40.7754 29.9873 39.0734 33.2976 36.2527L33.2992 36.2513C37.3998 32.772 40 27.5776 40 21.7754C40 11.289 31.4936 2.77539 21 2.77539ZM0 21.7754C0 10.1849 9.40131 0.775391 21 0.775391C32.5987 0.775391 42 10.1849 42 21.7754C42 28.1881 39.1237 33.9317 34.5942 37.7754C34.5939 37.7757 34.5935 37.7761 34.5931 37.7764L33.9462 37.0139L34.5947 37.775C34.5946 37.7751 34.5944 37.7753 34.5942 37.7754C30.9354 40.8929 26.1845 42.7754 21 42.7754C15.4764 42.7754 10.4508 40.6424 6.70345 37.146C6.70382 37.1463 6.70418 37.1467 6.70455 37.147L7.38462 36.4139L6.70235 37.145C6.70272 37.1453 6.70308 37.1456 6.70345 37.146C2.5774 33.3181 0 27.8485 0 21.7754Z" fill="black"/>
<path fill-rule="evenodd" clip-rule="evenodd" d="M25.5344 28.451C22.2721 28.4434 19.0153 28.4357 15.7593 28.4587L15.7522 28.4588C15.2963 28.4588 14.8539 28.5119 14.4485 28.6369C11.4976 29.5571 9.4569 31.9253 8.48555 36.0555C11.8283 38.9972 16.2072 40.7741 21.006 40.7741C25.5011 40.7741 29.6317 39.2121 32.8812 36.601C32.5116 34.3091 31.5375 32.2952 30.2442 30.8444C28.8757 29.3092 27.2017 28.4542 25.5344 28.451ZM25.5387 26.4511L25.5364 26.451C22.2777 26.4434 19.0135 26.4357 15.7485 26.4587C15.1444 26.459 14.4962 26.529 13.8571 26.7263L13.8546 26.7271C9.98945 27.9317 7.55512 31.0743 6.49294 35.7964C6.45626 35.9531 6.42937 36.1055 6.40761 36.2289L6.31152 36.7734L6.70838 37.1437C10.4558 40.6408 15.4819 42.7741 21.006 42.7741C26.1907 42.7741 30.9418 40.8915 34.6008 37.7737L35.02 37.4165L34.9421 36.8712C34.9375 36.8388 34.933 36.8092 34.9292 36.7851L34.929 36.7836C34.9254 36.7604 34.9226 36.7419 34.9199 36.7232C34.5523 33.9007 33.3856 31.3628 31.7371 29.5135C30.0903 27.6661 27.9097 26.4557 25.5387 26.4511C25.5389 26.4511 25.5385 26.4511 25.5387 26.4511Z" fill="black"/>
<path fill-rule="evenodd" clip-rule="evenodd" d="M21.0433 11.9435C16.9172 11.9174 12.9141 15.1466 12.9141 20.0204L21.0433 11.9435ZM21.0308 13.9435C17.8954 13.9235 14.9141 16.3712 14.9141 20.0204V20.0281C14.9141 23.7282 17.9444 26.1424 20.9427 26.0898L20.9514 26.0897H21.0003L21.0097 26.0898C24.1671 26.1489 27.0503 23.5497 27.0833 20.0955L27.0834 20.0937C27.1229 16.6098 24.2542 13.9633 21.0308 13.9435ZM21.0433 11.9435C25.3121 11.9699 29.136 15.4619 29.0832 20.1164C29.0384 24.704 25.2201 28.1636 20.9819 28.0897H20.9687C16.9546 28.1551 12.9141 24.9397 12.9141 20.0281V20.0204" fill="black"/>
</svg>
