<svg xmlns="http://www.w3.org/2000/svg" xmlns:xlink="http://www.w3.org/1999/xlink"><symbol viewBox="0 0 26 24" id="svg-about" xmlns="http://www.w3.org/2000/svg"><path fill-rule="evenodd" clip-rule="evenodd" d="M2.55355 2.55355C1.81256 3.29455 1.5 4.59643 1.5 7V16.6C1.5 19.0036 1.81256 20.3054 2.55355 21.0464C3.29455 21.7874 4.59643 22.1 7 22.1H19C21.4036 22.1 22.7055 21.7874 23.4464 21.0464C24.1874 20.3054 24.5 19.0036 24.5 16.6V7C24.5 4.59643 24.1874 3.29455 23.4464 2.55355C22.7055 1.81256 21.4036 1.5 19 1.5H7C4.59643 1.5 3.29455 1.81256 2.55355 2.55355ZM1.84645 1.84645C2.90545 0.787443 4.60357 0.5 7 0.5H19C21.3964 0.5 23.0946 0.787443 24.1536 1.84645C25.2126 2.90545 25.5 4.60357 25.5 7V16.6C25.5 18.9964 25.2126 20.6945 24.1536 21.7536C23.0946 22.8126 21.3964 23.1 19 23.1H7C4.60357 23.1 2.90545 22.8126 1.84645 21.7536C0.787443 20.6945 0.5 18.9964 0.5 16.6V7C0.5 4.60357 0.787443 2.90545 1.84645 1.84645ZM14.9 7C14.9 6.72386 15.1239 6.5 15.4 6.5H21.4C21.6761 6.5 21.9 6.72386 21.9 7C21.9 7.27614 21.6761 7.5 21.4 7.5H15.4C15.1239 7.5 14.9 7.27614 14.9 7ZM16.1 11.8C16.1 11.5239 16.3239 11.3 16.6 11.3H21.4C21.6761 11.3 21.9 11.5239 21.9 11.8C21.9 12.0761 21.6761 12.3 21.4 12.3H16.6C16.3239 12.3 16.1 12.0761 16.1 11.8ZM18.5 16.6C18.5 16.3239 18.7239 16.1 19 16.1H21.4C21.6761 16.1 21.9 16.3239 21.9 16.6C21.9 16.8761 21.6761 17.1 21.4 17.1H19C18.7239 17.1 18.5 16.8761 18.5 16.6Z"/><path fill-rule="evenodd" clip-rule="evenodd" d="M6.91343 6.34706C7.41453 5.84597 8.09416 5.56445 8.80282 5.56445C9.51148 5.56445 10.1911 5.84597 10.6922 6.34706C11.1933 6.84816 11.4748 7.52779 11.4748 8.23645C11.4748 8.94511 11.1933 9.62474 10.6922 10.1258C10.1911 10.6269 9.51148 10.9085 8.80282 10.9085C8.09416 10.9085 7.41453 10.6269 6.91343 10.1258C6.41233 9.62474 6.13082 8.94511 6.13082 8.23645C6.13082 7.52779 6.41233 6.84816 6.91343 6.34706ZM8.80282 6.56445C8.35938 6.56445 7.9341 6.74061 7.62054 7.05417C7.30698 7.36773 7.13082 7.79301 7.13082 8.23645C7.13082 8.67989 7.30698 9.10517 7.62054 9.41874C7.9341 9.7323 8.35938 9.90845 8.80282 9.90845C9.24626 9.90845 9.67154 9.7323 9.9851 9.41874C10.2987 9.10517 10.4748 8.67989 10.4748 8.23645C10.4748 7.79301 10.2987 7.36773 9.9851 7.05417C9.67154 6.74061 9.24626 6.56445 8.80282 6.56445ZM9.7615 12.6946C10.7197 12.78 11.618 13.1978 12.3008 13.8756C12.9842 14.554 13.4086 15.4502 13.5005 16.4087C13.5269 16.6836 13.3254 16.9278 13.0505 16.9542C12.7757 16.9805 12.5315 16.7791 12.5051 16.5042C12.4355 15.778 12.1139 15.0992 11.5963 14.5853C11.0786 14.0714 10.3974 13.7548 9.67074 13.6905L9.66559 13.6901L9.6656 13.69C9.09181 13.6333 8.51383 13.6333 7.94004 13.69L7.93626 13.6904L7.93626 13.6904C7.20997 13.7567 6.52949 14.074 6.01191 14.5878C5.49432 15.1016 5.172 15.7798 5.1004 16.5055C5.0733 16.7803 4.82854 16.9811 4.55373 16.954C4.27893 16.9269 4.07813 16.6822 4.10524 16.4074C4.19966 15.4501 4.62477 14.5558 5.30739 13.8781C5.98957 13.2009 6.88631 12.7825 7.84349 12.6947"/></symbol><symbol viewBox="0 0 30 30" id="svg-arr-line-bottom" xmlns="http://www.w3.org/2000/svg"><g clip-path="url(#byclip0_15_1147)"><path fill-rule="evenodd" clip-rule="evenodd" d="M29.637 14.3435C30.121 14.8348 30.121 15.6316 29.637 16.123L16.3318 29.6314C16.0993 29.8674 15.7841 30 15.4554 30C15.1267 30 14.8114 29.8674 14.579 29.6315L1.61301 16.4676C1.129 15.9762 1.129 15.1795 1.61301 14.6881C2.09702 14.1967 2.88176 14.1967 3.36577 14.6881L14.3323 25.822L14.3323 1.2583C14.3323 0.56336 14.8872 1.80218e-07 15.5717 1.72056e-07C16.2562 1.63893e-07 16.8111 0.56336 16.8111 1.2583L16.8111 25.5858L27.8842 14.3435C28.3682 13.8521 29.153 13.8521 29.637 14.3435Z"/></g><defs><clipPath id="byclip0_15_1147"><rect width="30" height="30"/></clipPath></defs></symbol><symbol viewBox="0 0 30 30" id="svg-arr-line-left" xmlns="http://www.w3.org/2000/svg"><g clip-path="url(#bxclip0_15_1145)"><path fill-rule="evenodd" clip-rule="evenodd" d="M15.6565 29.637C15.1652 30.121 14.3684 30.121 13.877 29.637L0.368556 16.3318C0.132573 16.0993 -3.59877e-07 15.7841 -3.88614e-07 15.4554C-4.1735e-07 15.1267 0.13257 14.8114 0.368546 14.579L13.5324 1.61301C14.0238 1.129 14.8205 1.129 15.3119 1.61301C15.8033 2.09702 15.8033 2.88176 15.3119 3.36577L4.17801 14.3323L28.7417 14.3323C29.4366 14.3323 30 14.8872 30 15.5717C30 16.2562 29.4366 16.8111 28.7417 16.8111L4.41424 16.8111L15.6565 27.8842C16.1479 28.3682 16.1479 29.153 15.6565 29.637Z"/></g><defs><clipPath id="bxclip0_15_1145"><rect width="30" height="30"/></clipPath></defs></symbol><symbol viewBox="0 0 30 30" id="svg-arr-line-right" xmlns="http://www.w3.org/2000/svg"><path fill-rule="evenodd" clip-rule="evenodd" d="M14.3435 1.36302C14.8348 0.879001 15.6316 0.878994 16.123 1.363L29.6314 14.6682C29.8674 14.9007 30 15.2159 30 15.5446C30 15.8733 29.8674 16.1886 29.6315 16.421L16.4676 29.387C15.9762 29.871 15.1795 29.871 14.6881 29.387C14.1967 28.903 14.1967 28.1182 14.6881 27.6342L25.822 16.6677H1.2583C0.56336 16.6677 0 16.1128 0 15.4283C0 14.7438 0.56336 14.1889 1.2583 14.1889H25.5858L14.3435 3.11577C13.8521 2.63177 13.8521 1.84703 14.3435 1.36302Z"/></symbol><symbol viewBox="0 0 30 30" id="svg-arr-line-top" xmlns="http://www.w3.org/2000/svg"><g clip-path="url(#bvclip0_15_1146)"><path fill-rule="evenodd" clip-rule="evenodd" d="M1.36302 15.6565C0.879001 15.1652 0.878994 14.3684 1.363 13.877L14.6682 0.368557C14.9007 0.132575 15.2159 1.05244e-06 15.5446 1.05636e-06C15.8733 1.06028e-06 16.1886 0.132572 16.421 0.368548L29.387 13.5324C29.871 14.0238 29.871 14.8205 29.387 15.3119C28.903 15.8033 28.1182 15.8033 27.6342 15.3119L16.6677 4.17801L16.6677 28.7417C16.6677 29.4366 16.1128 30 15.4283 30C14.7438 30 14.1889 29.4366 14.1889 28.7417L14.1889 4.41424L3.11577 15.6565C2.63177 16.1479 1.84703 16.1479 1.36302 15.6565Z"/></g><defs><clipPath id="bvclip0_15_1146"><rect width="30" height="30"/></clipPath></defs></symbol><symbol viewBox="0 0 18 18" id="svg-calendar" xmlns="http://www.w3.org/2000/svg"><path d="M3.0362 18C1.46023 18 0.13631 16.7697 0.0213961 15.1996C0.00787683 15.0171 0.00208072 14.8519 0.00111505 14.6936C0.000149389 12.1597 -0.000816276 9.62575 0.00111505 7.09185C0.00111505 6.31738 0.0069114 5.52554 0.0156024 4.73948C0.0349157 3.04764 1.32697 1.75075 3.01979 1.72275C3.09607 1.72178 3.17236 1.72082 3.25058 1.72082C3.25058 1.72082 3.60305 1.72178 3.68223 1.72178C3.773 1.72178 3.84639 1.64839 3.84639 1.55762C3.84639 1.43691 3.84639 1.31813 3.84543 1.20322C3.84446 0.943456 3.84253 0.698176 3.84833 0.452897C3.85316 0.234657 4.00187 0.0531116 4.20949 0.0106224C4.24522 0.00386272 4.28094 0 4.31571 0C4.50884 0 4.67301 0.108155 4.74253 0.281009C4.77247 0.354399 4.78792 0.450001 4.79082 0.57264C4.79661 0.796675 4.79564 1.01878 4.79468 1.25343C4.79468 1.34807 4.79468 1.44367 4.79468 1.54024C4.79468 1.63101 4.86807 1.7044 4.95884 1.7044H8.36088C8.45165 1.7044 8.52504 1.63101 8.52504 1.54024C8.52504 1.43208 8.52504 1.32393 8.52504 1.21577C8.52504 0.972425 8.52311 0.721352 8.52698 0.475107C8.53181 0.208584 8.72204 0.0106222 8.97987 0.00289688H8.99629C9.27247 0.00289688 9.4685 0.201825 9.47236 0.486696C9.47622 0.728112 9.47526 0.9647 9.47429 1.21481C9.47429 1.32393 9.47429 1.43401 9.47429 1.54506C9.47429 1.63584 9.54769 1.70923 9.63846 1.70923H13.0405C13.1313 1.70923 13.2047 1.63584 13.2047 1.54506V1.4456C13.2047 1.37511 13.2047 1.30558 13.2047 1.23605C13.2066 1.14818 13.2047 1.05933 13.2047 0.970494C13.2037 0.763841 13.2027 0.568778 13.2249 0.37661C13.252 0.152576 13.4364 0.00193174 13.6836 0.00193174C13.6962 0.00193174 13.7097 0.00193121 13.7223 0.00289688C13.9569 0.0173819 14.1404 0.207618 14.1481 0.445172C14.1549 0.64603 14.1539 0.851717 14.1529 1.05161C14.1529 1.14045 14.1529 1.22929 14.1529 1.31813V1.55569C14.1529 1.64646 14.2263 1.71985 14.3171 1.71985H14.7401C14.8183 1.71888 14.8946 1.71985 14.9709 1.71985C16.4126 1.74303 17.5936 2.69614 17.9094 4.09249C17.9557 4.29818 17.9789 4.53187 17.9799 4.80805C17.9857 6.82243 17.9886 8.83777 17.9915 10.8521C17.9934 12.1693 17.9953 13.4855 17.9982 14.8027C18.0001 15.5578 17.8186 16.1768 17.4449 16.6954C16.8249 17.5548 15.9916 17.9923 14.968 17.9932C13.1322 17.9961 11.2955 17.9971 9.45981 17.9971C8.26721 17.9971 3.03717 17.9952 3.03717 17.9952L3.0362 18ZM1.14447 7.31781C1.05852 7.31781 0.987061 7.38444 0.980301 7.47039L0.975474 7.52736C0.972577 7.56502 0.96968 7.59399 0.96968 7.62393C0.96968 10.1047 0.969682 12.5845 0.971613 15.0653C0.971613 15.1426 0.979337 15.2189 0.993822 15.2942C1.2082 16.3931 2.01839 17.0498 3.16174 17.0508C4.67301 17.0508 6.18524 17.0508 7.6965 17.0508C10.0749 17.0508 12.4534 17.0508 14.8318 17.0479C15.0491 17.0479 15.248 17.0266 15.4228 16.9851C16.3788 16.7582 17.0219 15.946 17.0229 14.9649C17.0248 13.2064 17.0248 11.447 17.0248 9.68852V7.48004C17.0248 7.38927 16.9514 7.31588 16.8607 7.31588H1.1435L1.14447 7.31781ZM3.22547 2.67103C3.13856 2.67103 3.05359 2.67103 2.96764 2.67393C1.98556 2.70386 1.16667 3.39431 1.02086 4.31652C0.959055 4.70569 0.961956 5.10451 0.964853 5.48981C0.965819 5.65397 0.966782 5.82393 0.96292 5.98906C0.961954 6.0412 0.965817 6.09045 0.96968 6.13777C0.971611 6.15612 0.972575 6.17446 0.973541 6.19281C0.978369 6.27972 1.0508 6.34732 1.1377 6.34732H16.8665C16.9572 6.34732 17.0306 6.27393 17.0306 6.18315C17.0306 6.02382 17.0316 5.86545 17.0335 5.70901C17.0364 5.35751 17.0393 5.02532 17.0277 4.68541C16.9872 3.49185 16.0852 2.65848 14.8337 2.65848C14.6561 2.65848 14.4716 2.67586 14.2852 2.70869C14.207 2.72318 14.15 2.79077 14.15 2.86996C14.15 2.96846 14.15 3.06792 14.15 3.16738C14.15 3.38755 14.152 3.61545 14.1481 3.83852C14.1433 4.12049 13.955 4.32328 13.6914 4.33391H13.6749C13.4248 4.33391 13.2182 4.12243 13.2037 3.85107C13.1979 3.73133 13.1989 3.61255 13.1998 3.48702C13.1998 3.43197 13.2008 3.37597 13.2008 3.32092V2.84678C13.2008 2.75601 13.1274 2.68262 13.0366 2.68262H9.63459C9.54382 2.68262 9.47043 2.75601 9.47043 2.84678C9.47043 2.95494 9.47043 3.06212 9.47139 3.16835C9.47236 3.40976 9.47429 3.63766 9.4685 3.86942C9.46174 4.1147 9.2773 4.3088 9.02912 4.33197C9.01657 4.33294 9.00402 4.33391 8.99243 4.33391C8.77708 4.33391 8.58105 4.17071 8.53566 3.95343C8.52215 3.8897 8.52311 3.81631 8.52408 3.73809C8.52408 3.71491 8.52408 3.69174 8.52408 3.66856C8.52311 3.47253 8.52311 3.27554 8.52408 3.0824V2.85161C8.52408 2.76084 8.45068 2.68745 8.35991 2.68745H4.95788C4.8671 2.68745 4.79371 2.76084 4.79371 2.85161V3.13358C4.79371 3.3412 4.79371 3.54303 4.79371 3.74582C4.79275 4.09828 4.60444 4.33487 4.32537 4.33487C4.18921 4.33294 4.06174 4.27597 3.97483 4.1823C3.87923 4.07994 3.83288 3.93509 3.84253 3.76609C3.85412 3.55751 3.85122 3.35279 3.84833 3.13551C3.84736 3.03798 3.84543 2.93948 3.84543 2.83809C3.84543 2.74732 3.77204 2.67393 3.68127 2.67393C3.59919 2.67393 3.52 2.67393 3.44275 2.67296C3.36936 2.67296 3.29693 2.672 3.22644 2.672L3.22547 2.67103Z"/><path d="M8.99958 11.1419C8.50323 11.1419 8.09862 10.7411 8.09766 10.2486C8.09766 10.0111 8.19036 9.78609 8.36031 9.61613C8.53124 9.44521 8.75721 9.35058 8.99766 9.34961C9.49497 9.34961 9.89959 9.75133 9.90152 10.2448C9.90152 10.4823 9.80978 10.7073 9.64079 10.8763C9.47083 11.0472 9.24293 11.1419 9.00152 11.1419H9.00055H8.99958Z"/><path d="M4.73897 14.551C4.23682 14.5481 3.84573 14.1512 3.84766 13.6471C3.84959 13.1527 4.25035 12.75 4.7409 12.75C5.24208 12.7529 5.64284 13.1594 5.64187 13.6558C5.63994 14.1492 5.23822 14.5519 4.74476 14.5519H4.73994L4.73897 14.551Z"/><path d="M8.99667 14.551C8.75815 14.551 8.53315 14.4563 8.36126 14.2854C8.19034 14.1145 8.0957 13.8895 8.0957 13.6519C8.0957 13.1633 8.50901 12.751 8.99667 12.75C9.4853 12.75 9.89763 13.1623 9.8986 13.651C9.8986 13.8885 9.80493 14.1135 9.63401 14.2844C9.46308 14.4554 9.23616 14.55 8.99764 14.55H8.99667V14.551Z"/><path d="M13.2487 14.551C12.7533 14.5461 12.3526 14.1396 12.3555 13.6452C12.3584 13.1517 12.7611 12.75 13.2526 12.75C13.7615 12.7539 14.1516 13.1527 14.1497 13.6577C14.1478 14.1502 13.747 14.551 13.2574 14.551H13.2487Z"/><path d="M4.73801 11.1419C4.49659 11.1419 4.27159 11.0482 4.10549 10.8812C3.93843 10.7122 3.8467 10.4862 3.84766 10.2419C3.8496 9.74167 4.24358 9.34961 4.74476 9.34961C4.98811 9.34961 5.21312 9.44425 5.38211 9.6142C5.5511 9.78416 5.6438 10.0101 5.64284 10.2506C5.64091 10.7421 5.23629 11.1419 4.74187 11.1419H4.73897H4.73801Z"/><path d="M13.2564 11.1419C12.761 11.1419 12.3574 10.7421 12.3555 10.2506C12.3555 10.0101 12.4472 9.78416 12.6162 9.6142C12.7852 9.44425 13.0102 9.34961 13.2506 9.34961C13.7547 9.34961 14.1487 9.74167 14.1506 10.2419C14.1506 10.4852 14.0608 10.7122 13.8938 10.8802C13.7277 11.0482 13.5017 11.1409 13.2593 11.1419H13.2564Z"/></symbol><symbol viewBox="0 0 18 18" xml:space="preserve" id="svg-calendar-simple" xmlns="http://www.w3.org/2000/svg"><path d="M4.084 18c-2.12 0-3.9-1.518-4.055-3.455A8.345 8.345 0 0 1 0 13.921c0-3.126-.002-2.045 0-5.171 0-.956.008-1.933.02-2.903C.047 3.76 1.785 2.16 4.06 2.125l.311-.002.58.001c.123 0 .221-.09.221-.202v-.437c-.002-.321-.005-.624.003-.926a.576.576 0 0 1 .486-.546A.843.843 0 0 1 5.805 0c.26 0 .48.133.574.347.04.09.06.208.065.36.007.276.006.55.005.84V1.9c0 .112.099.203.22.203h4.576c.122 0 .221-.09.221-.203v-.4c0-.3-.002-.61.003-.914.006-.329.262-.573.609-.583h.022c.371 0 .635.246.64.597.005.298.004.59.003.899v.407c0 .112.042.197.22.203 0 0-.102.006 1.379 0 1.48-.006 3.114 1.217 3.539 2.94.062.254.093.542.094.883.008 2.485.012 4.972.016 7.457.003 1.625.005-.959.01.666.002.932-.243 1.696-.745 2.335-.834 1.06-1.955 1.6-3.332 1.602-2.469.003 1.268.004-1.2.004l-8.639-.002-.001.006zM1.539 9.028c-.115 0-.211.083-.22.189l-.007.07c-.004.046-.008.082-.008.12 0 3.06 0 1.912.003 4.972 0 .096.01.19.03.283.288 1.355 1.378 2.166 2.915 2.167h6.1c3.199 0 .19 0 3.39-.004.291 0 .559-.026.794-.077 1.286-.28 2.15-1.282 2.152-2.492.003-2.17.003-.133.003-2.303V9.23c0-.112-.099-.203-.221-.203H1.538l.001.002zm2.8-5.733c-.118 0-.232 0-.348.004-1.32.037-2.422.889-2.618 2.026-.083.48-.08.973-.075 1.448.001.203.002.412-.003.616-.001.064.004.125.01.183l.004.068c.007.108.104.191.221.191h14.948c.122 0 .22-.09.22-.203 0-.196.002-.391.004-.584.004-.434.008-.844-.007-1.263-.055-1.473-1.268-2.501-2.951-2.501-.19 0-.665 0-.786.03-.122 0-.22.09-.22.202v.397c.002.298.005.579-.003.865-.01.303-.257.542-.591.57l-.05.003a.632.632 0 0 1-.614-.47c-.018-.078-.017-.169-.015-.265v-.086a67.053 67.053 0 0 1 0-.723v-.285c0-.112-.099-.202-.221-.202H6.668c-.122 0-.22.09-.22.202v1.103c-.002.435-.255.727-.63.727a.686.686 0 0 1-.472-.188.642.642 0 0 1-.178-.514c.016-.257.012-.51.008-.778-.001-.12-.004-.241-.004-.366 0-.112-.099-.203-.22-.203l-.322-.001-.29-.001-.002-.002z"/></symbol><symbol viewBox="0 0 18 18" xml:space="preserve" id="svg-catalog" xmlns="http://www.w3.org/2000/svg"><path d="M16.853 1.3h-5.237a3.108 3.108 0 0 0-2.618 1.436A3.11 3.11 0 0 0 6.38 1.3H1.144A1.146 1.146 0 0 0-.002 2.445v10.473a1.145 1.145 0 0 0 1.145 1.145H6.38a2.127 2.127 0 0 1 2.127 2.128.49.49 0 1 0 .982 0 2.127 2.127 0 0 1 2.127-2.128h5.237a1.145 1.145 0 0 0 1.145-1.145V2.445A1.145 1.145 0 0 0 16.853 1.3zM6.38 13.082H1.143a.164.164 0 0 1-.163-.164V2.445a.164.164 0 0 1 .163-.163H6.38a2.127 2.127 0 0 1 2.127 2.127v9.516a3.098 3.098 0 0 0-2.127-.843zm10.636-.164a.164.164 0 0 1-.163.164h-5.237c-.79 0-1.552.301-2.127.844V4.409a2.127 2.127 0 0 1 2.127-2.127h5.237a.164.164 0 0 1 .163.163v10.473zM15.38 5.063a.491.491 0 0 1-.491.491h-3.273a.49.49 0 1 1 0-.982h3.273a.49.49 0 0 1 .49.491zm0 2.619a.491.491 0 0 1-.491.49h-3.273a.49.49 0 1 1 0-.981h3.273a.49.49 0 0 1 .49.49zm0 2.618a.491.491 0 0 1-.491.49h-3.273a.49.49 0 1 1 0-.981h3.273a.49.49 0 0 1 .49.49z"/></symbol><symbol id="svg-check-in-circle" viewBox="0 0 18 18" xml:space="preserve" xmlns="http://www.w3.org/2000/svg"><style>.brst0{fill-rule:evenodd;clip-rule:evenodd}</style><path class="brst0" d="M9 0a8.973 8.973 0 0 1 6.364 2.636A8.973 8.973 0 0 1 18 9a8.973 8.973 0 0 1-2.636 6.364A8.971 8.971 0 0 1 9 18a8.973 8.973 0 0 1-6.364-2.636A8.972 8.972 0 0 1 0 9a8.974 8.974 0 0 1 2.636-6.364A8.974 8.974 0 0 1 9 0zm0 0v.563V0zM0 9h.563H0zm9 9v-.563V18zm9-9h-.563H18zm-5.986-7.277a7.848 7.848 0 0 0-3.013-.598h-.002a7.848 7.848 0 0 0-5.567 2.306v.001A7.848 7.848 0 0 0 1.124 9v.002a7.85 7.85 0 0 0 2.306 5.567h.001a7.848 7.848 0 0 0 5.567 2.307h.002a7.848 7.848 0 0 0 5.567-2.306v-.001A7.848 7.848 0 0 0 16.876 9v-.002a7.849 7.849 0 0 0-2.306-5.567l-.001-.001a7.85 7.85 0 0 0-2.554-1.709z"/><path class="brst0" d="M13.617 6.07c.22.22.22.577 0 .796L8.554 11.93a.562.562 0 0 1-.795 0L5.228 9.398a.562.562 0 1 1 .795-.796l2.134 2.134L12.82 6.07c.22-.22.576-.22.796 0z"/></symbol><symbol viewBox="0 0 20 20" id="svg-check-lg" xmlns="http://www.w3.org/2000/svg"><path d="M7.405 13.8406C8.46194 12.618 9.42339 11.5059 10.3838 10.3938C12.5964 7.83236 14.8133 5.27545 17.0162 2.70613C17.5227 2.11511 18.1172 1.85796 18.8447 2.07789C19.98 2.41964 20.377 3.86334 19.5883 4.83332C18.8157 5.78525 17.9959 6.69433 17.1954 7.62145C14.4248 10.828 11.6575 14.0369 8.88257 17.2389C8.01663 18.2393 7.08416 18.2506 6.1828 17.2897C4.29425 15.2764 2.40677 13.2631 0.523579 11.2453C-0.0140155 10.669 -0.140635 9.94489 0.157671 9.27267C0.45383 8.60609 1.08049 8.2181 1.78118 8.27787C2.24474 8.31735 2.60635 8.56436 2.92505 8.90723C4.32 10.4039 5.72247 11.8939 7.11635 13.3917C7.22687 13.5101 7.11635 13.3917 7.45764 13.7797L7.405 13.8406Z"/></symbol><symbol viewBox="0 0 16 16" id="svg-close" xmlns="http://www.w3.org/2000/svg"><path fill-rule="evenodd" clip-rule="evenodd" d="M15.807 0.900428C16.0023 0.705166 16.0023 0.388584 15.807 0.193322C15.6118 -0.00194053 15.2952 -0.00194055 15.0999 0.193322L8.00005 7.29318L0.900198 0.193322C0.704936 -0.00194054 0.388354 -0.00194054 0.193091 0.193322C-0.00217075 0.388584 -0.00217075 0.705166 0.193091 0.900428L7.29295 8.00028L0.193077 15.1002C-0.00218462 15.2954 -0.00218464 15.612 0.193077 15.8073C0.388339 16.0025 0.704922 16.0025 0.900184 15.8073L8.00005 8.70739L15.0999 15.8073C15.2952 16.0025 15.6118 16.0025 15.807 15.8073C16.0023 15.612 16.0023 15.2954 15.807 15.1002L8.70716 8.00028L15.807 0.900428Z"/></symbol><symbol id="svg-close-in-circle" viewBox="0 0 18 18" xml:space="preserve" xmlns="http://www.w3.org/2000/svg"><style>.bpst0{fill-rule:evenodd;clip-rule:evenodd}</style><path class="bpst0" d="M12.666 6.254a.65.65 0 0 0-.919-.92L9.001 8.082 6.254 5.334a.65.65 0 0 0-.919.92L8.081 9l-2.746 2.747a.65.65 0 0 0 .92.919L9 9.919l2.746 2.747a.65.65 0 0 0 .92-.92L9.92 9l2.746-2.746z"/><path class="bpst0" d="M9 0a8.974 8.974 0 0 1 6.364 2.636A8.974 8.974 0 0 1 18 9a8.974 8.974 0 0 1-2.636 6.364A8.973 8.973 0 0 1 9 18a8.974 8.974 0 0 1-6.364-2.636A8.974 8.974 0 0 1 0 9a8.974 8.974 0 0 1 2.636-6.364A8.973 8.973 0 0 1 9 0zm0 0v.563V0zM0 9h.563H0zm9 9v-.563V18zm9-9h-.563H18zm-5.986-7.277a7.848 7.848 0 0 0-3.013-.598h-.002a7.848 7.848 0 0 0-5.567 2.306v.001A7.848 7.848 0 0 0 1.124 9v.002a7.849 7.849 0 0 0 2.306 5.567l.001.001A7.848 7.848 0 0 0 9 16.875h.002a7.848 7.848 0 0 0 5.567-2.306v-.001a7.848 7.848 0 0 0 2.307-5.567v-.002a7.848 7.848 0 0 0-2.306-5.567h-.001a7.848 7.848 0 0 0-2.554-1.71z"/></symbol><symbol viewBox="0 0 22 22" id="svg-comment" xmlns="http://www.w3.org/2000/svg"><g clip-path="url(#bnclip0_182_1202)"><path fill-rule="evenodd" clip-rule="evenodd" d="M3.20262 3.20262C2.45929 3.94595 2 5.14218 2 6.98205V11.9671C2 14.3734 2.49006 15.494 3.15402 16.0749C3.85101 16.6848 5.00572 16.9492 6.98205 16.9492H7.48056C7.81224 16.9492 8.12529 17.0517 8.36464 17.1703C8.60037 17.2872 8.87788 17.4758 9.08143 17.7523L10.5737 19.742C10.7416 19.9658 10.8947 20 10.9701 20C11.0455 20 11.1986 19.9658 11.3665 19.742L12.8658 17.7429C13.2415 17.2486 13.8333 16.9492 14.4596 16.9492H14.9581C16.798 16.9492 17.9942 16.4899 18.7376 15.7465C19.4809 15.0032 19.9402 13.807 19.9402 11.9671V6.98205C19.9402 5.14218 19.4809 3.94595 18.7376 3.20262C17.9942 2.45929 16.798 2 14.9581 2H6.98205C5.14218 2 3.94595 2.45929 3.20262 3.20262ZM1.78841 1.78841C3.0391 0.537718 4.83389 0 6.98205 0H14.9581C17.1063 0 18.9011 0.537718 20.1518 1.78841C21.4025 3.0391 21.9402 4.83389 21.9402 6.98205V11.9671C21.9402 14.1153 21.4025 15.9101 20.1518 17.1607C18.9011 18.4114 17.1063 18.9492 14.9581 18.9492H14.4639C14.4637 18.9493 14.4642 18.949 14.4639 18.9492C14.4611 18.9506 14.4587 18.9525 14.4583 18.9529C14.4582 18.953 14.4582 18.953 14.4583 18.9529L12.9665 20.942C12.4764 21.5955 11.7621 22 10.9701 22C10.1781 22 9.46381 21.5955 8.97368 20.942L7.49773 18.974C7.49168 18.9703 7.48445 18.9663 7.47634 18.9623C7.46783 18.958 7.45948 18.9544 7.45184 18.9515C7.44953 18.9506 7.4474 18.9498 7.44547 18.9492H6.98205C4.97035 18.9492 3.13404 18.715 1.83701 17.5801C0.506949 16.4163 0 14.5458 0 11.9671V6.98205C0 4.83389 0.537718 3.0391 1.78841 1.78841Z"/><path fill-rule="evenodd" clip-rule="evenodd" d="M4.98438 6.98047C4.98438 6.42818 5.43209 5.98047 5.98438 5.98047H15.9545C16.5067 5.98047 16.9545 6.42818 16.9545 6.98047C16.9545 7.53275 16.5067 7.98047 15.9545 7.98047H5.98438C5.43209 7.98047 4.98438 7.53275 4.98438 6.98047ZM4.98438 11.9655C4.98438 11.4132 5.43209 10.9655 5.98438 10.9655H11.9664C12.5187 10.9655 12.9664 11.4132 12.9664 11.9655C12.9664 12.5178 12.5187 12.9655 11.9664 12.9655H5.98438C5.43209 12.9655 4.98438 12.5178 4.98438 11.9655Z"/></g><defs><clipPath id="bnclip0_182_1202"><rect width="22" height="22"/></clipPath></defs></symbol><symbol viewBox="0 0 22 22" id="svg-docs" xmlns="http://www.w3.org/2000/svg"><g clip-path="url(#biclip0_182_1224)"><path fill-rule="evenodd" clip-rule="evenodd" d="M3.33211 3.33211C2.4864 4.17782 2 5.59863 2 8V14C2 16.4014 2.4864 17.8222 3.33211 18.6679C4.17782 19.5136 5.59863 20 8 20H14C16.4014 20 17.8222 19.5136 18.6679 18.6679C19.5136 17.8222 20 16.4014 20 14V9C20 8.44772 20.4477 8 21 8C21.5523 8 22 8.44772 22 9V14C22 16.5986 21.4864 18.6778 20.0821 20.0821C18.6778 21.4864 16.5986 22 14 22H8C5.40137 22 3.32218 21.4864 1.91789 20.0821C0.513602 18.6778 0 16.5986 0 14V8C0 5.40137 0.513602 3.32218 1.91789 1.91789C3.32218 0.513602 5.40137 0 8 0H13C13.5523 0 14 0.447715 14 1C14 1.55228 13.5523 2 13 2H8C5.59863 2 4.17782 2.4864 3.33211 3.33211Z"/><path fill-rule="evenodd" clip-rule="evenodd" d="M12.6173 0.0761497C12.991 -0.0786313 13.4211 0.00692445 13.7071 0.292922L21.7071 8.29292C21.9931 8.57892 22.0787 9.00904 21.9239 9.38271C21.7691 9.75639 21.4045 10 21 10H17C15.4446 10 14.0895 9.7537 13.1679 8.83214C12.2463 7.91058 12 6.55543 12 5.00003V1.00003C12 0.595567 12.2436 0.230931 12.6173 0.0761497ZM14 3.41424V5.00003C14 6.44463 14.2537 7.08948 14.5821 7.41792C14.9105 7.74636 15.5554 8.00003 17 8.00003H18.5858L14 3.41424Z"/></g><defs><clipPath id="biclip0_182_1224"><rect width="22" height="22"/></clipPath></defs></symbol><symbol viewBox="0 0 18 18" xml:space="preserve" id="svg-docs-check" xmlns="http://www.w3.org/2000/svg"><path d="M4.9 10.6c-.3 0-.5-.2-.5-.4 0-.1 0-.3.1-.3.1-.1.2-.1.4-.1h6.6c.3 0 .5.1.5.4 0 .3-.1.5-.4.5h-.1c-.1-.1-5.7-.1-6.6-.1zM4.8 7.8c-.2 0-.3-.1-.4-.2-.1-.1-.1-.3 0-.4.1-.2.2-.3.4-.3h6.6c.3 0 .5.2.5.4 0 .1 0 .3-.1.3-.1.1-.2.1-.4.1-.4.1-6.1.1-6.6.1z"/><path d="M8.7 16.9H3.3c-.9 0-1.4-.5-1.4-1.3V2.4c0-.8.5-1.3 1.4-1.3h7c.1 0 .2.1.2.2V4c0 .8.6 1.3 1.4 1.3h2.9c.1 0 .2.1.2.2v4.2h1V5.4c0-.5-.2-.8-.5-1.2C14.4 3.1 13.2 2 11.9.6 11.4.1 11 0 10.5 0H2.9C1.7.2 1 1.1 1 2.2v13.3c0 1.3 1 2.2 2.3 2.2h5.4v-.8zm2.8-14.8c0-.1 0-.1.1-.2h.2l2 2s.1.1 0 .2c0 .1-.1.1-.2.1h-1.9c-.2 0-.4-.1-.4-.4V2.1z"/><path d="M11.8 16.1c.5-.6.9-1.1 1.4-1.6 1-1.2 2-2.4 3.1-3.6.2-.3.5-.4.8-.3.5.2.7.8.3 1.3-.4.4-.7.9-1.1 1.3-1.3 1.5-2.6 3-3.8 4.4-.4.5-.8.5-1.2 0-.9-.9-1.7-1.9-2.6-2.8-.2-.3-.3-.6-.2-.9.1-.3.4-.5.8-.5.2 0 .4.1.5.3.6.7 1.3 1.4 1.9 2.1.1.1 0 .1.1.3z"/></symbol><symbol viewBox="0 0 18 18" xml:space="preserve" id="svg-docs-edit" xmlns="http://www.w3.org/2000/svg"><path d="M4.7 10.1c-.3 0-.5-.2-.5-.4 0-.1 0-.2.1-.3.1-.1.2-.1.3-.1h6.3c.3 0 .4.1.5.4 0 .2-.1.5-.4.5h-.1c0-.1-5.3-.1-6.2-.1zM4.6 7.4c-.2 0-.3-.1-.4-.2-.1-.1-.1-.3 0-.4.1-.2.2-.3.4-.3h6.2c.3 0 .5.2.5.4 0 .1 0 .2-.1.3-.1.1-.2.1-.4.1-.3.1-5.7.1-6.2.1z"/><path d="M6.5 16.1H3.2c-.8 0-1.3-.5-1.3-1.3V2.2c0-.8.5-1.3 1.3-1.3H9.9c.1 0 .2.1.2.1v2.6c0 .7.5 1.3 1.3 1.3H14c.1 0 .2.1.2.1v3h.9V4.9c0-.4-.1-.8-.5-1.1-1.1-1-2.2-2.1-3.5-3.4-.2-.3-.6-.4-1-.4H2.8C1.7.2 1 1 1 2.1v12.7c0 1.3.9 2.2 2.2 2.2h3.3v-.9zM11 2c0-.1 0-.1.1-.1h.2l1.9 1.9s.1.1 0 .2h-1.8c-.2 0-.4-.1-.4-.3V2z"/><path d="M7.7 18h-.1s-.1 0-.1-.1l-.1-.1v-.2l.2-2c0-.1 0-.2.1-.3l5.9-5.9c.3-.3.8-.5 1.2-.5.4 0 .9.2 1.2.5.3.3.5.7.5 1.2 0 .4-.1.9-.4 1.2L10 17.7c-.1.1-.2.1-.2.1l-2.1.2zm.5-2.3-.1 1.5 1.5-.2 5.8-5.8c.1-.1.2-.3.2-.5s0-.4-.1-.5c-.1-.2-.2-.3-.3-.4-.1-.1-.3-.1-.5-.1h-.3c-.1 0-.2.1-.3.2l-5.9 5.8z"/></symbol><symbol viewBox="0 0 18 18" id="svg-docs-thin" xmlns="http://www.w3.org/2000/svg"><path d="M7.51864 18C6.12529 18 4.73093 18 3.33758 17.998C1.96342 17.997 1.00253 17.0615 1.00152 15.7237C0.999495 11.3914 0.999495 6.86632 1.00152 2.27238C1.00152 1.10078 1.7472 0.220351 2.90007 0.028527C3.0486 0.0039342 3.20824 0.0039342 3.36183 0.0039342H7.06598C8.26129 0.0039342 9.4566 0.00393486 10.6519 0C11.1207 0 11.4875 0.148541 11.8139 0.469232C13.1597 1.78938 14.3662 2.96393 15.5039 4.05979C15.8444 4.38737 16.001 4.75823 16 5.22647C15.996 6.50137 15.996 7.79692 15.997 9.05017V12.0682C15.998 13.286 15.999 14.5029 15.997 15.7198C15.9949 16.8225 15.3503 17.6675 14.3126 17.9262C14.1257 17.9725 13.9135 17.9961 13.6649 17.9961C11.6158 17.999 9.56673 18 7.51864 18ZM3.36183 0.9483C2.49086 0.9483 1.97151 1.4559 1.97151 2.30484C1.97151 6.76795 1.97151 11.2301 1.97151 15.6932C1.97151 16.5451 2.48984 17.0537 3.35879 17.0537C5.07244 17.0537 6.7871 17.0537 8.50177 17.0537C10.2164 17.0537 11.9301 17.0537 13.6447 17.0537C14.5107 17.0537 15.028 16.551 15.028 15.7089C15.028 12.3387 15.028 8.96852 15.028 5.59733C15.028 5.54716 15.025 5.49601 15.0209 5.44092L15.0159 5.36321C15.0108 5.27468 14.936 5.20483 14.8441 5.20483H14.5733C14.3197 5.20483 14.0651 5.20483 13.8115 5.20581C13.5578 5.20581 13.3042 5.2068 13.0506 5.2068C12.7051 5.2068 12.3585 5.20582 12.0129 5.20188C11.2248 5.19303 10.6479 4.62641 10.6428 3.85518C10.6398 3.45874 10.6408 3.06329 10.6418 2.66685V2.13761V1.11356C10.6418 1.02109 10.565 0.946332 10.47 0.946332H6.41831C5.39982 0.946332 4.38032 0.946332 3.36183 0.946332V0.9483ZM11.7856 1.933C11.7634 1.933 11.7411 1.93693 11.7199 1.94579C11.6563 1.97136 11.6138 2.03235 11.6138 2.10023V2.55175C11.6138 2.98852 11.6128 3.43611 11.6158 3.88272C11.6179 4.10701 11.7755 4.25751 12.0109 4.2585C12.2989 4.25948 12.5858 4.25948 12.8708 4.25948H13.8327C13.9024 4.25948 13.965 4.21817 13.9913 4.15619C14.0176 4.09323 14.0034 4.02142 13.9539 3.9742L11.9068 1.98218C11.8735 1.94972 11.83 1.933 11.7856 1.933Z"/><path d="M7.82501 10.7207C6.8525 10.7207 5.88096 10.7207 4.90845 10.7207C4.59558 10.7207 4.38538 10.5547 4.37182 10.2973C4.36504 10.1606 4.40572 10.0417 4.48903 9.95497C4.57524 9.86632 4.69825 9.81823 4.84645 9.81728C5.10121 9.81445 5.35692 9.81445 5.61168 9.81445C5.787 9.81445 6.67427 9.8154 6.67427 9.8154H10.05C10.5372 9.8154 11.0254 9.8154 11.5126 9.81634C11.7819 9.81634 11.9756 9.96345 12.0066 10.1888C12.0434 10.4538 11.8797 10.6689 11.6085 10.7113C11.5717 10.7169 11.53 10.7198 11.4787 10.7198H7.82501V10.7207Z"/><path d="M6.26467 7.85646C5.79585 7.85646 5.328 7.85646 4.85918 7.85458C4.67999 7.85458 4.51919 7.77253 4.43008 7.63768C4.34871 7.51319 4.33902 7.36231 4.40392 7.22368C4.49207 7.03696 4.63833 6.9502 4.86693 6.9502C5.23501 6.9502 5.60116 6.9502 5.96827 6.9502H9.6394C10.2593 6.9502 10.8783 6.9502 11.4982 6.9502C11.7859 6.9502 11.9903 7.11523 12.0077 7.36042C12.0174 7.49905 11.9777 7.61882 11.8915 7.70841C11.8014 7.80271 11.6658 7.85458 11.5079 7.85458C11.0807 7.85552 10.6536 7.85552 10.2264 7.85552H8.15448H6.26467V7.85646Z"/><path d="M6.73233 13.5762C6.72652 13.5762 6.72071 13.5752 6.7149 13.5752H5.6155C5.35299 13.5762 5.09049 13.5752 4.82799 13.5733C4.61974 13.5714 4.45216 13.4526 4.39017 13.2631C4.32915 13.0782 4.39308 12.8755 4.54128 12.7812C4.64202 12.717 4.76116 12.6765 4.85221 12.6765C5.48376 12.6718 6.15406 12.6689 6.89991 12.6689C7.46268 12.6689 8.02546 12.6699 8.58921 12.6727C8.82846 12.6727 9.01056 12.8076 9.06287 13.0235C9.11324 13.2301 9.01928 13.4328 8.83524 13.5167C8.75872 13.5516 8.65604 13.5714 8.54368 13.5733C8.24921 13.5771 7.95475 13.5771 7.66028 13.5771H6.7333L6.73233 13.5762Z"/></symbol><symbol viewBox="0 0 18 18" id="svg-docs-thin-2" xmlns="http://www.w3.org/2000/svg"><path d="M8.34643 18C6.98989 18 5.63236 18 4.27582 17.998C2.93797 17.997 2.00246 17.0615 2.00148 15.7237C1.99951 11.3914 1.99951 6.86632 2.00148 2.27238C2.00148 1.10078 2.72746 0.220351 3.84987 0.028527C3.99448 0.0039342 4.14991 0.0039342 4.29943 0.0039342H7.90573C9.06946 0.0039342 10.2332 0.00393486 11.3969 0C11.8534 0 12.2105 0.148541 12.5282 0.469232C13.8385 1.78938 15.0131 2.96393 16.1207 4.05979C16.4522 4.38737 16.6047 4.75823 16.6037 5.22647C16.5998 6.50137 16.5998 7.79692 16.6008 9.05017V12.0682C16.6018 13.286 16.6027 14.5029 16.6008 15.7198C16.5988 16.8225 15.9712 17.6675 14.9609 17.9262C14.7789 17.9725 14.5724 17.9961 14.3304 17.9961C12.3354 17.999 10.3404 18 8.34643 18ZM4.29943 0.9483C3.45147 0.9483 2.94584 1.4559 2.94584 2.30484C2.94584 6.76795 2.94584 11.2301 2.94584 15.6932C2.94584 16.5451 3.45049 17.0537 4.29648 17.0537C5.96486 17.0537 7.63422 17.0537 9.30358 17.0537C10.9729 17.0537 12.6413 17.0537 14.3107 17.0537C15.1537 17.0537 15.6574 16.551 15.6574 15.7089C15.6574 12.3387 15.6574 8.96852 15.6574 5.59733C15.6574 5.54716 15.6544 5.49601 15.6505 5.44092L15.6456 5.36321C15.6407 5.27468 15.5679 5.20483 15.4784 5.20483H15.2147C14.9678 5.20483 14.7199 5.20483 14.473 5.20581C14.2261 5.20581 13.9792 5.2068 13.7323 5.2068C13.3958 5.2068 13.0584 5.20582 12.722 5.20188C11.9547 5.19303 11.393 4.62641 11.3881 3.85518C11.3851 3.45874 11.3861 3.06329 11.3871 2.66685V2.13761V1.11356C11.3871 1.02109 11.3123 0.946332 11.2199 0.946332H7.27517C6.28358 0.946332 5.29102 0.946332 4.29943 0.946332V0.9483ZM12.5007 1.933C12.479 1.933 12.4574 1.93693 12.4367 1.94579C12.3747 1.97136 12.3334 2.03235 12.3334 2.10023V2.55175C12.3334 2.98852 12.3324 3.43611 12.3354 3.88272C12.3374 4.10701 12.4908 4.25751 12.72 4.2585C13.0004 4.25948 13.2798 4.25948 13.5572 4.25948H14.4937C14.5615 4.25948 14.6225 4.21817 14.6481 4.15619C14.6737 4.09323 14.6599 4.02142 14.6117 3.9742L12.6187 1.98218C12.5862 1.94972 12.5439 1.933 12.5007 1.933Z"/><path d="M9.26034 11C8.62394 11 7.98817 11 7.35176 11C7.14702 11 7.00947 10.8169 7.0006 10.5328C6.99616 10.3819 7.02278 10.2508 7.0773 10.155C7.13371 10.0572 7.21421 10.0042 7.3112 10.0031C7.4779 10 7.64524 10 7.81195 10C7.92668 10 8.50731 10.001 8.50731 10.001H10.7163C11.0352 10.001 11.3546 10.001 11.6735 10.0021C11.8497 10.0021 11.9765 10.1644 11.9968 10.4131C12.0208 10.7055 11.9137 10.9428 11.7362 10.9896C11.7121 10.9958 11.6849 10.999 11.6513 10.999H9.26034V11Z"/><path d="M9.26034 13C8.62394 13 7.98817 13 7.35176 13C7.14702 13 7.00947 12.8169 7.0006 12.5328C6.99616 12.3819 7.02278 12.2508 7.0773 12.155C7.13371 12.0572 7.21421 12.0042 7.3112 12.0031C7.4779 12 7.64524 12 7.81195 12C7.92668 12 8.50731 12.001 8.50731 12.001H10.7163C11.0352 12.001 11.3546 12.001 11.6735 12.0021C11.8497 12.0021 11.9765 12.1644 11.9968 12.4131C12.0208 12.7055 11.9137 12.9428 11.7362 12.9896C11.7121 12.9958 11.6849 12.999 11.6513 12.999H9.26034V13Z"/><path d="M8.24449 9C7.93799 9 7.63212 9 7.32561 8.99792C7.20845 8.99792 7.10333 8.90739 7.04507 8.75859C6.99187 8.62123 6.98554 8.45473 7.02797 8.30177C7.0856 8.09573 7.18122 8 7.33068 8C7.57132 8 7.8107 8 8.05071 8H10.4508C10.8561 8 11.2608 8 11.6661 8C11.8542 8 11.9878 8.1821 11.9992 8.45265C12.0055 8.60562 11.9796 8.73777 11.9232 8.83663C11.8643 8.94069 11.7756 8.99792 11.6724 8.99792C11.3931 8.99896 11.1139 8.99896 10.8346 8.99896H9.48002H8.24449V9Z"/></symbol><symbol id="svg-download" viewBox="0 0 18 18" xml:space="preserve" xmlns="http://www.w3.org/2000/svg"><style>.bhst0{fill-rule:evenodd;clip-rule:evenodd}</style><path class="bhst0" d="M8.8 0c.3 0 .5.2.5.5V13L13 9.6c.2-.2.5-.2.7 0 .2.2.2.5 0 .7l-4.4 4.1c-.3.3-.7.3-1 0L4 10.3c-.2-.2-.2-.5 0-.7s.5-.2.7 0L8.3 13V.5c0-.3.2-.5.5-.5zM2.5 17c-.3 0-.5.2-.5.5s.2.5.5.5h12.6c.3 0 .5-.2.5-.5s-.2-.5-.5-.5H2.5z"/></symbol><symbol viewBox="0 0 20 28" id="svg-exclame" xmlns="http://www.w3.org/2000/svg"><path d="M8 1.07392C8 0.357973 8.3268 0 8.98039 0H11.0196C11.6732 0 12 0.357973 12 1.07392L11.5882 19.5063C11.5882 20.0921 11.2941 20.3849 10.7059 20.3849H9.29412C8.70588 20.3849 8.41176 20.0921 8.41176 19.5063L8 1.07392ZM8.90196 28C8.31373 28 8.01961 27.7071 8.01961 27.1213V24.7392C8.01961 24.1534 8.31373 23.8605 8.90196 23.8605H11.098C11.6863 23.8605 11.9804 24.1534 11.9804 24.7392V27.1213C11.9804 27.7071 11.6863 28 11.098 28H8.90196Z"/></symbol><symbol viewBox="0 0 22 22" id="svg-eye" xmlns="http://www.w3.org/2000/svg"><path fill-rule="evenodd" clip-rule="evenodd" d="M10.9998 8.49504C9.40073 8.49504 8.13103 9.76397 8.13103 11.3096C8.13103 12.8552 9.40073 14.1241 10.9998 14.1241C12.5989 14.1241 13.8686 12.8552 13.8686 11.3096C13.8686 9.76397 12.5989 8.49504 10.9998 8.49504ZM6.43872 11.3096C6.43872 8.80595 8.48965 6.80273 10.9998 6.80273C13.51 6.80273 15.5609 8.80595 15.5609 11.3096C15.5609 13.8132 13.51 15.8164 10.9998 15.8164C8.48965 15.8164 6.43872 13.8132 6.43872 11.3096Z"/><path fill-rule="evenodd" clip-rule="evenodd" d="M0.836059 8.19473C3.32889 4.3334 6.98411 2 11 2C15.0161 2 18.6715 4.33363 21.1643 8.19528C21.7405 9.08544 22 10.2221 22 11.3077C22 12.3935 21.7404 13.5304 21.1639 14.4207C21.1638 14.4208 21.1637 14.421 21.1636 14.4212L20.4534 13.9612L21.1643 14.4201C21.1642 14.4203 21.1641 14.4205 21.1639 14.4207C18.6711 18.282 15.0159 20.6154 11 20.6154C6.98391 20.6154 3.32854 18.2818 0.8357 14.4201L1.5466 13.9612L0.836419 14.4212C0.259704 13.5309 0 12.3938 0 11.3077C0 10.2218 0.259596 9.08497 0.836059 8.19473ZM0.836059 8.19473C0.835939 8.19491 0.835819 8.1951 0.8357 8.19528L1.5466 8.65419L0.836419 8.19417C0.836299 8.19436 0.836179 8.19454 0.836059 8.19473ZM11 3.69231C7.68996 3.69231 4.5173 5.61245 2.2575 9.11311L2.25678 9.11422C1.89957 9.66568 1.69231 10.4612 1.69231 11.3077C1.69231 12.1542 1.89957 12.9497 2.25678 13.5012L2.2575 13.5023C4.5173 17.0029 7.68996 18.9231 11 18.9231C14.31 18.9231 17.4827 17.0029 19.7425 13.5023L19.7432 13.5012C20.1004 12.9497 20.3077 12.1542 20.3077 11.3077C20.3077 10.4612 20.1004 9.66568 19.7432 9.11422L19.7425 9.11311C17.4827 5.61245 14.31 3.69231 11 3.69231Z"/></symbol><symbol viewBox="0 0 18 19" id="svg-filter" xmlns="http://www.w3.org/2000/svg"><g clip-path="url(#bea)"><path d="M7.903 18.2c-.924 0-1.595-.717-1.596-1.705v-.012l-.001-.012c-.055-.486-.025-1.318.005-2.2.08-2.277.095-3.933-.442-4.518-.763-.87-1.529-1.745-2.293-2.62C2.61 6.028 1.614 4.887.629 3.767c-.792-.9-.84-1.982-.125-2.824C.92.456 1.471.207 2.142.206 3.16.203 4.175.202 5.191.202l4.082.001V.202L11.003.2h1.965c1.127 0 2.045 0 2.893.004.88.004 1.519.395 1.902 1.165.385.771.3 1.524-.244 2.178-.665.798-1.365 1.591-2.042 2.36-.282.319-.565.639-.845.96l-.738.824c-2.28 2.537-2.324 2.585-2.239 4.75.028.693.064 1.64.025 2.993.004.762-.325 1.29-1.004 1.623l-.517.254c-.458.225-.931.459-1.398.682a1.975 1.975 0 0 1-.857.205l-.001.001zM1.518 3.027c.449.513.896 1.026 1.343 1.54 1.229 1.409 2.5 2.866 3.766 4.287.594.668.867 1.38.859 2.242-.013 1.293-.01 2.607-.007 3.878l.002 1.456c0 .414.146.625.434.625.109 0 .23-.036.393-.115l.577-.284c.386-.191.785-.389 1.183-.572.302-.14.438-.35.439-.682.05-.572.02-1.257-.01-1.982-.071-1.625-.15-3.468.684-4.354l.006-.007 5.316-6.072a.966.966 0 0 0 .23-1.064c-.146-.35-.488-.569-.894-.569-.018 0-.036 0-.055.002l-3.39-.002H8.991l-1.084.001H6.195l-1.712-.002c-.916 0-1.667.001-2.362.004H2.11a.901.901 0 0 0-.866.586.981.981 0 0 0 .274 1.083v.001z"/></g><defs><clipPath id="bea"><path transform="translate(0 .2)" d="M0 0h18v18H0z"/></clipPath></defs></symbol><symbol id="svg-folder-open" viewBox="0 0 18 18" xml:space="preserve" xmlns="http://www.w3.org/2000/svg"><path d="M17.8,7.4c-0.1-0.1-0.2-0.3-0.4-0.3C17.2,7,17,7,16.9,7h-1.5V6c0-0.3-0.1-0.6-0.3-0.8c-0.2-0.2-0.5-0.3-0.8-0.3H8.6  c0,0-0.1,0-0.1,0L6.2,3.2C6,3.1,5.8,3,5.5,3H1.1C0.8,3,0.6,3.1,0.3,3.3C0.1,3.5,0,3.8,0,3.6V15c0,0.6,0.1,0.7,0.1,0.8  C0.2,15.9,0.4,16,0.5,16h14.7c0.1,0,0.2,0,0.3-0.1c0.1-0.1,0.1-0.1,0.2-0.2l2.3-7.3C18,8.3,18,8.1,18,7.9C18,7.7,17.9,7.6,17.8,7.4z   M1.1,4h4.4c0,0,0.1,0,0.1,0l2.3,1.6c0.2,0.1,0.4,0.2,0.7,0.2h5.7c0,0,0.1,0,0.1,0c0,0,0,0.1,0,0.1v1H3.6C3.3,7,3.1,7,2.9,7.2  C2.7,7.3,2.6,7.5,2.5,7.7L1,12.1V3.6C1,4.1,1,4,1,4C1.1,4,1.1,4,1.1,4z M17,8.1L14.8,15H1.2l2.3-7c0,0,0-0.1,0.1-0.1  c0,0,0.1,0,0.1,0h13.3c0,0,0.1,0,0.1,0c0,0,0,0,0.1,0C17,8,17,8,17,8.1C17,8.1,17,8.1,17,8.1z"/></symbol><symbol viewBox="0 0 25 21" id="svg-hamburger-dots" xmlns="http://www.w3.org/2000/svg"><circle cx="2.5" cy="10.5" r="2.5"/><circle cx="12.5" cy="10.5" r="2.5"/><circle cx="22.5" cy="10.5" r="2.5"/></symbol><symbol viewBox="0 0 20 28" id="svg-info" xmlns="http://www.w3.org/2000/svg"><path d="M8.88983 28C8.29661 28 8 27.7034 8 27.1102V8.12712C8 7.5339 8.29661 7.23729 8.88983 7.23729H10.5904C11.1836 7.23729 11.4802 7.5339 11.4802 8.12712V27.1102C11.4802 27.7034 11.1836 28 10.5904 28H8.88983ZM8.88983 3.48023C8.29661 3.48023 8 3.18362 8 2.5904V0.88983C8 0.29661 8.29661 0 8.88983 0H10.5904C11.1836 0 11.4802 0.29661 11.4802 0.88983V2.5904C11.4802 3.18362 11.1836 3.48023 10.5904 3.48023H8.88983Z"/></symbol><symbol id="svg-info-in-square" viewBox="0 0 18 18" xml:space="preserve" xmlns="http://www.w3.org/2000/svg"><style type="text/css">.bbst0{fill-rule:evenodd;clip-rule:evenodd;}</style><g><g><path d="M8.4,7.2h1.2v6.5H8.4V7.2z"/><circle cx="9" cy="5.1" r="0.8"/></g><path class="bbst0" d="M0,0v18h18V0H0z M17,17H1V1h16V17z"/></g></symbol><symbol viewBox="0 0 18 18" id="svg-list" xmlns="http://www.w3.org/2000/svg"><g clip-path="url(#azclip0_909_1814)"><g clip-path="url(#azclip1_909_1814)"><path d="M0.501103 9.48145H3.15546C3.28445 9.48641 3.40353 9.53602 3.4978 9.62533C3.59206 9.70967 3.64664 9.82874 3.65656 9.95774C3.66648 10.0867 3.62183 10.2108 3.54245 10.305C3.46307 10.4043 3.34895 10.4638 3.21996 10.4836H3.1505H0.997244V16.3728H3.15546C3.27453 16.3728 3.39361 16.4175 3.48291 16.4969C3.57222 16.5763 3.63175 16.6854 3.64664 16.8045V16.8739C3.6516 16.993 3.60695 17.1121 3.52756 17.2014C3.44818 17.2907 3.33903 17.3502 3.21996 17.3701H3.1505H0.496141C0.377067 17.3701 0.257993 17.3254 0.168688 17.2461C0.0793826 17.1667 0.0198456 17.0575 0.00496141 16.9384V16.869L0 9.97759C0 9.85851 0.0446527 9.73944 0.124035 9.65013C0.203418 9.56083 0.312569 9.50129 0.431643 9.48641H0.501103V9.48145Z"/><path d="M17.4046 14.6514C17.5534 14.6514 17.6973 14.7059 17.8065 14.8101C17.9156 14.9143 17.9801 15.0532 17.9901 15.2021C18 15.3509 17.9553 15.4998 17.8611 15.6139C17.7668 15.728 17.6328 15.8074 17.484 15.8272H17.4046L4.94154 15.8322C4.7927 15.8322 4.64882 15.7726 4.53967 15.6734C4.43051 15.5692 4.36602 15.4303 4.35609 15.2815C4.34617 15.1326 4.39082 14.9838 4.48509 14.8697C4.57936 14.7556 4.71332 14.6762 4.86216 14.6563H4.94154L17.4046 14.6514Z"/><path d="M17.4046 11.0635C17.5534 11.0635 17.6973 11.1181 17.8065 11.2222C17.9156 11.3264 17.9801 11.4654 17.9901 11.6142C18 11.763 17.9553 11.9119 17.8611 12.026C17.7668 12.1401 17.6328 12.2195 17.484 12.2393H17.4046L4.94154 12.2443C4.7927 12.2443 4.64882 12.1848 4.53967 12.0855C4.43051 11.9813 4.36602 11.8424 4.35609 11.6936C4.34617 11.5447 4.39082 11.3959 4.48509 11.2818C4.57936 11.1677 4.71332 11.0883 4.86216 11.0684H4.94154L17.4046 11.0635Z"/><path d="M0.501103 0H3.15546C3.28445 0.00496141 3.40353 0.0545755 3.4978 0.143881C3.59206 0.228225 3.64664 0.347299 3.65656 0.476296C3.66648 0.605292 3.62183 0.729327 3.54245 0.823594C3.46307 0.922823 3.34895 0.982359 3.21996 1.00221H3.1505H0.997244V6.88644H3.15546C3.27453 6.88644 3.39361 6.93109 3.48291 7.01047C3.57222 7.08986 3.63175 7.19901 3.64664 7.31808V7.38754C3.64664 7.50662 3.60695 7.62569 3.52756 7.715C3.44818 7.8043 3.33903 7.86384 3.21996 7.88368H3.1505H0.496141C0.377067 7.88368 0.257993 7.83903 0.168688 7.75965C0.0793826 7.68027 0.0198456 7.57111 0.00496141 7.45204V7.38258L0 0.501103C0 0.382029 0.0446527 0.262955 0.124035 0.173649C0.203418 0.0793826 0.312569 0.0198456 0.431643 0H0.501103Z"/><path d="M17.4046 5.25391C17.5534 5.25391 17.6973 5.30848 17.8065 5.41267C17.9156 5.51686 17.9801 5.65578 17.9901 5.80462C18 5.95347 17.9553 6.10231 17.8611 6.21642C17.7668 6.33053 17.6328 6.40992 17.484 6.42976H17.4046L4.94154 6.43472C4.7927 6.43472 4.64882 6.37519 4.53967 6.27596C4.43051 6.17177 4.36602 6.03285 4.35609 5.88401C4.34617 5.73516 4.39082 5.58632 4.48509 5.47221C4.57936 5.3581 4.71332 5.27871 4.86216 5.25887H4.94154L17.4046 5.25391Z"/><path d="M17.4096 1.66211C17.5585 1.66211 17.7023 1.71668 17.8115 1.82087C17.9206 1.92506 17.9851 2.06398 17.9951 2.21283C18.005 2.36167 17.9603 2.51051 17.8661 2.62462C17.7718 2.73874 17.6378 2.81812 17.489 2.83796H17.4096L4.94654 2.84293C4.7977 2.84293 4.65382 2.78835 4.54467 2.68416C4.43552 2.57997 4.37102 2.44105 4.3611 2.29221C4.35118 2.14337 4.39583 1.99452 4.49009 1.88041C4.58436 1.7663 4.71832 1.68692 4.86716 1.66707H4.94654L17.4096 1.66211Z"/></g></g><defs><clipPath id="azclip0_909_1814"><rect width="18" height="18"/></clipPath><clipPath id="azclip1_909_1814"><rect width="18" height="17.3649"/></clipPath></defs></symbol><symbol viewBox="0 0 24 24" id="svg-logout" xmlns="http://www.w3.org/2000/svg"><path fill-rule="evenodd" clip-rule="evenodd" d="M3.5 2.14286C2.11929 2.14286 1 3.42204 1 5V19.8561C1 21.4341 2.11929 22.7133 3.5 22.7133H12.2178C13.5985 22.7133 14.7178 21.4341 14.7178 19.8561V18.0665C14.7178 17.7509 14.9416 17.4951 15.2178 17.4951C15.4939 17.4951 15.7178 17.7509 15.7178 18.0665V19.8561C15.7178 22.0653 14.1507 23.8561 12.2178 23.8561H3.5C1.567 23.8561 0 22.0652 0 19.8561V5C0 2.79086 1.567 1 3.5 1H12.2178C14.1507 1 15.7178 2.79086 15.7178 5V6.36144C15.7178 6.67703 15.4939 6.93287 15.2178 6.93287C14.9416 6.93287 14.7178 6.67703 14.7178 6.36144V5C14.7178 3.42204 13.5985 2.14286 12.2178 2.14286H3.5Z"/><path fill-rule="evenodd" clip-rule="evenodd" d="M11.5576 12.4093C11.5576 12.0937 11.7815 11.8379 12.0576 11.8379L22.1057 11.8379C22.3819 11.8379 22.6057 12.0937 22.6057 12.4093C22.6057 12.7249 22.3819 12.9807 22.1057 12.9807L12.0576 12.9807C11.7815 12.9807 11.5576 12.7249 11.5576 12.4093Z"/><path fill-rule="evenodd" clip-rule="evenodd" d="M20.1629 9.64294C20.3582 9.41979 20.6748 9.4198 20.87 9.64297L22.9371 12.0054C23.1323 12.2286 23.1323 12.5904 22.937 12.8135L20.87 15.1758C20.6748 15.399 20.3582 15.399 20.1629 15.1758C19.9677 14.9527 19.9677 14.5909 20.1629 14.3677L21.8764 12.4094L20.1629 10.4511C19.9677 10.2279 19.9677 9.86609 20.1629 9.64294Z"/></symbol><symbol viewBox="0 0 24 24" id="svg-microphone-stroke" xmlns="http://www.w3.org/2000/svg"><path d="M16 12V6c0-2.217-1.785-4.021-3.979-4.021a1 1 0 0 0-.209.025A4.006 4.006 0 0 0 8 6v6c0 2.206 1.794 4 4 4s4-1.794 4-4m-6 0V6c0-1.103.897-2 2-2a1 1 0 0 0 .163-.015C13.188 4.06 14 4.935 14 6v6c0 1.103-.897 2-2 2s-2-.897-2-2"/><path d="M6 12H4c0 4.072 3.061 7.436 7 7.931V22h2v-2.069c3.939-.495 7-3.858 7-7.931h-2c0 3.309-2.691 6-6 6s-6-2.691-6-6"/></symbol><symbol viewBox="0 0 22 22" id="svg-moon" xmlns="http://www.w3.org/2000/svg"><g clip-path="url(#awclip0_791_1343)"><path fill-rule="evenodd" clip-rule="evenodd" d="M9.35713 1.98175C8.27691 2.17854 7.23631 2.56865 6.2869 3.13778C4.86362 3.99099 3.69864 5.21454 2.91622 6.67793C2.13381 8.14132 1.76331 9.78965 1.84425 11.4471C1.92518 13.1045 2.45452 14.7089 3.37579 16.0891C4.29707 17.4693 5.57572 18.5735 7.07536 19.284C8.575 19.9945 10.2394 20.2845 11.8909 20.1233C13.5425 19.962 15.1193 19.3554 16.4532 18.3682C17.2349 17.7897 17.9159 17.0932 18.474 16.3072C17.0894 16.5048 15.6681 16.3895 14.3175 15.9573C12.2421 15.2933 10.465 13.9229 9.29512 12.0845C8.12525 10.2461 7.63658 8.05585 7.91405 5.89451C8.09457 4.48833 8.59197 3.15223 9.35713 1.98175ZM11.1255 0.00896289H11.4379C11.8148 0.00896289 12.1532 0.239644 12.2911 0.590428C12.4289 0.941211 12.3379 1.3406 12.0618 1.59715C10.7796 2.78864 9.95534 4.39181 9.73246 6.12796C9.50957 7.86412 9.90211 9.62349 10.8418 11.1002C11.7816 12.577 13.2091 13.6778 14.8762 14.2112C16.5434 14.7446 18.3447 14.677 19.9672 14.0201C20.3098 13.8814 20.7022 13.962 20.9623 14.2246C21.2225 14.4871 21.2995 14.8802 21.1577 15.2216C20.3935 17.0604 19.1444 18.6573 17.5438 19.8419C15.9432 21.0265 14.051 21.7544 12.0691 21.9479C10.0872 22.1415 8.09 21.7934 6.29043 20.9408C4.49087 20.0883 2.95648 18.7632 1.85095 17.107C0.745425 15.4507 0.110219 13.5255 0.0130944 11.5365C-0.0840305 9.54758 0.360568 7.56958 1.29947 5.81352C2.23836 4.05745 3.63634 2.58918 5.34428 1.56534C7.05221 0.541497 9.00604 0.000480346 10.9973 2.66103e-08C11.0405 -1.03545e-05 11.0833 0.00301673 11.1255 0.00896289Z"/></g><defs><clipPath id="awclip0_791_1343"><rect width="22" height="22"/></clipPath></defs></symbol><symbol viewBox="0 0 18 18" id="svg-pencil" xmlns="http://www.w3.org/2000/svg"><path d="M0 17.4495C0.0936316 17.0575 0.191809 16.6664 0.279986 16.2734C0.497248 15.3052 0.709964 14.336 0.915863 13.4053C2.10898 14.6024 3.31347 15.8115 4.51477 17.0168C4.21115 17.0922 3.86253 17.1804 3.51346 17.2654C2.55396 17.4994 1.59401 17.7319 0.634513 17.9654C0.297257 18.0477 0.17181 17.9951 0 17.6967C0 17.6145 0 17.5318 0 17.4495Z"/><path d="M11.19 3.07422C12.3772 4.26817 13.5876 5.48543 14.7825 6.68715C11.719 9.76685 8.6392 12.863 5.57026 15.9482C4.37987 14.7547 3.1672 13.5392 1.96863 12.3375C5.03893 9.25326 8.12014 6.15803 11.19 3.07422Z"/><path d="M12.1876 2.07346C12.7312 1.51052 13.2553 0.913314 13.8375 0.380079C14.413 -0.146302 15.3216 -0.11843 15.8938 0.41709C16.5056 0.989621 17.0946 1.58911 17.6701 2.19911C18.0846 2.63868 18.1173 3.34829 17.7101 3.78145C17.0883 4.44263 16.417 5.05674 15.7765 5.68136C14.5939 4.49198 13.383 3.27472 12.1881 2.07346H12.1876Z"/></symbol><symbol viewBox="0 0 18 18" xml:space="preserve" id="svg-pie-chart" xmlns="http://www.w3.org/2000/svg"><path d="M6.7 7.4V1c0-.1 0-.2-.1-.2 0-.1-.1-.1-.2-.2-.1 0-.1-.1-.2-.1H6c-2 .7-3.7 2.1-4.8 4C.1 6.4-.2 8.5.1 10.6c0 .1.1.2.1.2l.2.2c.1 0 .2.1.2 0 .1 0 .2 0 .2-.1l5.5-3.2c.1 0 .1-.1.2-.2.2.1.2 0 .2-.1zm-1.1-.3L1.1 9.7V9c0-1.5.4-3 1.2-4.3.8-1.3 2-2.3 3.3-2.9v5.3zm11.2-2.6c-.8-1.4-2-2.6-3.3-3.3C12.1.4 10.6 0 9 0c-.1 0-.3.1-.4.2-.1.1-.1.2-.1.3v8.2l-7 4.1c-.1 0-.1.1-.2.1 0 .1-.1.1-.1.2v.2c0 .1 0 .1.1.2 1 1.7 2.5 3 4.4 3.8 1.8.7 3.9.9 5.8.4s3.6-1.6 4.8-3.2C17.4 12.9 18 11 18 9c0-1.6-.4-3.1-1.2-4.5zM9.5 1.1c1.2.1 2.4.4 3.4 1 1.1.6 2 1.4 2.6 2.5l-6 3.5v-7zM9 16.9c-1.3 0-2.6-.3-3.7-.9-1.1-.6-2.1-1.5-2.9-2.5l6.8-4 6.9-4c.6 1.2.9 2.6.8 3.9-.1 1.3-.5 2.7-1.2 3.8-.7 1.1-1.7 2.1-2.9 2.7-1.1.7-2.5 1-3.8 1z"/></symbol><symbol viewBox="0 0 14 14" id="svg-plus" xmlns="http://www.w3.org/2000/svg"><rect x="5.97192" width="2.05882" height="14" rx="1.02941"/><rect y="8.03027" width="2.05882" height="14" rx="1.02941" transform="rotate(-90 0 8.03027)"/></symbol><symbol viewBox="0 0 22 22" id="svg-pointmap" xmlns="http://www.w3.org/2000/svg"><path fill-rule="evenodd" clip-rule="evenodd" d="M7.70828 6.39835C8.48107 5.62555 9.5292 5.19141 10.6221 5.19141C11.1632 5.19141 11.6991 5.29799 12.199 5.50508C12.699 5.71217 13.1533 6.0157 13.5359 6.39835C13.9186 6.78099 14.2221 7.23526 14.4292 7.73521C14.6363 8.23517 14.7428 8.77101 14.7428 9.31216C14.7428 9.8533 14.6363 10.3891 14.4292 10.8891C14.2221 11.3891 13.9186 11.8433 13.5359 12.226C13.1533 12.6086 12.699 12.9121 12.199 13.1192C11.6991 13.3263 11.1632 13.4329 10.6221 13.4329C9.5292 13.4329 8.48107 12.9988 7.70828 12.226C6.93549 11.4532 6.50134 10.405 6.50134 9.31216C6.50134 8.21927 6.93549 7.17114 7.70828 6.39835ZM10.6221 7.19141C10.0596 7.19141 9.52021 7.41484 9.1225 7.81256C8.72478 8.21028 8.50134 8.7497 8.50134 9.31216C8.50134 9.87461 8.72478 10.414 9.1225 10.8118C9.52021 11.2095 10.0596 11.4329 10.6221 11.4329C10.9006 11.4329 11.1764 11.3781 11.4337 11.2715C11.691 11.1649 11.9248 11.0087 12.1217 10.8118C12.3186 10.6148 12.4748 10.381 12.5814 10.1237C12.688 9.86643 12.7428 9.59066 12.7428 9.31216C12.7428 9.03365 12.688 8.75788 12.5814 8.50058C12.4748 8.24328 12.3186 8.00949 12.1217 7.81256C11.9248 7.61563 11.691 7.45942 11.4337 7.35284C11.1764 7.24626 10.9006 7.19141 10.6221 7.19141Z"/><path fill-rule="evenodd" clip-rule="evenodd" d="M10.6292 2C7.30555 1.99776 4.08213 3.921 3.21931 7.71293C2.19301 12.2479 4.999 16.2124 7.70921 18.8244L7.70947 18.8247C8.49124 19.5787 9.53501 20 10.6211 20C11.7073 20 12.751 19.5787 13.5328 18.8247L13.5344 18.8232C16.2543 16.2113 19.0593 12.2567 18.0328 7.72236L18.0328 7.72231C17.1745 3.93013 13.9531 2.00225 10.6292 2ZM19.9835 7.28077C18.8813 2.4109 14.7059 0.00275699 10.6306 2.36601e-06C6.55508 -0.00275232 2.37684 2.3999 1.26903 7.26975L1.2688 7.27077C-0.00507823 12.898 3.51033 17.5553 6.32133 20.2645C7.47585 21.3779 9.01723 22 10.6211 22C12.2247 22 13.7658 21.3781 14.9202 20.2652C17.7415 17.5557 21.2575 12.9085 19.9835 7.28077Z"/></symbol><symbol viewBox="0 0 18 18" id="svg-portfel" xmlns="http://www.w3.org/2000/svg"><path d="M4.43923 17C3.70521 17 2.97119 17 2.23718 16.9982C1.13966 16.9956 0.302037 16.3434 0.0526813 15.2959C0.0403891 15.2447 0.0272178 15.1926 0.0131696 15.1414L0 15.0902V6.4257C0.00790211 6.35687 0.0105374 6.33127 0.0122935 6.31804C0.0128788 6.31039 0.0140476 6.30097 0.0158036 6.2898C0.187894 5.0684 1.29155 4.08527 2.52867 4.05262C2.87198 4.04379 3.24162 4.03938 3.72804 4.03938C3.91945 4.03938 4.11085 4.03938 4.30226 4.04026C4.49367 4.04026 4.68595 4.04115 4.87736 4.04115H5.32163C5.40416 4.04115 5.47089 3.97408 5.47089 3.89112V3.38544C5.47089 3.02802 5.47002 2.67766 5.47089 2.3273C5.47353 1.5348 5.97224 1.01765 6.74138 1.01059C7.50437 1.00353 8.26912 1 9.01455 1C9.75998 1 10.523 1.00353 11.2596 1.01059C12.027 1.01765 12.5248 1.53569 12.5275 2.32907C12.5275 2.5144 12.5275 2.69884 12.5275 2.88417V3.89024C12.5275 3.97319 12.5942 4.04026 12.6767 4.04026H12.8857C13.1017 4.04026 13.3177 4.04026 13.5346 4.04026C13.7505 4.04026 13.9665 4.03938 14.1825 4.03938C14.5838 4.03938 14.9095 4.04115 15.2072 4.04468C15.4258 4.04733 15.6813 4.05703 15.9175 4.11351C17.1774 4.41533 17.994 5.44964 17.9966 6.7487C18.0019 9.18533 18.001 11.7473 17.994 14.8122C17.994 15.0099 17.9641 15.2217 17.9071 15.4265C17.6454 16.3805 16.7964 16.9974 15.7445 16.9982C14.5689 16.9982 13.3923 16.9991 12.2167 16.9991H7.615H4.43923V17ZM0.923668 9.66189C0.894693 9.66189 0.865719 9.67071 0.841134 9.68748C0.799868 9.71572 0.774407 9.76249 0.774407 9.81192V14.6807C0.774407 15.6427 1.34248 16.2172 2.29425 16.2172H7.25589C10.069 16.2172 12.8813 16.2172 15.6945 16.2154C15.8385 16.2154 16.0088 16.2093 16.1739 16.1669C16.8289 15.9957 17.2205 15.4706 17.2222 14.7611C17.224 13.6341 17.224 12.5071 17.2231 11.381V9.8128C17.2231 9.76337 17.1985 9.71748 17.159 9.68924C17.1335 9.67159 17.1037 9.66277 17.0738 9.66277C17.0563 9.66277 17.0387 9.6663 17.022 9.67248C16.9439 9.7016 16.8675 9.73249 16.7929 9.76337C16.6383 9.82603 16.4926 9.88604 16.3442 9.92311C15.6075 10.1102 14.8568 10.2929 14.1307 10.4703C13.8296 10.5435 13.5284 10.6168 13.2273 10.6909C12.7066 10.8189 12.1859 10.9468 11.6574 11.0774L10.9734 11.246C10.9067 11.2628 10.8593 11.3228 10.8593 11.3916C10.8593 11.4428 10.8593 11.494 10.861 11.5443C10.8628 11.6511 10.8636 11.7517 10.8584 11.8523C10.8241 12.4921 10.379 12.9316 9.7512 12.9466C9.48165 12.9528 9.23142 12.9554 8.98645 12.9554C8.7292 12.9554 8.47809 12.9519 8.24014 12.9448C7.90474 12.9351 7.46135 12.8142 7.25062 12.2935C7.18038 12.1197 7.16634 11.9052 7.15316 11.6978C7.14965 11.6423 7.14614 11.5875 7.14175 11.5328C7.13121 11.3996 7.09082 11.2575 6.87747 11.2054L6.36207 11.081C5.55957 10.8877 4.72985 10.6883 3.91769 10.4764C3.62356 10.3997 3.3224 10.3317 3.03178 10.2655C2.34868 10.1102 1.64276 9.94959 0.982496 9.67336C0.964058 9.66542 0.944742 9.66189 0.925426 9.66189H0.923668ZM8.29283 9.97077C8.17429 9.97077 8.08035 10.0052 8.01274 10.0731C7.94601 10.1402 7.91264 10.2346 7.91264 10.352C7.91352 10.8303 7.91352 11.3095 7.91264 11.7879C7.91264 11.9061 7.94601 11.9997 8.01274 12.0667C8.07947 12.1347 8.17342 12.1682 8.29283 12.1682H9.70379C9.8232 12.1682 9.91803 12.1338 9.98475 12.0659C10.0515 11.9988 10.084 11.9044 10.0831 11.787C10.0813 11.6193 10.0822 11.4516 10.0831 11.2839V11.0695V10.8515C10.0831 10.6856 10.0831 10.5188 10.0831 10.3529C10.084 10.2346 10.0506 10.1411 9.98388 10.0731C9.91715 10.0052 9.82232 9.97077 9.70379 9.97077C9.46848 9.97077 9.23318 9.97077 8.99787 9.97077C8.76256 9.97077 8.52725 9.97077 8.29195 9.97077H8.29283ZM3.00807 4.82041C2.88427 4.82041 2.76047 4.82129 2.63667 4.82482C1.59008 4.85571 0.79021 5.6738 0.775284 6.72841C0.770015 7.06376 0.771771 7.39206 0.775284 7.75477C0.780552 8.48814 1.1941 9.00882 1.91143 9.18445C2.73149 9.38478 3.55068 9.58599 4.37074 9.7872L5.65264 10.1023C5.92834 10.1702 6.20403 10.2373 6.48061 10.3044L6.9363 10.4156C6.94771 10.4182 6.96 10.42 6.97142 10.42C7.03639 10.42 7.09522 10.3776 7.11453 10.3123C7.11804 10.3008 7.12156 10.2902 7.12419 10.2814C7.13122 10.2593 7.13912 10.2364 7.14263 10.209C7.23306 9.57717 7.66592 9.19592 8.30073 9.19062C8.50091 9.18886 8.70198 9.18798 8.90217 9.18798C9.14274 9.18798 9.38244 9.18886 9.62301 9.18974H9.6915C10.0032 9.19151 10.2569 9.27976 10.4685 9.46156C10.703 9.66277 10.8329 9.92841 10.8636 10.2717C10.8672 10.3114 10.8865 10.3485 10.9172 10.3741C10.9444 10.3961 10.9778 10.4085 11.012 10.4085C11.0173 10.4085 11.0217 10.4085 11.027 10.4085C11.041 10.4067 11.0533 10.4058 11.0647 10.405C11.0954 10.4032 11.127 10.4006 11.1613 10.3926L12.1605 10.1473C13.4907 9.82162 14.8208 9.49509 16.1502 9.16591C16.7911 9.00706 17.2003 8.49608 17.2169 7.83243C17.2275 7.43442 17.2266 7.03905 17.2152 6.65692C17.2038 6.26509 17.0756 5.9059 16.8359 5.58996C16.4469 5.0781 15.9017 4.81864 15.2159 4.81864C13.2352 4.82041 11.257 4.82129 9.27883 4.82129H3.4778C3.39966 4.82129 3.32064 4.82129 3.2425 4.82041C3.16348 4.82041 3.08446 4.82041 3.00544 4.82041H3.00807ZM9.00577 1.78897C8.26122 1.78897 7.51666 1.78897 6.77123 1.79073C6.41476 1.79073 6.24794 1.96018 6.24618 2.32289C6.24442 2.79592 6.2453 3.26895 6.24618 3.74197C6.24618 3.78257 6.25145 3.81964 6.25672 3.85582C6.25847 3.86994 6.26023 3.88406 6.26198 3.89906C6.27076 3.97496 6.33398 4.03232 6.41037 4.03232H11.6003C11.6828 4.03232 11.7496 3.96525 11.7496 3.88229V3.41633C11.7496 3.04479 11.7496 2.68119 11.7496 2.31671C11.7478 1.95841 11.5792 1.79073 11.2192 1.78985C10.4817 1.78897 9.74418 1.78809 9.00665 1.78809L9.00577 1.78897Z"/></symbol><symbol viewBox="0 0 18 18" xml:space="preserve" id="svg-print" xmlns="http://www.w3.org/2000/svg"><path d="M3.2.6c0-.3.3-.6.6-.6h10.4c.3 0 .6.3.6.6v4.8h2.6c.3 0 .6.2.6.6v9.2c0 .3-.3.6-.6.6h-2.9v1.1c0 .6-.5 1.1-1.1 1.1H4.6c-.6 0-1.1-.5-1.1-1.1v-1.1H.6c-.3 0-.6-.3-.6-.6V6c0-.3.3-.6.6-.6h2.6V.6zm1 4.8h9.6V1H4.2v4.4zm-.7 9.3v-4.1c0-.6.5-1.1 1.1-1.1h8.9c.6 0 1.1.5 1.1 1.1v4.1H17V6.4H1v8.4h2.5zm1.1-4.2c-.1 0-.1 0-.1.1v6.2c0 .1 0 .1.1.1h8.9c.1 0 .1 0 .1-.1v-6.2c0-.1 0-.1-.1-.1H4.6zm2 2.2c0-.3.2-.5.5-.5H11c.3 0 .5.2.5.5s-.2.5-.5.5H7.1c-.3 0-.5-.3-.5-.5zm.5 1.6c-.3 0-.5.2-.5.5s.2.5.5.5H11c.3 0 .5-.2.5-.5s-.2-.5-.5-.5H7.1z"/></symbol><symbol viewBox="0 0 18 18" id="svg-question" xmlns="http://www.w3.org/2000/svg"><path fill-rule="evenodd" clip-rule="evenodd" d="M17 1H1V17H17V1ZM0 0V18H18V0H0Z"/><path d="M8.18669 10.8761C8.17869 10.8361 8.17469 10.7921 8.17469 10.7441C8.17469 10.6961 8.17469 10.6521 8.17469 10.6121C8.17469 10.2761 8.22269 9.98005 8.31869 9.72405C8.42269 9.46805 8.54669 9.23605 8.69069 9.02805C8.84269 8.81205 9.00269 8.61205 9.17069 8.42805C9.34669 8.24405 9.50669 8.06005 9.65069 7.87605C9.80269 7.68405 9.92669 7.48405 10.0227 7.27605C10.1267 7.06005 10.1787 6.81605 10.1787 6.54405C10.1787 6.17605 10.0707 5.87605 9.85469 5.64405C9.64669 5.41205 9.29469 5.29605 8.79869 5.29605C8.51069 5.29605 8.21869 5.34805 7.92269 5.45205C7.62669 5.54805 7.37069 5.66405 7.15469 5.80005L6.83069 5.05605C7.13469 4.87205 7.45469 4.72805 7.79069 4.62405C8.12669 4.51205 8.54269 4.45605 9.03869 4.45605C9.39069 4.45605 9.69869 4.50805 9.96269 4.61205C10.2347 4.70805 10.4587 4.84405 10.6347 5.02005C10.8187 5.19605 10.9547 5.40405 11.0427 5.64405C11.1307 5.88405 11.1747 6.14005 11.1747 6.41205C11.1747 6.77205 11.1187 7.08805 11.0067 7.36005C10.9027 7.62405 10.7667 7.86805 10.5987 8.09205C10.4387 8.30805 10.2627 8.51205 10.0707 8.70405C9.88669 8.89605 9.71069 9.10005 9.54269 9.31605C9.38269 9.52405 9.24669 9.75205 9.13469 10.0001C9.03069 10.2481 8.97869 10.5401 8.97869 10.8761H8.18669ZM7.94669 12.4481C7.94669 12.2321 8.00669 12.0641 8.12669 11.9441C8.25469 11.8161 8.42269 11.7521 8.63069 11.7521C8.84669 11.7521 9.01869 11.8161 9.14669 11.9441C9.27469 12.0641 9.33869 12.2321 9.33869 12.4481C9.33869 12.6561 9.27469 12.8241 9.14669 12.9521C9.01869 13.0801 8.84669 13.1441 8.63069 13.1441C8.42269 13.1441 8.25469 13.0801 8.12669 12.9521C8.00669 12.8241 7.94669 12.6561 7.94669 12.4481Z"/></symbol><symbol viewBox="0 0 18 18" id="svg-screpka" xmlns="http://www.w3.org/2000/svg"><path d="M12.463 0.0174644C13.8701 0.0785942 15.0057 0.751023 15.6805 2.14828C16.347 3.51933 16.24 4.88165 15.4418 6.17411C15.3842 6.26144 15.3184 6.34877 15.2443 6.42736C12.9155 8.89875 10.5868 11.3701 8.25799 13.8415C7.38573 14.7672 6.06088 14.8545 5.10633 14.0599C4.0448 13.1691 3.89668 11.4487 4.843 10.4183C6.28306 8.84636 7.75603 7.30938 9.22077 5.76367C9.47587 5.50168 9.84617 5.51042 10.0848 5.76367C10.3234 6.01692 10.3317 6.4099 10.0848 6.68061C9.66513 7.13472 9.24546 7.5801 8.81756 8.02547C7.81363 9.09088 6.80148 10.165 5.79756 11.2304C5.48486 11.571 5.36965 11.9727 5.49309 12.4268C5.61652 12.8809 5.90453 13.1604 6.33243 13.2652C6.75211 13.3612 7.11418 13.2302 7.41865 12.9071C8.27445 11.9989 9.13026 11.0907 9.99429 10.1737C11.459 8.6193 12.9155 7.07359 14.3803 5.51915C15.3431 4.49741 15.3431 2.85563 14.3803 1.84263C13.434 0.838351 11.8869 0.838351 10.9324 1.84263C8.35674 4.56727 5.77287 7.29191 3.21368 10.034C2.16038 11.1693 1.85592 12.5578 2.32496 14.0686C2.79401 15.5794 3.82262 16.4876 5.30382 16.7408C6.55461 16.9592 7.64906 16.5487 8.55423 15.5968C10.8007 13.2215 13.039 10.8374 15.2772 8.46211C15.3019 8.43591 15.3348 8.40098 15.3595 8.37478C15.6311 8.09533 16.0096 8.0866 16.2565 8.35732C16.4951 8.6193 16.4869 9.01228 16.2236 9.29173C15.5077 10.0602 14.7835 10.82 14.0594 11.5885C12.5452 13.1953 11.0311 14.8021 9.50879 16.4177C8.48017 17.5093 7.23761 18.0333 5.7811 17.9984C3.47701 17.946 1.41156 16.0247 1.06594 13.6057C0.810846 11.7893 1.29635 10.2261 2.51423 8.92495C4.96644 6.31384 7.42688 3.72018 9.87909 1.10907C10.5785 0.358045 11.4343 0.0349313 12.463 0V0.0174644Z"/></symbol><symbol viewBox="0 0 22 22" id="svg-search" xmlns="http://www.w3.org/2000/svg"><path fill-rule="evenodd" clip-rule="evenodd" d="M2.55982 2.54404C4.19804 0.914509 6.41882 5.96046e-08 8.73333 0C9.87947 0 11.0145 0.224545 12.0737 0.660946C13.1329 1.09735 14.0956 1.73714 14.9068 2.54404C15.7181 3.35095 16.3618 4.30918 16.8012 5.36417C17.2405 6.41916 17.4667 7.55008 17.4667 8.69231C17.4667 9.83454 17.2405 10.9655 16.8012 12.0205C16.4901 12.7674 16.0766 13.4658 15.5738 14.0963L21.7107 20.2965C22.0992 20.689 22.096 21.3222 21.7035 21.7107C21.311 22.0992 20.6778 22.096 20.2893 21.7035L14.1554 15.5065C13.5227 16.0052 12.8223 16.4152 12.0737 16.7237C11.0145 17.1601 9.87947 17.3846 8.73333 17.3846C6.41882 17.3846 4.19804 16.4701 2.55982 14.8406C0.921416 13.2109 0 10.9994 0 8.69231C0 6.38524 0.921416 4.17375 2.55982 2.54404ZM8.73333 2C6.94583 2 5.23261 2.70637 3.97026 3.96201C2.7081 5.21747 2 6.91912 2 8.69231C2 10.4655 2.7081 12.1671 3.97026 13.4226C5.23261 14.6783 6.94583 15.3846 8.73333 15.3846C9.6183 15.3846 10.4945 15.2112 11.3118 14.8745C12.1291 14.5377 12.8714 14.0443 13.4964 13.4226C14.1214 12.8009 14.6169 12.0632 14.9548 11.2516C15.2928 10.44 15.4667 9.57042 15.4667 8.69231C15.4667 7.8142 15.2928 6.94457 14.9548 6.13301C14.6169 5.32145 14.1214 4.58369 13.4964 3.96201C12.8714 3.34032 12.1291 2.84688 11.3118 2.51014C10.4945 2.17339 9.6183 2 8.73333 2Z"/></symbol><symbol id="svg-settings" viewBox="0 0 26 25" xml:space="preserve" xmlns="http://www.w3.org/2000/svg"><path d="M10,9.7c0.8-0.8,1.8-1.2,2.9-1.2s2.1,0.4,2.9,1.2c0.8,0.8,1.2,1.8,1.2,2.9s-0.4,2.1-1.2,2.9  c-0.8,0.8-1.8,1.2-2.9,1.2s-2.1-0.4-2.9-1.2c-0.8-0.8-1.2-1.8-1.2-2.9S9.2,10.4,10,9.7z M12.9,9.5c-0.8,0-1.6,0.3-2.2,0.9  c-0.6,0.6-0.9,1.4-0.9,2.2s0.3,1.6,0.9,2.2c0.6,0.6,1.4,0.9,2.2,0.9s1.6-0.3,2.2-0.9c0.6-0.6,0.9-1.4,0.9-2.2s-0.3-1.6-0.9-2.2  C14.5,9.8,13.7,9.5,12.9,9.5z"/><path d="M9.1,24.4c-0.4,0-0.9-0.1-1.2-0.3l-2.1-1.2c-0.6-0.4-1.1-1-1.3-1.7c-0.2-0.7-0.1-1.5,0.3-2.1  c0.4-0.8,0.5-1.4,0.2-1.9S4,16.4,3.2,16.4c-1.5,0-2.8-1.2-2.8-2.8v-2.1c0-1.5,1.2-2.8,2.8-2.8C4,8.7,4.7,8.4,5,8  C5.2,7.5,5.2,6.8,4.7,6C4.3,5.4,4.3,4.7,4.4,3.9s0.7-1.3,1.3-1.7l2.1-1.2c0.6-0.3,1.2-0.4,1.9-0.3C10.3,1,10.9,1.4,11.2,2l0.1,0.2  c0.4,0.7,1,1.2,1.5,1.2c0,0,0,0,0,0c0.6,0,1.1-0.4,1.5-1.2L14.6,2c0.7-1.2,2.2-1.6,3.4-0.9l2.1,1.2c0.6,0.4,1.1,1,1.3,1.7  c0.2,0.7,0.1,1.5-0.3,2.1c-0.4,0.7-0.5,1.4-0.2,1.9c0.3,0.5,0.9,0.8,1.8,0.8c1.5,0,2.8,1.2,2.8,2.8v2.1c0,1.5-1.2,2.8-2.8,2.8  c-0.9,0-1.5,0.3-1.8,0.8c-0.3,0.5-0.2,1.2,0.2,1.9c0.8,1.3,0.3,3-1,3.8L18,24c-1.2,0.7-2.7,0.3-3.4-0.9l-0.1-0.2  c-0.4-0.8-1-1.2-1.5-1.2c0,0,0,0,0,0c-0.6,0-1.1,0.4-1.5,1.2l-0.1,0.2c-0.3,0.6-0.9,1-1.5,1.2C9.5,24.3,9.3,24.4,9.1,24.4z M9.1,1.7  c-0.3,0-0.5,0.1-0.7,0.2L6.2,3.1C5.8,3.4,5.5,3.7,5.4,4.2C5.3,4.7,5.3,5.1,5.6,5.5c0.6,1.1,0.7,2.1,0.2,2.9C5.4,9.3,4.4,9.7,3.2,9.7  c-1,0-1.8,0.8-1.8,1.8v2.1c0,1,0.8,1.8,1.8,1.8c1.2,0,2.2,0.4,2.6,1.3c0.5,0.8,0.4,1.8-0.2,2.9c-0.2,0.4-0.3,0.9-0.2,1.3  c0.1,0.5,0.4,0.8,0.8,1.1l2.1,1.2c0.3,0.2,0.7,0.3,1.1,0.2c0.4-0.1,0.7-0.4,0.9-0.7l0.1-0.2c0.6-1.1,1.5-1.6,2.4-1.7  c0.9,0,1.8,0.6,2.4,1.7l0.1,0.2c0.4,0.7,1.3,1,2,0.5l2.1-1.2c0.8-0.5,1.1-1.6,0.7-2.4c-0.6-1.1-0.7-2.1-0.2-2.9  c0.5-0.8,1.4-1.3,2.6-1.3c1,0,1.8-0.8,1.8-1.8v-2.1c0-1-0.8-1.8-1.8-1.8c-1.2,0-2.2-0.4-2.6-1.3c-0.5-0.8-0.4-1.8,0.2-2.9  c0.2-0.4,0.3-0.9,0.2-1.3c-0.1-0.5-0.4-0.8-0.8-1.1l-2.1-1.2c-0.7-0.4-1.6-0.2-2.1,0.5l-0.1,0.2c-0.6,1.1-1.5,1.7-2.4,1.7  c-0.9,0-1.8-0.6-2.4-1.7l-0.1-0.2c-0.2-0.3-0.5-0.6-0.9-0.7C9.3,1.7,9.2,1.7,9.1,1.7z"/></symbol><symbol id="svg-settings-lines" viewBox="0 0 18 18" xml:space="preserve" xmlns="http://www.w3.org/2000/svg"><style>.amst0{fill-rule:evenodd;clip-rule:evenodd}</style><path class="amst0" d="M4.445 1.274c-1.086.146-1.754.426-2.25.922-.495.495-.774 1.163-.92 2.25-.149 1.103-.15 2.55-.15 4.554 0 2.005.001 3.452.15 4.555.145 1.086.425 1.754.92 2.25.496.495 1.164.775 2.25.92 1.103.149 2.55.15 4.555.15s3.452-.001 4.555-.15c1.086-.145 1.754-.425 2.25-.92.495-.496.775-1.164.92-2.25.149-1.104.15-2.55.15-4.555s-.001-3.452-.15-4.555c-.145-1.086-.425-1.754-.92-2.25-.496-.495-1.164-.774-2.25-.92-1.104-.149-2.55-.15-4.555-.15s-3.452.001-4.555.15zM8.957 0h.086c1.952 0 3.475 0 4.661.16 1.211.162 2.156.5 2.896 1.24.74.74 1.078 1.684 1.24 2.896.16 1.186.16 2.708.16 4.66v.087c0 1.952 0 3.475-.16 4.661-.162 1.211-.5 2.156-1.24 2.896-.74.74-1.684 1.078-2.896 1.24-1.186.16-2.708.16-4.66.16h-.087c-1.952 0-3.475 0-4.661-.16-1.212-.162-2.156-.5-2.896-1.24-.74-.74-1.078-1.684-1.24-2.896C0 12.518 0 10.996 0 9.044v-.087c0-1.952 0-3.475.16-4.661C.321 3.085.66 2.14 1.4 1.4 2.14.66 3.084.322 4.296.16 5.481 0 7.003 0 8.956 0z"/><path class="amst0" d="M5.893 5.122a.77.77 0 1 0 0 1.539.77.77 0 0 0 0-1.54zm-1.34-.57a1.895 1.895 0 0 1 3.15.777h5.74a.563.563 0 0 1 0 1.125h-5.74a1.895 1.895 0 1 1-3.15-1.902zm6.217 6.217a1.894 1.894 0 1 1-.47 1.902H4.56a.562.562 0 1 1 0-1.125h5.74c.091-.29.25-.558.47-.777zm1.34.57a.77.77 0 1 0 0 1.54.77.77 0 0 0 0-1.54z"/></symbol><symbol viewBox="0 0 14 14" id="svg-shevron-bottom-sm" xmlns="http://www.w3.org/2000/svg"><path fill-rule="evenodd" clip-rule="evenodd" d="M0.227806 3.02761C0.531547 2.72387 1.02401 2.72387 1.32775 3.02761L7 8.69986L12.6723 3.02761C12.976 2.72387 13.4685 2.72387 13.7722 3.02761C14.0759 3.33135 14.0759 3.82381 13.7722 4.12755L7.54997 10.3498C7.24623 10.6535 6.75377 10.6535 6.45003 10.3498L0.227806 4.12755C-0.0759353 3.82381 -0.0759353 3.33135 0.227806 3.02761Z"/></symbol><symbol viewBox="0 0 14 14" id="svg-shevron-left-xs" xmlns="http://www.w3.org/2000/svg"><path fill-rule="evenodd" clip-rule="evenodd" d="M10.5622,0.2556c0.5031,0.4025,0.5847,1.1367,0.1822,1.6398L6.6608,6.9999l4.0836,5.1045  c0.4025,0.5031,0.3209,1.2373-0.1822,1.6398c-0.5031,0.4025-1.2373,0.3209-1.6398-0.1822L4.2557,7.7287  c-0.3409-0.4261-0.3409-1.0315,0-1.4576l4.6667-5.8333C9.3249-0.0653,10.059-0.1469,10.5622,0.2556z"/></symbol><symbol viewBox="0 0 14 14" id="svg-shevron-right-xs" xmlns="http://www.w3.org/2000/svg"><path fill-rule="evenodd" clip-rule="evenodd" d="M4.4379 13.7443C3.93476 13.3418 3.85318 12.6076 4.2557 12.1045L8.33931 6.99996L4.2557 1.89543C3.85318 1.39229 3.93476 0.658122 4.4379 0.25561C4.94104 -0.146901 5.67521 -0.0653258 6.07772 0.437813L10.7444 6.27115C11.0853 6.69723 11.0853 7.30268 10.7444 7.72877L6.07772 13.5621C5.67521 14.0652 4.94104 14.1468 4.4379 13.7443Z"/></symbol><symbol viewBox="0 0 22 22" id="svg-sun" xmlns="http://www.w3.org/2000/svg"><g clip-path="url(#ahclip0_791_1345)"><path d="M4.004 16.5L3.223 17.281C3.01812 17.4871 2.90313 17.7659 2.90313 18.0565C2.90313 18.3471 3.01812 18.6259 3.223 18.832C3.4291 19.0369 3.7079 19.1519 3.9985 19.1519C4.2891 19.1519 4.5679 19.0369 4.774 18.832L5.555 18.051C5.73521 17.8406 5.82938 17.5699 5.81868 17.293C5.80799 17.0162 5.69322 16.7536 5.49732 16.5577C5.30142 16.3618 5.0388 16.247 4.76196 16.2363C4.48512 16.2256 4.21443 16.3198 4.004 16.5ZM3.3 11C3.3 10.7083 3.18411 10.4285 2.97782 10.2222C2.77153 10.0159 2.49174 9.9 2.2 9.9H1.1C0.808262 9.9 0.528473 10.0159 0.322182 10.2222C0.115892 10.4285 0 10.7083 0 11C0 11.2917 0.115892 11.5715 0.322182 11.7778C0.528473 11.9841 0.808262 12.1 1.1 12.1H2.2C2.49174 12.1 2.77153 11.9841 2.97782 11.7778C3.18411 11.5715 3.3 11.2917 3.3 11ZM11 3.3C11.2917 3.3 11.5715 3.18411 11.7778 2.97782C11.9841 2.77153 12.1 2.49174 12.1 2.2V1.1C12.1 0.808262 11.9841 0.528473 11.7778 0.322182C11.5715 0.115892 11.2917 0 11 0C10.7083 0 10.4285 0.115892 10.2222 0.322182C10.0159 0.528473 9.9 0.808262 9.9 1.1V2.2C9.9 2.49174 10.0159 2.77153 10.2222 2.97782C10.4285 3.18411 10.7083 3.3 11 3.3ZM4.004 5.555C4.20889 5.75822 4.48543 5.87279 4.774 5.874C4.91877 5.87484 5.06228 5.84709 5.1963 5.79235C5.33032 5.73761 5.45222 5.65695 5.555 5.555C5.75988 5.3489 5.87487 5.0701 5.87487 4.7795C5.87487 4.4889 5.75988 4.2101 5.555 4.004L4.774 3.223C4.56357 3.04279 4.29289 2.94862 4.01604 2.95932C3.7392 2.97001 3.47658 3.08478 3.28068 3.28068C3.08478 3.47658 2.97001 3.7392 2.95932 4.01604C2.94862 4.29289 3.04279 4.56357 3.223 4.774L4.004 5.555ZM17.204 5.874C17.4926 5.87279 17.7691 5.75822 17.974 5.555L18.755 4.774C18.8701 4.67539 18.9637 4.55404 19.0297 4.41757C19.0957 4.2811 19.1328 4.13245 19.1387 3.98096C19.1445 3.82947 19.119 3.6784 19.0637 3.53725C19.0084 3.39609 18.9245 3.26788 18.8173 3.16068C18.7101 3.05348 18.5819 2.9696 18.4408 2.9143C18.2996 2.859 18.1485 2.83347 17.997 2.83932C17.8456 2.84517 17.6969 2.88228 17.5604 2.9483C17.424 3.01433 17.3026 3.10785 17.204 3.223L16.5 4.004C16.2951 4.2101 16.1801 4.4889 16.1801 4.7795C16.1801 5.0701 16.2951 5.3489 16.5 5.555C16.6939 5.7479 16.9528 5.86163 17.226 5.874H17.204ZM20.9 9.9H19.8C19.5083 9.9 19.2285 10.0159 19.0222 10.2222C18.8159 10.4285 18.7 10.7083 18.7 11C18.7 11.2917 18.8159 11.5715 19.0222 11.7778C19.2285 11.9841 19.5083 12.1 19.8 12.1H20.9C21.1917 12.1 21.4715 11.9841 21.6778 11.7778C21.8841 11.5715 22 11.2917 22 11C22 10.7083 21.8841 10.4285 21.6778 10.2222C21.4715 10.0159 21.1917 9.9 20.9 9.9ZM11 18.7C10.7083 18.7 10.4285 18.8159 10.2222 19.0222C10.0159 19.2285 9.9 19.5083 9.9 19.8V20.9C9.9 21.1917 10.0159 21.4715 10.2222 21.6778C10.4285 21.8841 10.7083 22 11 22C11.2917 22 11.5715 21.8841 11.7778 21.6778C11.9841 21.4715 12.1 21.1917 12.1 20.9V19.8C12.1 19.5083 11.9841 19.2285 11.7778 19.0222C11.5715 18.8159 11.2917 18.7 11 18.7ZM17.996 16.5C17.787 16.3838 17.5458 16.3388 17.309 16.3719C17.0722 16.405 16.8526 16.5144 16.6835 16.6835C16.5144 16.8526 16.405 17.0722 16.3719 17.309C16.3388 17.5458 16.3838 17.787 16.5 17.996L17.281 18.777C17.4871 18.9819 17.7659 19.0969 18.0565 19.0969C18.3471 19.0969 18.6259 18.9819 18.832 18.777C19.0369 18.5709 19.1519 18.2921 19.1519 18.0015C19.1519 17.7109 19.0369 17.4321 18.832 17.226L17.996 16.5ZM11 4.95C9.80342 4.95 8.63372 5.30483 7.6388 5.96961C6.64388 6.63439 5.86844 7.57927 5.41053 8.68477C4.95262 9.79026 4.83281 11.0067 5.06625 12.1803C5.29969 13.3539 5.8759 14.4319 6.722 15.278C7.56811 16.1241 8.64612 16.7003 9.8197 16.9338C10.9933 17.1672 12.2097 17.0474 13.3152 16.5895C14.4207 16.1316 15.3656 15.3561 16.0304 14.3612C16.6952 13.3663 17.05 12.1966 17.05 11C17.0471 9.39633 16.4087 7.85918 15.2748 6.72522C14.1408 5.59125 12.6037 4.95291 11 4.95ZM11 14.85C10.2385 14.85 9.49418 14.6242 8.86105 14.2012C8.22793 13.7781 7.73446 13.1768 7.44306 12.4733C7.15167 11.7698 7.07542 10.9957 7.22398 10.2489C7.37253 9.50208 7.73921 8.81607 8.27764 8.27764C8.81607 7.73921 9.50208 7.37253 10.2489 7.22398C10.9957 7.07542 11.7698 7.15167 12.4733 7.44306C13.1768 7.73446 13.7781 8.22793 14.2012 8.86105C14.6242 9.49418 14.85 10.2385 14.85 11C14.85 12.0211 14.4444 13.0003 13.7224 13.7224C13.0003 14.4444 12.0211 14.85 11 14.85Z"/></g><defs><clipPath id="ahclip0_791_1345"><rect width="22" height="22"/></clipPath></defs></symbol><symbol viewBox="0 0 22 22" id="svg-tasklist" xmlns="http://www.w3.org/2000/svg"><g clip-path="url(#agclip0_182_1205)"><path fill-rule="evenodd" clip-rule="evenodd" d="M1.91789 1.91789C3.32218 0.513602 5.40137 0 8 0H14C16.5986 0 18.6778 0.513602 20.0821 1.91789C21.4864 3.32218 22 5.40137 22 8V14C22 16.5986 21.4864 18.6778 20.0821 20.0821C18.6778 21.4864 16.5986 22 14 22H8C5.40137 22 3.32218 21.4864 1.91789 20.0821C0.513602 18.6778 0 16.5986 0 14V8C0 5.40137 0.513602 3.32218 1.91789 1.91789ZM3.33211 3.33211C2.4864 4.17782 2 5.59863 2 8V14C2 16.4014 2.4864 17.8222 3.33211 18.6679C4.17782 19.5136 5.59863 20 8 20H14C16.4014 20 17.8222 19.5136 18.6679 18.6679C19.5136 17.8222 20 16.4014 20 14V8C20 5.59863 19.5136 4.17782 18.6679 3.33211C17.8222 2.4864 16.4014 2 14 2H8C5.59863 2 4.17782 2.4864 3.33211 3.33211Z"/><path fill-rule="evenodd" clip-rule="evenodd" d="M12.5 5C11.6716 5 11 5.67157 11 6.5C11 7.32843 11.6716 8 12.5 8H15.5C16.3284 8 17 7.32843 17 6.5C17 5.67157 16.3284 5 15.5 5H12.5Z"/><path fill-rule="evenodd" clip-rule="evenodd" d="M9.60006 11.2001C10.0419 11.5314 10.1314 12.1582 9.80006 12.6001L7.55006 15.6001C7.3612 15.8519 7.06482 16.0001 6.75006 16.0001C6.4353 16.0001 6.13891 15.8519 5.95006 15.6001L5.20006 14.6001C4.86869 14.1582 4.95823 13.5314 5.40006 13.2001C5.8197 12.8853 6.40621 12.9503 6.74797 13.3362L8.20006 11.4001C8.53143 10.9582 9.15823 10.8687 9.60006 11.2001Z"/><path fill-rule="evenodd" clip-rule="evenodd" d="M9.60006 4.20006C10.0419 4.53143 10.1314 5.15823 9.80006 5.60006L7.55006 8.60006C7.3612 8.85186 7.06482 9.00006 6.75006 9.00006C6.4353 9.00006 6.13891 8.85186 5.95006 8.60006L5.20006 7.60006C4.86869 7.15823 4.95823 6.53143 5.40006 6.20006C5.8197 5.88533 6.40621 5.9503 6.74797 6.33618L8.20006 4.40006C8.53143 3.95823 9.15823 3.86869 9.60006 4.20006Z"/><path fill-rule="evenodd" clip-rule="evenodd" d="M12.5 12C11.6716 12 11 12.6716 11 13.5C11 14.3284 11.6716 15 12.5 15H15.5C16.3284 15 17 14.3284 17 13.5C17 12.6716 16.3284 12 15.5 12H12.5Z"/></g><defs><clipPath id="agclip0_182_1205"><rect width="22" height="22"/></clipPath></defs></symbol><symbol viewBox="0 0 24 24" id="svg-theme-setting" xmlns="http://www.w3.org/2000/svg"><path fill-rule="evenodd" clip-rule="evenodd" d="M23 6.80318C23.0054 4.87778 22.4243 3.45869 21.4627 2.51931C20.4978 1.57662 19.0297 1 17.0365 1H6.97547C4.98242 1 3.51398 1.57654 2.54728 2.51975C1.58374 3.45988 1 4.87994 1 6.806V16.6109C1 18.5435 1.58419 19.9665 2.54773 20.9078C3.51429 21.8521 4.98244 22.4286 6.97547 22.4286H17.0245C19.0175 22.4286 20.486 21.852 21.4527 20.9088C22.4162 19.9687 23 18.5486 23 16.6226V6.80318ZM6.97547 0H17.0365C21.4067 0 24.012 2.542 24 6.806V16.6226C24 20.8866 21.3947 23.4286 17.0245 23.4286H6.97547C2.6053 23.4286 0 20.8866 0 16.6109V6.806C0 2.542 2.6053 0 6.97547 0Z"/><path fill-rule="evenodd" clip-rule="evenodd" d="M16.6334 6.38234C15.5593 6.81238 14.2642 7.58217 13.0441 8.48663C11.8219 9.3926 10.7064 10.4103 9.98218 11.3168C9.98197 11.317 9.98176 11.3173 9.98154 11.3176L9.23318 12.2626C9.68863 12.3978 10.1176 12.6514 10.4805 13.0143C10.8342 13.368 11.0786 13.7732 11.2116 14.2123L12.1412 13.4668C13.9764 11.9952 16.1986 8.99039 17.074 6.8075L17.076 6.80243C17.1297 6.67277 17.0967 6.54982 17.0007 6.45639L16.9911 6.44696C16.9178 6.37171 16.793 6.3246 16.6334 6.38234ZM8.28691 11.8468L9.2002 10.6935C9.99591 9.69727 11.1836 8.62098 12.4486 7.68328C13.7136 6.74555 15.0876 5.92301 16.2686 5.45121L16.2794 5.44692C16.8103 5.24892 17.3528 5.38823 17.7032 5.74463C18.0512 6.08693 18.2276 6.63193 18.0011 7.18226C17.0614 9.52354 14.7365 12.6675 12.7668 14.2469L11.6063 15.1777C11.5995 15.1831 11.5926 15.1883 11.5856 15.1934C11.4266 15.3079 11.2395 15.4306 11.0167 15.5181C10.8628 15.5786 10.689 15.559 10.5523 15.4659C10.4157 15.3728 10.3339 15.2181 10.3339 15.0527C10.3339 14.963 10.3288 14.8729 10.3165 14.7949L10.3144 14.7819C10.2646 14.4012 10.0938 14.0418 9.77342 13.7214C9.45326 13.4013 9.072 13.2185 8.69048 13.1651C8.66133 13.1636 8.63587 13.1621 8.6132 13.1608C8.52994 13.1559 8.48442 13.1533 8.43294 13.1584C8.26254 13.1755 8.09528 13.1041 7.98965 12.9694C7.88401 12.8346 7.8547 12.6551 7.91197 12.4937C7.99611 12.2566 8.12509 12.0343 8.28691 11.8468Z"/><path fill-rule="evenodd" clip-rule="evenodd" d="M10.3323 9.66406C10.3323 9.38792 10.5562 9.16406 10.8323 9.16406C12.6461 9.16406 14.1189 10.6368 14.1189 12.4506C14.1189 12.7267 13.895 12.9506 13.6189 12.9506C13.3427 12.9506 13.1189 12.7267 13.1189 12.4506C13.1189 11.1891 12.0938 10.1641 10.8323 10.1641C10.5562 10.1641 10.3323 9.9402 10.3323 9.66406ZM8.69465 13.1656C8.58898 13.1602 8.49594 13.1567 8.41246 13.1608L8.39779 13.1614C7.47882 13.1803 6.63332 13.84 6.52215 14.8544L6.36308 16.3037L6.36264 16.3076C6.30617 16.7876 6.71211 17.1894 7.18309 17.1367L8.62786 16.9781C9.10366 16.9146 9.4877 16.7154 9.76484 16.4387C10.1358 16.0625 10.3323 15.5712 10.3323 15.0533C10.3323 14.9947 10.329 14.9481 10.3246 14.8872C10.3221 14.8526 10.3192 14.8134 10.3165 14.7648C10.2637 14.3906 10.0932 14.0374 9.77772 13.722L9.77514 13.7194C9.45825 13.3978 9.07909 13.2193 8.69465 13.1656ZM8.36998 12.1617C8.51444 12.155 8.65922 12.1624 8.76724 12.168C8.77991 12.1687 8.79255 12.1699 8.80513 12.1715C9.41555 12.2505 10.007 12.5305 10.4862 13.0162C10.9544 13.4849 11.2307 14.0441 11.3104 14.6526C11.3121 14.6654 11.3133 14.6783 11.314 14.6912C11.315 14.7117 11.3169 14.7385 11.319 14.7693C11.3247 14.8511 11.3323 14.9608 11.3323 15.0533C11.3323 15.8309 11.0344 16.5763 10.4753 17.1425L10.473 17.1447C10.0325 17.5853 9.44074 17.88 8.75303 17.9703L8.7425 17.9717L7.29433 18.1305C7.29424 18.1305 7.29442 18.1305 7.29433 18.1305C6.18728 18.2543 5.23864 17.3142 5.36924 16.1929L5.5281 14.7455C5.5281 14.7455 5.52811 14.7455 5.5281 14.7455C5.69944 13.1824 7.0058 12.1932 8.36998 12.1617Z"/></symbol><symbol viewBox="0 0 18 18" id="svg-trash" xmlns="http://www.w3.org/2000/svg"><path d="M5.05917 17.997C4.94246 17.9645 4.82426 17.9365 4.70902 17.901C3.84914 17.6351 3.24487 16.824 3.20202 15.8799C3.19759 15.7809 3.19759 15.6804 3.19759 15.5814C3.19759 12.2439 3.19611 8.90631 3.20202 5.56875C3.20202 5.40475 3.15031 5.33975 3.00404 5.28508C2.34806 5.0413 1.9196 4.30849 2.01268 3.61556C2.11314 2.8665 2.71299 2.25484 3.43841 2.22085C4.15645 2.18687 4.87745 2.20017 5.59844 2.19278C5.64572 2.19278 5.69152 2.19278 5.75358 2.19278C5.76392 1.96082 5.76983 1.73477 5.78608 1.5102C5.84665 0.684307 6.54253 0.0150236 7.42161 0.00911379C8.6804 0.000249099 9.94066 -0.00713864 11.1995 0.0120682C12.1701 0.0268427 12.832 0.74045 12.8512 1.74216C12.8542 1.88252 12.8512 2.02288 12.8512 2.18539C12.9207 2.18835 12.9813 2.19426 13.0433 2.19426C13.6697 2.19426 14.2962 2.18835 14.9226 2.19574C15.6658 2.2046 16.211 2.5326 16.5035 3.23291C16.83 4.013 16.4148 4.9822 15.6229 5.28213C15.4693 5.33975 15.4176 5.41214 15.4176 5.58057C15.4235 8.92995 15.4205 12.2793 15.422 15.6287C15.422 16.3261 15.227 16.9436 14.7084 17.4356C14.4114 17.7163 14.0598 17.8907 13.6579 17.966C13.6254 17.9719 13.5944 17.9882 13.5634 18H5.0577L5.05917 17.997ZM4.03974 5.40771V5.59239C4.03974 8.94177 4.03974 12.2926 4.03974 15.642C4.03974 15.7705 4.0486 15.9005 4.06928 16.0261C4.17566 16.6821 4.68538 17.149 5.3325 17.1505C7.98009 17.1564 10.6277 17.1549 13.2753 17.1505C13.7067 17.1505 14.0524 16.9643 14.305 16.6097C14.5148 16.3142 14.5769 15.9803 14.5769 15.6287C14.5769 12.2852 14.5769 8.94029 14.5769 5.59682C14.5769 5.53477 14.571 5.47272 14.568 5.40623H4.03974V5.40771ZM9.31275 4.55522C11.1507 4.55522 12.9901 4.55522 14.8281 4.55522C14.9152 4.55522 15.0039 4.55374 15.091 4.5434C15.5003 4.50056 15.7899 4.14745 15.7559 3.73967C15.719 3.29496 15.3954 3.0364 14.8724 3.0364C11.1655 3.0364 7.45855 3.0364 3.75311 3.0364C3.66594 3.0364 3.57729 3.04084 3.4916 3.05413C3.13406 3.1088 2.87403 3.40133 2.85334 3.76479C2.83414 4.1046 3.07644 4.44146 3.4133 4.52272C3.53149 4.55079 3.65708 4.55227 3.7797 4.55227C5.62356 4.55374 7.46889 4.55227 9.31275 4.55227V4.55522ZM11.9928 2.18392C11.9928 1.96082 12.012 1.75546 11.9884 1.55305C11.9485 1.20437 11.7417 0.981274 11.4063 0.882285C11.3236 0.858646 11.2334 0.848304 11.1463 0.848304C9.92146 0.846827 8.69813 0.845349 7.47333 0.848304C7.03305 0.848304 6.70062 1.09504 6.63709 1.49838C6.60163 1.71852 6.63118 1.949 6.63118 2.18392H11.9928Z"/><path d="M7.24124 10.9136C7.24124 12.2079 7.24272 13.5006 7.23828 14.7949C7.23828 14.9131 7.21021 15.0416 7.15555 15.1436C7.07872 15.2898 6.92802 15.343 6.76402 15.3179C6.59412 15.2928 6.47297 15.1967 6.42717 15.0268C6.40944 14.9603 6.39909 14.8894 6.39909 14.82C6.39909 12.2271 6.39762 9.63415 6.39909 7.04122C6.39909 6.94519 6.41535 6.83881 6.45671 6.75312C6.53354 6.5906 6.67833 6.51821 6.86006 6.53446C7.04326 6.55071 7.16441 6.65118 7.21465 6.82552C7.23828 6.90825 7.23976 6.99838 7.23976 7.08555C7.23976 8.36206 7.23976 9.6371 7.23976 10.9136H7.24124Z"/><path d="M8.88721 10.9198C8.88721 9.62706 8.88721 8.33282 8.88721 7.04005C8.88721 6.7357 9.02018 6.55841 9.25952 6.53477C9.4841 6.5126 9.65843 6.63671 9.70867 6.8598C9.72344 6.92777 9.72935 6.99868 9.72935 7.06812C9.72935 9.63741 9.72935 12.2067 9.72935 14.776C9.72935 14.8513 9.72344 14.9281 9.70571 15.002C9.65991 15.197 9.49296 15.3271 9.30089 15.3256C9.1103 15.3226 8.94187 15.1882 8.90198 14.9932C8.88721 14.9193 8.88721 14.8425 8.88721 14.7656C8.88721 13.4832 8.88721 12.2023 8.88721 10.9198Z"/><path d="M11.3752 10.9351C11.3752 9.65269 11.3752 8.37175 11.3752 7.08932C11.3752 6.72587 11.5156 6.53528 11.786 6.52937C12.0623 6.52494 12.2189 6.72587 12.2189 7.0908C12.2189 9.64826 12.2189 12.2057 12.2189 14.7632C12.2189 15.1281 12.0593 15.332 11.786 15.3246C11.5156 15.3172 11.3767 15.1266 11.3767 14.7617C11.3767 13.4852 11.3767 12.2102 11.3767 10.9336L11.3752 10.9351Z"/></symbol><symbol viewBox="0 0 42 43" id="svg-user" xmlns="http://www.w3.org/2000/svg"><path fill-rule="evenodd" clip-rule="evenodd" d="M21 2.77539C10.5064 2.77539 2 11.289 2 21.7754C2 27.2709 4.32984 32.2163 8.06468 35.6807L8.06688 35.6827C11.4579 38.8472 16.0011 40.7754 21 40.7754C25.6922 40.7754 29.9873 39.0734 33.2976 36.2527L33.2992 36.2513C37.3998 32.772 40 27.5776 40 21.7754C40 11.289 31.4936 2.77539 21 2.77539ZM0 21.7754C0 10.1849 9.40131 0.775391 21 0.775391C32.5987 0.775391 42 10.1849 42 21.7754C42 28.1881 39.1237 33.9317 34.5942 37.7754C34.5939 37.7757 34.5935 37.7761 34.5931 37.7764L33.9462 37.0139L34.5947 37.775C34.5946 37.7751 34.5944 37.7753 34.5942 37.7754C30.9354 40.8929 26.1845 42.7754 21 42.7754C15.4764 42.7754 10.4508 40.6424 6.70345 37.146C6.70382 37.1463 6.70418 37.1467 6.70455 37.147L7.38462 36.4139L6.70235 37.145C6.70272 37.1453 6.70308 37.1456 6.70345 37.146C2.5774 33.3181 0 27.8485 0 21.7754Z"/><path fill-rule="evenodd" clip-rule="evenodd" d="M25.5344 28.451C22.2721 28.4434 19.0153 28.4357 15.7593 28.4587L15.7522 28.4588C15.2963 28.4588 14.8539 28.5119 14.4485 28.6369C11.4976 29.5571 9.4569 31.9253 8.48555 36.0555C11.8283 38.9972 16.2072 40.7741 21.006 40.7741C25.5011 40.7741 29.6317 39.2121 32.8812 36.601C32.5116 34.3091 31.5375 32.2952 30.2442 30.8444C28.8757 29.3092 27.2017 28.4542 25.5344 28.451ZM25.5387 26.4511L25.5364 26.451C22.2777 26.4434 19.0135 26.4357 15.7485 26.4587C15.1444 26.459 14.4962 26.529 13.8571 26.7263L13.8546 26.7271C9.98945 27.9317 7.55512 31.0743 6.49294 35.7964C6.45626 35.9531 6.42937 36.1055 6.40761 36.2289L6.31152 36.7734L6.70838 37.1437C10.4558 40.6408 15.4819 42.7741 21.006 42.7741C26.1907 42.7741 30.9418 40.8915 34.6008 37.7737L35.02 37.4165L34.9421 36.8712C34.9375 36.8388 34.933 36.8092 34.9292 36.7851L34.929 36.7836C34.9254 36.7604 34.9226 36.7419 34.9199 36.7232C34.5523 33.9007 33.3856 31.3628 31.7371 29.5135C30.0903 27.6661 27.9097 26.4557 25.5387 26.4511C25.5389 26.4511 25.5385 26.4511 25.5387 26.4511Z"/><path fill-rule="evenodd" clip-rule="evenodd" d="M21.0433 11.9435C16.9172 11.9174 12.9141 15.1466 12.9141 20.0204L21.0433 11.9435ZM21.0308 13.9435C17.8954 13.9235 14.9141 16.3712 14.9141 20.0204V20.0281C14.9141 23.7282 17.9444 26.1424 20.9427 26.0898L20.9514 26.0897H21.0003L21.0097 26.0898C24.1671 26.1489 27.0503 23.5497 27.0833 20.0955L27.0834 20.0937C27.1229 16.6098 24.2542 13.9633 21.0308 13.9435ZM21.0433 11.9435C25.3121 11.9699 29.136 15.4619 29.0832 20.1164C29.0384 24.704 25.2201 28.1636 20.9819 28.0897H20.9687C16.9546 28.1551 12.9141 24.9397 12.9141 20.0281V20.0204"/></symbol><symbol viewBox="0 0 18 18" id="svg-user-leader" xmlns="http://www.w3.org/2000/svg"><path d="M13.6542 12.0749C13.0542 10.6339 11.9833 9.72003 10.4863 9.32194C10.2788 9.26587 10.0714 9.23783 9.84709 9.19859C11.2993 8.58744 11.9609 7.10722 11.6805 5.78961C11.389 4.42714 10.2564 3.42911 8.92195 3.36744C7.55948 3.30576 6.33718 4.14679 5.92227 5.44759C5.71482 6.09238 5.71482 6.73717 5.9447 7.37635C6.25308 8.23981 6.8418 8.83414 7.69405 9.20419C7.60434 9.21541 7.54266 9.22662 7.48098 9.23783C6.91469 9.32754 6.37082 9.49575 5.87181 9.77049C4.97471 10.2695 4.32431 11.004 3.9038 11.9516C3.60663 12.6132 3.65149 13.258 4.07761 13.8355C4.63269 14.5924 5.3728 15.0185 6.34279 15.0129C7.95757 14.9961 9.56674 15.0017 11.1815 15.0129C12.0338 15.0185 12.729 14.7101 13.2897 14.071C13.8055 13.4822 13.9569 12.8038 13.6542 12.0805V12.0749ZM6.18019 6.38954C6.18019 4.95418 7.3296 3.79356 8.74814 3.79356C10.1667 3.79356 11.3161 4.95418 11.3161 6.38954C11.3161 7.8249 10.1667 8.98553 8.74814 8.98553C8.73132 8.98553 8.7201 8.98553 8.70328 8.98553C8.68646 8.98553 8.66964 8.98553 8.65282 8.98553C8.60236 8.98553 8.5519 8.98553 8.50704 8.97431C8.49583 8.97431 8.48462 8.97431 8.4678 8.97431C8.41733 8.96871 8.36687 8.9631 8.31641 8.95188C8.29959 8.95188 8.28837 8.95189 8.27155 8.94628C7.0829 8.722 6.18019 7.66791 6.18019 6.39515V6.38954ZM13.1664 13.4822C12.8356 13.97 12.4094 14.3513 11.8207 14.4971C11.6974 14.5307 11.5684 14.5588 11.4394 14.5588C10.6545 14.5644 9.86951 14.5588 9.05652 14.5588C8.70889 14.5588 8.36127 14.5588 8.32762 14.5588H6.24747C5.45129 14.5588 4.85136 14.1831 4.3972 13.5607C4.12807 13.1907 4.072 12.759 4.2346 12.3328C4.58784 11.4189 5.19338 10.7181 6.0288 10.1854C6.21944 10.0733 6.30354 10.0228 6.39325 9.97234C6.88105 9.74806 7.37445 9.63032 7.89589 9.60789C8.04167 9.58546 9.09016 9.57425 9.58356 9.60789C10.1443 9.63592 10.6377 9.75367 11.1255 9.97794C11.2768 10.0564 11.3553 10.1013 11.4899 10.191C12.073 10.5274 12.5384 10.976 12.886 11.5423C13.0318 11.7834 13.1664 12.0413 13.2785 12.3048C13.4467 12.7085 13.4131 13.1178 13.172 13.4766L13.1664 13.4822Z" stroke-width="0.4"/><path fill-rule="evenodd" clip-rule="evenodd" d="M9.7649 1.55362C13.5908 2.11071 16.5291 5.4048 16.5291 9.38516C16.5291 10.4282 16.3273 11.4242 15.9606 12.3361C15.9857 12.3344 16.0109 12.3335 16.0363 12.3335C16.2603 12.3335 16.4688 12.3999 16.6433 12.514C17.0215 11.5441 17.2291 10.4889 17.2291 9.38516C17.2291 5.03946 14.0112 1.44533 9.8283 0.855464C9.84735 0.936957 9.85743 1.0219 9.85743 1.1092C9.85743 1.26723 9.82441 1.41754 9.7649 1.55362ZM15.5794 14.4558C15.3594 14.3562 15.1775 14.1871 15.0621 13.9763C13.627 15.988 11.274 17.2997 8.61454 17.2997C6.0387 17.2997 3.75026 16.0692 2.305 14.1639C2.15146 14.3438 1.94145 14.4741 1.70241 14.5273C3.27279 16.6348 5.78427 17.9997 8.61454 17.9997C11.4767 17.9997 14.0129 16.6038 15.5794 14.4558ZM0.7 9.38516C0.7 10.4332 0.903708 11.4337 1.27369 12.3491C1.03098 12.3902 0.815054 12.51 0.653118 12.6814C0.232268 11.666 0 10.5527 0 9.38516C0 4.94503 3.35919 1.28948 7.67481 0.821289C7.65022 0.91311 7.63711 1.00963 7.63711 1.1092C7.63711 1.25473 7.66511 1.39371 7.71602 1.52106C3.76801 1.96719 0.7 5.31789 0.7 9.38516Z"/><path d="M8.74725 2.22032C9.36037 2.22032 9.85741 1.72329 9.85741 1.11016C9.85741 0.497036 9.36037 0 8.74725 0C8.13412 0 7.63708 0.497036 7.63708 1.11016C7.63708 1.72329 8.13412 2.22032 8.74725 2.22032Z"/><path d="M1.46014 14.5563C2.07326 14.5563 2.5703 14.0592 2.5703 13.4461C2.5703 12.833 2.07326 12.3359 1.46014 12.3359C0.847012 12.3359 0.349976 12.833 0.349976 13.4461C0.349976 14.0592 0.847012 14.5563 1.46014 14.5563Z"/><path d="M16.0363 14.5563C16.6494 14.5563 17.1465 14.0592 17.1465 13.4461C17.1465 12.833 16.6494 12.3359 16.0363 12.3359C15.4232 12.3359 14.9261 12.833 14.9261 13.4461C14.9261 14.0592 15.4232 14.5563 16.0363 14.5563Z"/></symbol><symbol viewBox="0 0 18 18" id="svg-users" xmlns="http://www.w3.org/2000/svg"><g clip-path="url(#abclip0_909_1809)"><path d="M16.2598 6.04688C16.5234 6.19336 16.7637 6.37207 16.9805 6.58301C17.1973 6.79395 17.3789 7.02832 17.5254 7.28613C17.6719 7.54395 17.7891 7.81641 17.877 8.10352C17.9648 8.39063 18.0059 8.68945 18 9H16.875C16.875 8.69531 16.8164 8.40527 16.6992 8.12988C16.582 7.85449 16.4209 7.61719 16.2158 7.41797C16.0107 7.21875 15.7705 7.05762 15.4951 6.93457C15.2197 6.81152 14.9297 6.75 14.625 6.75C14.3145 6.75 14.0244 6.80859 13.7549 6.92578C13.4854 7.04297 13.248 7.2041 13.043 7.40918C12.8379 7.61426 12.6768 7.85449 12.5596 8.12988C12.4424 8.40527 12.3809 8.69531 12.375 9C12.375 9.5332 12.2549 10.04 12.0146 10.5205C11.7744 11.001 11.4375 11.3994 11.0039 11.7158C11.3848 11.9092 11.7275 12.1465 12.0322 12.4277C12.3369 12.709 12.6006 13.0254 12.8232 13.377C13.0459 13.7285 13.2129 14.1035 13.3242 14.502C13.4355 14.9004 13.4941 15.3164 13.5 15.75H12.375C12.375 15.2871 12.2871 14.8506 12.1113 14.4404C11.9355 14.0303 11.6924 13.6729 11.3818 13.3682C11.0713 13.0635 10.7139 12.8232 10.3096 12.6475C9.90527 12.4717 9.46875 12.3809 9 12.375C8.53711 12.375 8.10059 12.4629 7.69043 12.6387C7.28027 12.8145 6.92285 13.0576 6.61816 13.3682C6.31348 13.6787 6.07324 14.0361 5.89746 14.4404C5.72168 14.8447 5.63086 15.2813 5.625 15.75H4.5C4.5 15.3223 4.55859 14.9092 4.67578 14.5107C4.79297 14.1123 4.95996 13.7373 5.17676 13.3857C5.39355 13.0342 5.6543 12.7178 5.95898 12.4365C6.26367 12.1553 6.60938 11.915 6.99609 11.7158C6.56836 11.3994 6.23438 11.001 5.99414 10.5205C5.75391 10.04 5.63086 9.5332 5.625 9C5.625 8.69531 5.56641 8.40527 5.44922 8.12988C5.33203 7.85449 5.1709 7.61719 4.96582 7.41797C4.76074 7.21875 4.52051 7.05762 4.24512 6.93457C3.96973 6.81152 3.67969 6.75 3.375 6.75C3.06445 6.75 2.77441 6.80859 2.50488 6.92578C2.23535 7.04297 1.99805 7.2041 1.79297 7.40918C1.58789 7.61426 1.42676 7.85449 1.30957 8.12988C1.19238 8.40527 1.13086 8.69531 1.125 9H0C0 8.69531 0.0410156 8.39941 0.123047 8.1123C0.205078 7.8252 0.319336 7.55273 0.46582 7.29492C0.612305 7.03711 0.796875 6.80273 1.01953 6.5918C1.24219 6.38086 1.48242 6.19922 1.74023 6.04688C1.54688 5.8418 1.39746 5.60449 1.29199 5.33496C1.18652 5.06543 1.13086 4.78711 1.125 4.5C1.125 4.19531 1.18359 3.90527 1.30078 3.62988C1.41797 3.35449 1.5791 3.11719 1.78418 2.91797C1.98926 2.71875 2.22656 2.55762 2.49609 2.43457C2.76562 2.31152 3.05859 2.25 3.375 2.25C3.67969 2.25 3.96973 2.30859 4.24512 2.42578C4.52051 2.54297 4.75781 2.7041 4.95703 2.90918C5.15625 3.11426 5.31738 3.35449 5.44043 3.62988C5.56348 3.90527 5.625 4.19531 5.625 4.5C5.625 4.78711 5.57227 5.06543 5.4668 5.33496C5.36133 5.60449 5.20898 5.8418 5.00977 6.04688C5.49023 6.31055 5.88281 6.67383 6.1875 7.13672C6.50391 6.66797 6.9082 6.29883 7.40039 6.0293C7.89258 5.75977 8.42578 5.625 9 5.625C9.56836 5.625 10.0986 5.75977 10.5908 6.0293C11.083 6.29883 11.4902 6.66797 11.8125 7.13672C12.1172 6.67383 12.5098 6.31055 12.9902 6.04688C12.7969 5.8418 12.6475 5.60449 12.542 5.33496C12.4365 5.06543 12.3809 4.78711 12.375 4.5C12.375 4.19531 12.4336 3.90527 12.5508 3.62988C12.668 3.35449 12.8291 3.11719 13.0342 2.91797C13.2393 2.71875 13.4766 2.55762 13.7461 2.43457C14.0156 2.31152 14.3086 2.25 14.625 2.25C14.9297 2.25 15.2197 2.30859 15.4951 2.42578C15.7705 2.54297 16.0078 2.7041 16.207 2.90918C16.4062 3.11426 16.5674 3.35449 16.6904 3.62988C16.8135 3.90527 16.875 4.19531 16.875 4.5C16.875 4.78711 16.8223 5.06543 16.7168 5.33496C16.6113 5.60449 16.459 5.8418 16.2598 6.04688ZM2.25 4.5C2.25 4.6582 2.2793 4.80469 2.33789 4.93945C2.39648 5.07422 2.47559 5.19141 2.5752 5.29102C2.6748 5.39062 2.79492 5.47266 2.93555 5.53711C3.07617 5.60156 3.22266 5.63086 3.375 5.625C3.5332 5.625 3.67969 5.5957 3.81445 5.53711C3.94922 5.47852 4.06641 5.39941 4.16602 5.2998C4.26562 5.2002 4.34766 5.08008 4.41211 4.93945C4.47656 4.79883 4.50586 4.65234 4.5 4.5C4.5 4.3418 4.4707 4.19531 4.41211 4.06055C4.35352 3.92578 4.27441 3.80859 4.1748 3.70898C4.0752 3.60938 3.95508 3.52734 3.81445 3.46289C3.67383 3.39844 3.52734 3.36914 3.375 3.375C3.2168 3.375 3.07031 3.4043 2.93555 3.46289C2.80078 3.52148 2.68359 3.60059 2.58398 3.7002C2.48438 3.7998 2.40234 3.91992 2.33789 4.06055C2.27344 4.20117 2.24414 4.34766 2.25 4.5ZM9 11.25C9.30469 11.25 9.59473 11.1914 9.87012 11.0742C10.1455 10.957 10.3828 10.7959 10.582 10.5908C10.7812 10.3857 10.9424 10.1484 11.0654 9.87891C11.1885 9.60938 11.25 9.31641 11.25 9C11.25 8.69531 11.1914 8.40527 11.0742 8.12988C10.957 7.85449 10.7959 7.61719 10.5908 7.41797C10.3857 7.21875 10.1455 7.05762 9.87012 6.93457C9.59473 6.81152 9.30469 6.75 9 6.75C8.68945 6.75 8.39941 6.80859 8.12988 6.92578C7.86035 7.04297 7.62305 7.2041 7.41797 7.40918C7.21289 7.61426 7.05176 7.85449 6.93457 8.12988C6.81738 8.40527 6.75586 8.69531 6.75 9C6.75 9.31055 6.80859 9.60059 6.92578 9.87012C7.04297 10.1396 7.2041 10.377 7.40918 10.582C7.61426 10.7871 7.85156 10.9482 8.12109 11.0654C8.39062 11.1826 8.68359 11.2441 9 11.25ZM13.5 4.5C13.5 4.6582 13.5293 4.80469 13.5879 4.93945C13.6465 5.07422 13.7256 5.19141 13.8252 5.29102C13.9248 5.39062 14.0449 5.47266 14.1855 5.53711C14.3262 5.60156 14.4727 5.63086 14.625 5.625C14.7832 5.625 14.9297 5.5957 15.0645 5.53711C15.1992 5.47852 15.3164 5.39941 15.416 5.2998C15.5156 5.2002 15.5977 5.08008 15.6621 4.93945C15.7266 4.79883 15.7559 4.65234 15.75 4.5C15.75 4.3418 15.7207 4.19531 15.6621 4.06055C15.6035 3.92578 15.5244 3.80859 15.4248 3.70898C15.3252 3.60938 15.2051 3.52734 15.0645 3.46289C14.9238 3.39844 14.7773 3.36914 14.625 3.375C14.4668 3.375 14.3203 3.4043 14.1855 3.46289C14.0508 3.52148 13.9336 3.60059 13.834 3.7002C13.7344 3.7998 13.6523 3.91992 13.5879 4.06055C13.5234 4.20117 13.4941 4.34766 13.5 4.5Z"/></g><defs><clipPath id="abclip0_909_1809"><rect width="18" height="18"/></clipPath></defs></symbol><symbol viewBox="0 0 24 24" id="svg-volume-fill" xmlns="http://www.w3.org/2000/svg"><g><path d="m12.593 23.258l-.011.002l-.071.035l-.02.004l-.014-.004l-.071-.035q-.016-.005-.024.005l-.004.01l-.017.428l.005.02l.01.013l.104.074l.015.004l.012-.004l.104-.074l.012-.016l.004-.017l-.017-.427q-.004-.016-.017-.018m.265-.113l-.013.002l-.185.093l-.01.01l-.003.011l.018.43l.005.012l.008.007l.201.093q.019.005.029-.008l.004-.014l-.034-.614q-.005-.018-.02-.022m-.715.002a.02.02 0 0 0-.027.006l-.006.014l-.034.614q.001.018.017.024l.015-.002l.201-.093l.01-.008l.004-.011l.017-.43l-.003-.012l-.01-.01z"/><path d="M13.26 3.3a1.1 1.1 0 0 1 1.734.78l.006.114v15.612a1.1 1.1 0 0 1-1.643.957l-.096-.062L6.68 16H4a2 2 0 0 1-1.995-1.85L2 14v-4a2 2 0 0 1 1.85-1.995L4 8h2.68zm6.407 3.483A7 7 0 0 1 22 12a7 7 0 0 1-2.333 5.217a1 1 0 1 1-1.334-1.49A5 5 0 0 0 20 12c0-1.48-.642-2.81-1.667-3.727a1 1 0 1 1 1.334-1.49m-2 2.236A4 4 0 0 1 19 11.999a4 4 0 0 1-1.333 2.982a1 1 0 0 1-1.422-1.4l.088-.09c.41-.368.667-.899.667-1.491a2 2 0 0 0-.548-1.376l-.119-.115a1 1 0 1 1 1.334-1.49"/></g></symbol></svg>